<svg xmlns="http://www.w3.org/2000/svg" xml:space="preserve" fill-rule="evenodd" stroke-linecap="round" stroke-linejoin="round" stroke-miterlimit="1.5" clip-rule="evenodd" viewBox="0 0 483 609">
  <path fill="url(#imgA)" d="M137.455 3.874S255.609 21.587 314.85 1c0 0 5.535 15.279 7.36 19.689 1.826 4.41-.348 16.718 4.903 18.44 5.251 1.723 46.235 12.391 59.429 25.711 13.194 13.319 31.808 28.202 45.653 67.53 13.844 39.329 28.264 129.877 29.733 145.378 1.468 15.501 19.472 77.534 17.845 94.494-1.627 16.959 2.567 79.136 2.853 88.989.286 9.853-2.964 64.488-10.331 80.488-7.366 15.999-20.646 44.402-22.906 46.06-2.26 1.658-56.552-7.43-59.335-17.073-2.783-9.642 5.702-76.32 5.702-76.32s-7.972 66.929-10.433 85.048c-2.462 18.12-242.801 23.043-256.753 13.835-13.952-9.208-31.193-120.98-31.193-120.98s-3.688 67.805 11.745 109.463c0 0 4.279 7.605.046 16.854-4.234 9.249-43.611 10.844-56.3 8.425-12.69-2.418-54.317-80.205-51.754-150.05C3.676 387.137 4.188 318.1 20.397 282.418c6.793-14.954 5.722-98.66 13.902-109.261 10.272-13.31 8.252-72.99 35.577-91.743 27.325-18.754 40.097-22.655 47.183-31.235 7.086-8.58 20.396-46.305 20.396-46.305Z"/>
  <path fill="url(#imgB)" fill-rule="nonzero" d="M8.213 517.572c.113-.193.241-.396.384-.615 2-3.1 5.2-3.1 6.7.1.8 1.9 1.8 2.5 3.7 2.3 2.1-.2 2.7.2 2.9 2.2.5 3.5 1.8 4.6 3.6 3.1 1.3-1.1 1.6-.8 2.1 1.6 1.2 5.1 1.4 5.5 3.4 4.8 2.6-.8 3.2.5 7.1 15.4 1.7 6.9 4.3 14.6 5.7 17.2 3.7 7.1 1.1 11.7-5.7 9.9-2.1-.5-2.9-1.9-4.8-8.1-1.3-4.1-3.4-9.7-4.7-12.4-1.2-2.8-2.8-6.6-3.4-8.6-.8-2.5-2.1-4-4.7-5.3-4.4-2.1-5.1-1.5-3.6 2.7.7 1.9 1.2 4 1.2 4.9 0 .9.7 2.1 1.5 2.8.9.7 1.5 2.9 1.5 5.1 0 1.16.153 2.29.374 3.12a295.206 295.206 0 0 1-7.942-21.663c1.077-1.358.149-3.953-3.01-9.915a282.574 282.574 0 0 1-2.306-8.627Zm67.484-11.515c-1.1.8-2.7 1.5-3.7 1.5-.9 0-1.9.7-2.3 1.5-.3.8-1.5 1.5-2.7 1.5-1.3 0-2.3.8-2.6 2-.3 1.2-1.8 2.7-3.4 3.6-2.3 1.1-2.9 2.1-2.9 4.8 0 1.8-.7 4.7-1.6 6.4-1.4 2.9-1.4 3.7.1 8.9 1 3.2 2.4 7.4 3.2 9.3.8 1.9 1.8 6.1 2.1 9.3.4 4.7 1 6.2 3.3 8.1 3.1 2.7 6.4 2.5 7.9-.4.9-1.7 0-10-2-18-1.9-7.6-1.9-11.8.1-14.1 1-1.2 1.9-3 1.9-3.9 0-1.3 1.1-1.9 4.2-2.3 4.7-.6 7.8.6 7.8 3.1.1.9 1.2 3.5 2.5 5.7 1.4 2.2 2.7 4.4 2.9 5 1.3 3.2 3.6 11.7 3.6 13.4 0 1.1.5 2.3 1.1 2.7 1.7 1 5.2-3.1 5.1-6.3 0-6.5-2-15.5-3.9-18.1-3.6-4.9-5.3-9-5.3-13.1 0-4.2-2.5-7.1-6.1-7.1-.9 0-2.4-1.1-3.3-2.5-1.9-2.8-3.3-3.1-6-1Zm-53.758 52.849a.597.597 0 0 0 .158.151c.428.286.717 1.196.855 2.248-.339-.794-.678-1.595-1.013-2.399Zm352.458-164.549c.2 4 .9 6.8 1.9 7.8 1.5 1.5 1.7 1.4 2.3-.5.9-2.9 3.5-2.7 3.5.3 0 1.4.8 3.2 1.8 4.2 1.3 1.4 1.7 3.2 1.5 8.3-.1 3.6.4 8.4 1.2 10.6.8 2.4 1.5 10.2 1.8 19 .3 8.2 1.1 16.3 1.8 18 .7 1.9 1.2 9.1 1.2 20 0 15.6-.2 17.3-2.2 21.2-3.1 5.9-4.5 6.9-7.7 5.4-2.3-1-2.5-1.6-1.9-4.4.4-1.8.7-3.8.6-4.5-.1-.6-.1-2 0-3 .2-6.8-.2-15.1-1.1-23.2-1.1-10.2-.5-41.3.9-43.7.9-1.8-1.7-10.3-3.2-10.3-.6 0-1.9-.7-2.9-1.7-1.7-1.5-2-1.5-4.3.7-1.7 1.6-3.1 2.1-4.9 1.6-1.9-.5-2.6-.2-2.6.8 0 2.5-4.4 8.6-6.7 9.2-1.3.3-2.3 1.3-2.3 2.2 0 .9-.9 2.6-2.1 3.8-2.1 2.2-5.1 16.8-4.2 20.3.2.9-.3 5-1 9.1-1.1 5.3-1.5 14.5-1.4 31.5l.1 24-2.8 3c-1.5 1.7-3.4 3.8-4.3 4.7-1.7 1.8-1.5 1.9-9-2-2.9-1.5-3.3-2.1-3.5-6.2 0-2.5-.2-5.9-.4-7.5-.5-6.8-.5-22.4.1-45.8.5-21.9.4-24.8-.9-25.3-1.1-.4-1.6-2-1.6-5.1 0-3.7-.5-5.1-2.7-7.2-1.6-1.4-3.3-2.4-4-2.3-.7.1-1.6-.6-2.2-1.6-.8-1.5-2.2-1.8-9.3-1.6-9.2.1-14.6 1.8-15 4.8-.2 1-1.2 2.4-2.3 3-2.8 1.5-3.5 2.7-3.5 5.7 0 1.5-.9 3.3-2 4-1.7 1.2-1.8 2.1-1.2 7.4 1.3 10.7.7 64.4-.7 71-.7 3.3-1.5 6.9-1.7 8-.3 1.1-2.7 3.5-5.4 5.2-5.2 3.4-7 4-7 2.3 0-.6-.8-1-1.8-1s-3.3-1.5-5.1-3.4l-3.3-3.5.7-42.4.7-42.3-2.7-1.8c-1.8-1.2-2.5-2.4-2.3-4 .1-1.3-1-3.7-3-6.2-2.7-3.2-3.4-3.6-4.2-2.4-.7 1.2-1.2 1.2-2.1.3-.9-.9-.9-1.6.1-2.8 1-1.2 1-1.9.2-2.7-.7-.7-1.2-.9-1.2-.5s-.9.3-2.1-.3c-1.5-.9-2.4-.8-3.5.1-.9.7-3.2 1-6.4.6-4-.5-5-.3-5.4 1.1-.3.9-2.8 2.9-5.5 4.5-3.9 2.1-5.1 3.4-5.6 6-.4 1.7-1.6 4.1-2.6 5.3-1.9 2-2 4-1.9 40.5 0 44.5-.4 50.9-3.2 50.9-1.1 0-2.2 1.1-2.8 2.5-.5 1.4-1.5 2.5-2.2 2.5-3.8-.1-9.2-2.1-10.5-3.9-.8-1.2-2-2.1-2.7-2.1-2.2 0-2.8-12.2-2.7-54.2.2-39.1.2-39.6-1.9-40.3-1.6-.5-2-1.5-2-4.6 0-3.2-.3-3.9-2-3.9-1 0-2.4-.9-3-2.1-.7-1.3-1.9-1.9-3.3-1.7-1.7.2-2.3-.3-2.5-2.3-.3-2.5-.7-2.7-7-3.2-5.8-.4-7-.2-9.6 1.8-1.7 1.3-4 2.5-5.1 2.7-1.5.2-2.1 1.2-2.3 4.1-.2 2.8-.9 4.1-2.6 4.9-3.3 1.4-3.4 3.4-3.5 50.9 0 40.6-.1 40.7-2.3 44.2-2.8 4.4-4.6 5.2-6.8 3.2-.9-.8-2.4-1.5-3.3-1.5-.8 0-1.9-1-2.3-2.3-.3-1.2-1.3-3-2.1-3.9-1.3-1.4-1.4-3.7-.9-13 .4-6.2.8-26.8 1-45.8.3-28.6.1-34.8-1.1-36.6-.8-1.3-1.1-3.2-.8-4.7.5-1.7-.1-3.9-1.8-7-1.4-2.5-2.7-5.8-2.9-7.3-.2-1.7-1-3-1.9-3.2-2-.4-2.9 2.8-3.5 12.5-.5 6.8-.3 7.3 1.5 7.3 1.5 0 2.2.9 2.6 3.3.8 3.9 0 63.5-1 76-1.1 13.7 3 27 11 36.1l3.4 3.8 6.8-.4c5.6-.3 7.3-.8 9.6-2.9 1.5-1.5 2.7-3.5 2.7-4.6 0-1.1.9-2.8 2-3.8 1.8-1.7 1.9-3.3 1.9-45.6 0-24.2.3-44.4.6-44.9.3-.6 1.4-1 2.4-1s2.3-1.1 2.9-2.5c1.2-2.6 2.6-3.2 3.7-1.5.4.7 1.3.6 2.6-.1 1.7-.9 2.1-.6 3 1.8.5 1.6 1.9 3.3 3.2 3.8l2.2 1 .1 42c0 23.1.4 43.3.8 44.9.4 1.6 1.8 3.8 3.2 4.8 1.3 1.1 2.4 2.5 2.4 3.2 0 .7 1.9 2.6 4.3 4.2 2.3 1.6 5 3.9 6 5.1 1.6 2 2.6 2.2 8.9 1.9 3.9-.2 7.3-.8 7.7-1.5.4-.6 1.7-1.3 2.8-1.6 3.8-.7 7.3-3.6 7.3-6.1 0-1.2 1.2-3.6 2.6-5.1l2.6-2.8-.3-25.5c-.4-49.3.2-58.3 4.3-59.6 1-.3 2.7-1.5 3.8-2.6 1.3-1.4 2.4-1.8 3.7-1.3 1 .5 2.6.7 3.5.6.9-.1 2.2.7 2.8 1.8.6 1.2 1.9 2.1 3 2.1 1 0 2.2.5 2.6 1.1.3.6.7 19.8.9 42.6.1 37.7.3 41.6 1.8 42.5.9.5 1.7 1.8 1.7 2.9 0 1.1 1 2.3 2.3 2.8 1.2.5 3.4 2.1 4.9 3.5 1.5 1.4 3 2.6 3.4 2.6.4 0 1.8 1 3 2.1 2.1 1.9 2.7 2 5.3.9 1.6-.6 3.5-.9 4.1-.5.6.4 1.9 0 2.8-.8.9-.8 3.3-2.3 5.2-3.2 4.1-2.1 7-5.2 7-7.4 0-.8 1.1-2.4 2.5-3.6l2.4-2 .6-25c.7-34.8 1.4-54.6 2-57.2.6-2.5 5-7 7.8-7.9 1-.3 4.2.2 7.2 1.2 6.3 1.9 5.6-.3 5.8 19.9 0 6.6-.3 22-.7 34.3-.9 27.3-.3 34 3 35.3 1.3.4 2.4 1.4 2.4 2 0 2 4.8 5.7 7.7 5.9 6.7.5 9-.1 12.1-3 1.8-1.7 3.9-3 4.6-3 .7 0 3.4-2.3 6.1-5.1l4.9-5.1.3-15.7c.1-8.6-.4-20.1-1.1-25.6-.7-5.6-.9-10.7-.5-11.6.5-.9 1.1-5.4 1.4-10 1.2-19.2 2.7-22.6 11.5-26.5 1.9-.9 3.1-.8 5.3.3 2.4 1.2 2.7 1.8 2.3 4.6-3.1 19.8-3.9 35.5-2.3 45.5.6 3.7 1.2 11.2 1.3 16.7.3 11.4.6 13.3 3.1 17.5 2 3.5 6.3 4.7 10.7 3 1.6-.6 3.7-.8 4.7-.5 2.4.8 2.7-.9 3.3-16 .3-6.6.9-16.1 1.4-21 .5-5 .5-11.7.1-15-.5-3.3-1.3-10.3-1.9-15.5-.5-5.2-1.2-10.4-1.5-11.5-.3-1.1-.8-5.4-1.1-9.5-.3-4.1-1-8-1.6-8.7-.5-.6-1.1-3.8-1.4-7-1.1-13.7-4.2-20.4-9.9-21.5-1.2-.2-2.5-1.7-3.3-3.8-1.2-3.4-1.2-3.3-.9 2.8Zm94.9 98.1c-.8 2.3-1.5 2.8-3.1 2.4-1.9-.5-2.1-.1-2.1 3.9 0 2.4-.9 6.1-2 8.3-1.3 2.5-2 5.9-2 9.2 0 6-1.5 13.3-3.8 18-1.8 3.8-.5 6.3 3.4 6.3 4 0 6.4-6.2 6.4-16.8 0-12.5.6-14.5 4.5-16.6 2.7-1.5 3.6-1.6 5.2-.5 2.7 1.6 5.3.5 5.3-2.4 0-1.3.4-2.7.9-3.3.5-.5 1.1-3.2 1.3-5.9.3-4.5.1-5-1.7-4.7-4.1.6-8 .6-9.6-.2-1.3-.5-1.9 0-2.7 2.3Zm-55.4-4.3c-2.8 1.4-4.4 4.6-3.3 6.4.3.5 1.9 1 3.4 1 1.6 0 4 1.1 5.5 2.5s3.3 2.5 4 2.5c2.2 0 9.8 8.1 9.1 9.8-.3.9-1 4.7-1.6 8.6-.6 3.9-1.5 7.9-2 8.8-.5 1-.9 3.3-.9 5.2 0 3.3.1 3.4 4.2 3.4 5 .1 6.8-1.1 6.8-4.5 0-1.3.5-3.3 1-4.3.6-1.1 1.4-7 1.8-13.2.7-9.3.6-11.5-.6-12.4-.8-.6-1.7-2.8-2.1-5-.5-3.3-1-3.9-3.3-4.2-1.5-.2-3.7-1.5-4.8-3-1.8-2.2-2.9-2.6-8.3-2.8-3.8-.1-7.3.4-8.9 1.2Zm-5.5 13.5c-.6.6-.9 1.8-.6 2.6.7 1.9-1.8 18.2-2.9 18.9-1.4.9-.9 4.2.8 4.8 4.2 1.6 5.2.8 6-5 .8-6.8.1-20.1-1.3-21.5-.5-.5-1.3-.5-2 .2ZM30.979 183.464c2.595-2.601 4.327 2.2 1.718 6.393-.9 1.5-1.2 4.7-1 9.7.2 4.1.4 9.7.5 12.5.2 6.2-.8 19.1-2.7 35.5-.7 6.9-1.4 16.2-1.4 20.6 0 7-.9 13.1-5 32.7-.5 2.7-1 7.3-1 10.2 0 3-.4 6.5-.9 7.8-.7 1.8-.6 3 .4 4.3.8 1.1 1.5 2.9 1.5 4.2 0 1.4.9 2.7 2.4 3.3 2 .9 3.1.7 6.8-1.5 3.8-2.2 4.7-3.4 6.1-7.9.9-3 1.7-7.1 1.7-9.1 0-2.1.7-6.1 1.5-8.9.8-3.1 1.6-11.6 1.9-20.7.3-8.5.7-17.3.9-19.5 1.9-16.7 2.6-22.3 3.1-24.5.4-1.4 1-6.4 1.5-11.3.7-7.6 1.2-9.1 3.5-11.2 1.4-1.3 2.6-3.3 2.6-4.3 0-1.1 1.5-3.6 3.4-5.7 3.4-3.7 3.5-3.7 7.3-2.4 2.1.7 4.5 1.9 5.4 2.6.8.7 2.1 1.3 2.8 1.3.6 0 2.3.7 3.7 1.6 1.8 1.2 2.4 2.4 2.2 4.3-.2 2.1.2 2.7 2 2.9 1.6.3 2.5 1.2 2.9 3.3.3 1.5 1.2 3.4 1.9 4 .8.6 1.4 3 1.4 5.4 0 2.4.6 4.8 1.4 5.4 1.6 1.3 1.4 5-1 17-.8 4-1.4 9.9-1.4 13.1 0 3.3-.4 6.1-.9 6.4-.4.3-1.1 5.2-1.5 10.8-.3 5.7-1 14.3-1.5 19.3-.5 4.9-1 14.9-1 22.1-.1 10.6.2 13.3 1.3 13.7.8.3 1.6 2.2 1.8 4.4.3 3.8.3 3.8 4.9 4.1 4.1.3 5-.1 6.8-2.4l2.1-2.6.9 2.5c1 2.7.3 13.7-.9 13.7-.4 0-1.2 1.2-1.9 2.6-1.1 2.5-1.4 2.6-6.6 2-6.3-.7-8.5-1.4-8.5-2.8 0-.5-2-3-4.5-5.5-3.8-3.7-4.5-5.1-4.5-8.3 0-2.3-.6-4.2-1.4-4.7-1.7-.9-2.2-6.2-1.2-11.8 1.2-7.1 1.5-19.9.5-24.8-.6-3.4-.5-5.5.3-7 .6-1.1 1.2-5.9 1.4-10.6.3-10.2 3.2-33.9 4.4-36.2.4-.8.6-2.7.3-4.1-.3-1.4 0-3.5.6-4.7 1-1.8.8-2.5-1.5-4.8-1.5-1.5-3-4.1-3.4-5.8-.5-2.6-1-3-3.3-2.7-1.5.2-2.7-.1-2.7-.7 0-2.1-2.9-1.1-3.2 1.1-.2 1.5-1.1 2.4-2.5 2.6-2.9.4-3.4 2.1-4 13.2-.2 5.2-.9 10.8-1.4 12.5-1.5 5.1-3 20.2-3.9 39-.5 9.9-1.3 22.5-1.9 27.9-.8 9.2-1.1 10.1-4 12.8-1.7 1.6-3.1 3.7-3.1 4.8 0 1.8-11.4 10.4-13.5 10.2-.5-.1-3.8-.3-7.2-.6-7.4-.5-8.7-1.1-7.9-3.9.3-1.2.1-2.6-.4-3.2-.5-.6-1.1-5.8-1.2-11.5-.2-7.2-.7-10.5-1.5-10.8-.9-.2-1.3 1.1-1.3 4.6 0 2.7-.7 6.7-1.6 8.7-1 2.5-1.6 7.3-1.7 14.2-.2 9.2 0 10.6 1.7 11.8 1.6 1.2 1.8 2.2 1.2 6.4-.5 4-.3 5.1 1 5.9 1.2.7 1.7 2.9 2 10.1.2 5.1.8 10.9 1.3 12.9.6 2 1.3 11.6 1.6 21.2.3 9.6 1 19.1 1.5 21 .5 1.9 1.2 6.5 1.5 10.2.3 3.8 1.3 8.4 2.1 10.3.9 2.1 1.4 6.9 1.4 12.7 0 10.8.6 13.8 2.8 13.8.9 0 2.7 1.1 4.1 2.4 1.5 1.3 3.5 2.6 4.6 2.7 2.4.4 6.5-2.1 6.5-3.8 0-.7 1-1.7 2.1-2.4 2.1-1.1 2.1-1.6 1.5-10-.4-5-1.1-10.2-1.7-11.7-1-2.6-1.6-6.5-3.9-24.7-.6-5-1.5-10.4-2.1-12.2-.6-1.8-1.4-13-1.8-25-.8-20.4-.7-22 1-24.9 1.1-1.7 1.9-4.1 1.9-5.2 0-2.7 1.7-3.7 3.6-2.1 1.2 1 1.6.9 2-.7.3-1 1.7-2.7 3-3.7 2-1.5 2.8-1.6 3.9-.7 1.2 1 1.8 1 2.9.1 1-.8 1.6-.9 2.1-.1.3.5 2.6 1 5 1 3.9 0 4.5.3 5.1 2.5.5 1.9 1.1 2.4 2.4 2 1.2-.4 2 0 2.4 1.3.4 1 1.8 2.4 3.1 3 1.8.8 2.5 2 2.5 3.8 0 1.5.7 3.5 1.5 4.4 1.1 1.3 1.5 6 1.9 23.2.2 11.9.8 22.2 1.2 23 1.2 1.9 5.3 30.2 5.3 37.1.1 5 .6 6.7 3.7 11.2 2.6 3.9 4.2 5.5 6.2 5.7 1.137.131 1.796.243 2.177.896-.07 3.653-.111 8.228-.059 13.46l-2.518.244c-2.4.2-3.7-.3-5.6-2.6-1.3-1.5-3-2.6-3.7-2.4-1.7.6-3.2-1.8-2.5-4 .3-1-.6-2.4-2.4-3.7-2.7-1.9-3-2.7-3.6-10.3-.4-4.6-1.2-10-1.7-12.2-.6-2.1-1.5-6.9-1.9-10.5-2.4-17.5-3.2-21.8-4.2-23.6-.8-1.2-1.3-7.8-1.4-17.5-.2-8.5-.3-16.7-.3-18.2-.1-1.5-.8-3.3-1.6-4-.9-.7-2.6-2.3-3.8-3.5-2.8-2.9-9.5-3.5-10.8-1-.6.9-1.6 1.7-2.4 1.7-.7 0-2 .6-2.7 1.3-2.8 2.8-.1 34 4.8 55.4.8 3.4 1.4 8 1.4 10.2 0 2.2.5 5.2 1.1 6.8.5 1.5 1.6 7.9 2.4 14.3 1.1 10 1.1 11.9-.2 14.4-.9 1.7-1.3 4.1-.9 5.8.5 2.4.2 3.1-1.4 3.5-1.3.3-2 1.4-2 2.9 0 1.7-.6 2.4-2 2.4-1.5 0-2.2.9-2.7 3-.6 3.3-3.2 5.3-7.3 5.7-1.4.1-4.1.5-6 .8-3.3.6-3.7.4-6-3.2-1.4-2.1-4.1-4.6-6.1-5.6-3-1.4-3.8-2.5-4.4-5.5-.3-2-1.2-5.5-2-7.7-1.2-3.6-2.4-13.9-3-25.5-.1-2.5-1.2-11.9-2.3-21-1.2-9.1-2.2-22-2.2-28.7 0-7.2-.6-14.4-1.4-17.7-.8-3-1.2-6.3-1-7.3.335-1.286-.079-3.416-.755-5.044 2.173-41.39 6.128-77.662 16.455-100.395 5.692-12.531 5.863-73.344 10.582-98.954Zm449.682 239.698c-.122 3.336-.283 6.034-.464 7.395-.6 4.7-.8 2.8-1.9-12-1-15.9-1.8-27.7-2.8-45.9-.1-3.5-.7-6.8-1.3-7.4-1.5-1.5-4.9.2-7.1 3.7-1.9 3.2-2 4.4-1.5 26.7.2 12.9.9 25.4 1.5 27.9 1.5 6.9 2.6 28.7 1.8 36-.3 3.6-1.3 7.8-2.2 9.5-.9 1.6-1.6 4-1.6 5.2 0 1.6-.6 2.3-2 2.3-1.5 0-2 .7-2 2.7 0 1.6-.4 3.3-.8 3.9-1.1 1.7-7 2.2-10.7 1-3.5-1.2-12.5-11.5-12.5-14.3 0-.9-.7-2.5-1.7-3.5-1.4-1.6-1.5-2.8-.5-11.2 1.5-11.7 1.6-42.8.2-47.7-.7-2.4-.7-4.6-.1-6.2.6-1.5.6-5.2 0-9.8-.6-4.1-1.1-9.2-1.1-11.4-.1-5-1.3-7.5-3.8-7.5-1.1 0-2.4-.8-2.9-1.8-1.6-3-7.4-2.2-10.4 1.4l-2.6 3.1.5 29.4c.2 16.2.6 33.4.8 38.4.6 11.1-.5 18.1-3 20-2.3 1.8-2.5 1.8-4.7.1-1.6-1.2-1.6-1.6-.1-5.1.8-2.1 1.3-4.8 1-6-.3-1.3 0-3.8.8-5.6 1.8-4.4 1.3-13.4-1-17.9-1.5-2.9-1.8-6.5-2-23.2-.1-10.9-.8-22.9-1.4-26.7-1-5.2-1-7.7-.1-10.1.6-1.8 1.1-4.8 1.1-6.6 0-1.9.5-3.4 1-3.4.6 0 2.6-1.6 4.4-3.5 3.2-3.3 3.8-3.5 9.8-3.5 5.9 0 6.8.3 10.5 3.5 2.3 1.9 4.6 3.5 5.2 3.5.6 0 1.1 1.3 1.1 2.8 0 1.6.9 3.7 2 4.7 1.7 1.5 2 3.1 2 9.5 0 4.2.5 8.1 1 8.6.7.7 1.3 15.3 1.6 39 .5 28.7.9 38.3 1.9 39.4.7.8 1.5 2.4 1.7 3.5.2 1.5 1.2 2.1 4 2.3 3 .3 3.9-.1 4.9-2 .7-1.3 1.7-2.6 2.3-3 2.1-1.4.9-50.1-2.1-89.1-.4-5.7-.3-7.7.7-7.7.9 0 1-1.4.5-5.1-.6-4.5-.5-5.1 1.3-5.6 2.2-.5 4.8-5.5 3.7-7.2-.3-.6-.4-1.5 0-2 .356-.623 8.62-.85 13.117-.4a279.36 279.36 0 0 1 1.872 10.509c.207 4.272.689 9.778 1.264 14.343-.017.397-.043.775-.077 1.133-.868 9.044-.08 30.949.888 50.92Zm-78.964 39.295c-.7 1 .2 3.9 1.7 5.9 1.5 1.9 3.6-.4 2.9-3.1-.8-3.2-3.4-4.8-4.6-2.8Zm-243.6-212.9c-3.7.4-4.6.9-4.8 2.7-.2 1.4-1 2.3-2.1 2.3-2 0-7.1 6.7-7.1 9.3 0 .9-1.2 2.7-2.6 4l-2.6 2.4-.1 56.1-.2 56.1-3.5 2.9c-4 3.4-7.3 3-7.8-.8-.2-1.3-1-3.3-1.7-4.4-1-1.5-1.4-6.3-1.4-17.6 0-8.5-.7-23.6-1.5-33.5-.8-9.9-1.7-21.4-2-25.5-1.2-19.6-3-34.6-4.3-36.1-.7-.8-1.3-2.2-1.3-3 0-.9-.7-2.4-1.5-3.5-.8-1-1.5-2.6-1.5-3.4 0-.8-1-2.6-2.1-3.9-1.7-2.1-2.2-2.2-3-1-.5.7-.7 2.3-.5 3.4.3 1.1 1 5.1 1.6 9 .6 3.8 1.8 8.9 2.6 11.3.7 2.3 1.4 7.1 1.4 10.5 0 3.4.5 8.1 1 10.5.6 2.3 1.5 9.3 2 15.5.6 6.2 1.5 15 2 19.7.6 4.7 1.3 16.6 1.6 26.5.9 27.8 1.7 35.9 4.3 39.1 1.1 1.4 2.1 3.7 2.1 5 0 2 .5 2.4 3.3 2.4 1.7 0 4.2.3 5.3.6 1.7.4 3.4-.6 7.1-4.3 4.4-4.4 5.1-5.6 5.6-10.3.4-2.9 1.3-6.1 2.2-7 1.3-1.4 1.7-5.3 2.1-20.1.2-10.1.8-29 1.3-41.9.9-23 .8-34.1-.3-35.9-.3-.5-.3-2.9 0-5.4.5-3.3 1.2-4.7 2.5-5 1-.3 2.3-1.7 2.9-3.1.8-2.2 1.6-2.6 4.9-2.6 3.3 0 4.4.5 6.3 3 1.2 1.6 2.8 3 3.5 3 2.8 0 3.5 4 2.7 16.4-.4 6.6-.6 12.5-.4 13.1.6 1.7.2 19.2-1.3 66.5-.4 14-.2 15 2.3 15 2.6 0 3 .9 3.1 8.1.2 6.1.3 6.5 4.5 10.5 2.4 2.2 4.4 4.6 4.4 5.2 0 4.3 19.2 4.4 20.5.1.3-.9 2.6-2.9 5-4.4 4.7-2.7 5.1-3.8 4.6-11.3-.2-2.8.2-3.4 2.7-4.3l3-1 .6-25.2c.3-13.9.8-36.5 1.1-50.2.3-13.8.8-26 1.1-27.3.3-1.5 1.2-2.2 2.8-2.2 1.5 0 2.7-.9 3.5-2.7.9-2 1.5-2.3 2.3-1.5.7.7 2.5 1.2 4 1.2 1.8 0 2.8.5 2.8 1.5 0 .8 1.2 2.4 2.8 3.5l2.7 2-.2 20.3c-.3 26.4-.8 42.5-1.7 62.8l-.9 16.6 2.4 1.7c1.5 1 2.4 2.7 2.5 4.6.1 1.7.2 4.5.3 6.4 0 1.9 1.1 4.4 2.4 5.8 1.2 1.4 3.4 3.9 5 5.6 1.9 2.3 3.7 3.2 6 3.4 1.7 0 4.8.2 6.7.2 4.1.2 7.6-1.7 8.3-4.4.3-1.1 1.2-2 2-2 3.1 0 7.6-5.8 8.3-10.8.4-2.9 1.6-5.7 3.1-7.3 2.8-3 2.5 2.3 3.8-66.2l.8-37.7 2.4-.6c1.3-.4 2.6-1.6 2.9-3 .6-2.4 2.8-3.2 3.9-1.4.4.6 1.2.7 2.2.1 3.4-1.9 12.3 6.8 10.9 10.6-.4.9-.9 16.5-1.1 34.7-.3 18.2-.7 40-1 48.3-.4 12.6-.3 15.3.9 15.3 2.6 0 4 3 3.8 8.6-.1 3.2.3 5.4.9 5.4.6 0 3.2 2 5.7 4.5 4.8 4.7 5.6 5.1 13.4 5.8 4.6.4 4.9.3 8.3-3.8 1.9-2.4 3.5-5 3.5-5.9 0-.9.6-1.6 1.4-1.6 2.7 0 4.6-3 4.6-7.5 0-3.2.7-5.1 2.6-7.5 2.6-3.1 2.7-3.5 3-19.5.2-8.9.8-17.5 1.4-19 .6-1.4 1.4-14.1 2-28.1 1-27.2 1.3-29.8 4-32.9.9-1.1 2-2.8 2.3-3.8 1-2.7 3.6-2 7.2 1.9 3.1 3.4 3.3 3.8 2.9 10.2-.2 3.7-.8 10.3-1.4 14.7-1.3 11.9-2.9 25.5-3.4 30-.3 2.2-1 7.1-1.7 11-1.4 7.9-.5 16.4 1.3 13.1.6-1 1-4.4 1-7.5-.1-3.1.5-7.9 1.3-10.6 2.1-7.6 4.5-20.2 4.5-23.6 0-4.1 2.8-19.1 4.6-24.9 1.8-5.7 1.8-13.1 0-15.5-1-1.4-1.1-2.5-.4-4.1 1-2 .5-3.4-3.1-9.4-.5-.8-1.2-2.3-1.5-3.3-.4-1.1-1.6-1.7-3.5-1.7-1.6 0-3.2-.4-3.6-.9-.9-1.5-6.6-4.1-7.6-3.5-.5.3-.9 1.2-.9 2s-1.1 1.9-2.5 2.4-2.5 1.7-2.5 2.8c0 1-1.1 2.4-2.5 3-2 .9-2.5 1.9-2.5 4.6 0 2.5-.5 3.5-2 3.9-1.9.5-2 1.6-2.3 27.3-.2 14.8-.6 28.9-1 31.4-.3 2.5-.8 11.2-1.1 19.5-.7 24.3-1.6 33.5-3.1 33.5-.8 0-2.1.7-2.9 1.6-1.6 1.6-6.8 3.4-9.7 3.4-1 0-2.2-1.3-2.8-3.1-.8-2.4-1.5-3-3.1-2.6-1.9.5-1.9 0-1.5-19.2.2-10.8.7-36.1 1.1-56.3l.6-36.8-2.6-1.1c-2.7-1.3-4.2-4.1-3.1-5.9.4-.6-.4-2.1-1.8-3.4-1.3-1.2-2.6-2.7-2.8-3.2-.2-.5-1.8-1.9-3.4-3-2.6-1.8-4.5-2.1-12.5-2.1-9.7 0-13 1.1-13 4.4 0 .7-1.1 1.8-2.5 2.3-2.5 1-4.2 4.8-3.1 7.5.3.8-.4 2.3-1.5 3.3-3.1 2.9-4 12.1-3.8 37.1.2 25.8-.5 55.7-1.6 67.9-.7 7.4-1 8.2-2.7 7.6-1.4-.4-2.1.2-2.9 2.6-.8 2.2-1.6 2.9-2.6 2.5-.9-.3-2.2 0-3 .6-2.2 1.9-6.3-.5-6.3-3.6 0-2-.5-2.5-2.6-2.5h-2.7l.7-6.8c.7-7.7 2-69.3 1.9-88.5-.1-11.6-.3-13.1-2.2-15.1-1.2-1.2-2.1-3.4-2.1-4.8 0-1.6-.9-3.2-2.5-4.2-1.4-.9-2.5-2.2-2.5-2.9 0-.7-.9-1.8-2-2.5s-2-1.8-2-2.6c0-.9-2.5-1.5-9-2-7.8-.6-9.4-.4-11.5 1.1-1.4 1-2.7 2.7-3.1 3.8-.3 1.2-1.5 2.5-2.7 3-1.4.6-2.3 2.1-2.5 3.8-.2 1.8-1.1 3.1-2.6 3.7-3 1.1-3.3 4.7-3.5 37.5-.1 13.7-.6 30.8-1.2 38-.5 7.1-.7 16.4-.4 20.5.7 10.1-.3 16.1-2.6 16.7-1 .3-1.9 1.5-2.1 2.6-.2 1.6-1.4 2.4-4.2 3.1-3.7.8-4.1.7-6.3-2-3.9-5-5-6.1-6.4-6.6-1-.3-1.3-7.1-1.1-34.9.1-18.9.5-41.8 1-50.9 1.1-19.3.4-28.7-2.1-30.1-.9-.6-1.7-2.2-1.7-3.7 0-3.4-1-4.9-3.5-5.3-1.4-.3-2.1-1.3-2.3-3.7-.3-2.7-.7-3.2-2.9-3.2s-2.4-.3-1.9-2.4c.3-1.4.1-2.8-.5-3.2-1.5-.9-9.2-1.1-14.9-.4Zm216.1 129.7c.1 6.2.6 5.6 1.1-1.5.2-2.3 0-4.2-.4-4.2-.5 0-.7 2.6-.7 5.7Zm25.6-101.7c-2.5 5.9-2.8 12.1-1.3 23.1.8 5.8 1.3 11.5 1 12.6-.3 1.1-.2 2.3.3 2.6.4.3.6 2.8.4 5.7-.3 4.4-.7 5.3-2.8 6.1-1.7.6-2.3 1.5-2.1 3.1.2 1.6-.3 2.4-1.7 2.6-1.1.3-3 .8-4.3 1.3-2.1.8-2.2 1-.8 4.3.8 1.9 1.2 4.4.9 5.5-.4 1.7-.1 2.1 2 2.1 6 0 12.7-5.5 14.8-11.9.6-2 1.5-4 2-4.5 1.4-1.6 1-14.8-.6-20.2-.8-2.7-1.5-7.7-1.5-11 0-3.4-.7-7.8-1.5-9.7-.8-2-1.5-5.3-1.6-7.4 0-2.1-.4-4.7-.9-5.8-.7-1.8-.9-1.6-2.3 1.5Zm48.987-78.668a1322.345 1322.345 0 0 1 3.85 20.135c-.336.25-.744.486-1.237.733-2.8 1.3-2.8 1.3-3.1 13.3-.2 6.6.1 14.9.7 18.5.6 3.6 1.8 12.1 2.7 19 1.9 15.1 2.9 21.6 4.5 29.4.9 4.6.9 7-.1 11.2-1 4.2-1 5.9-.1 8.2 1.7 4.1.8 17.7-1.4 21.9-1.5 3-2.1 3.3-6.1 3.3-2.5 0-5.5-.5-6.7-1.2-3.5-1.8-10.7-9.7-10.7-11.7 0-1-.9-2.6-2-3.6s-2-2.8-2-4.1c0-1.3-.5-3.4-1.1-4.8-.8-1.8-.9-3.3-.1-5.5.7-1.9.7-3.3.1-3.6-.5-.4-.9-4.1-.9-8.3 0-4.2-.7-9.5-1.5-11.7-.8-2.2-1.4-6.5-1.5-9.5 0-3-.5-7.3-1.1-9.5-.6-2.2-1.5-6.9-2-10.4-.4-3.5-1.3-6.8-1.7-7.5-.5-.6-1.2-4-1.6-7.6-.7-6.9-3.2-13-5.3-13-.7 0-1.3.9-1.3 1.9 0 3-1.6 3.3-2.8.5-1-2-1.5-2.3-3-1.5-1.5.8-2.3.4-4-1.9-1.2-1.6-2.2-3.6-2.2-4.4 0-.8-1.1-3.1-2.4-5.1-1.3-1.9-2.7-5.3-3.1-7.5-.4-2.1-1.3-4.4-2.1-5.1-1.8-1.5-1.8-4.9 0-4.9 1.2 0 7.6 6.4 12.1 12.3 1.2 1.6 3 2.6 4.6 2.7 1.4 0 3 .5 3.6 1.1.8.8 1.5.4 2.6-1.7l1.6-2.9 1.1 3c.6 1.7 2 3.5 3.3 4 1.4.6 2.4 2.3 2.9 4.5 2.5 12.4 3.6 16.9 4.3 18.1.5.7 1.2 3.1 1.6 5.4.5 2.2 1.2 6 1.8 8.5.6 2.5 1 7 1.1 10 0 3 .7 8.7 1.5 12.5.8 3.9 1.5 12.3 1.5 19.1 0 12.9 1.1 17.9 5.1 23.4 1.7 2.3 3.1 3 5.6 3 1.8 0 3.3-.3 3.4-.8 0-.4.3-1.6.6-2.7 1.7-6.4 1-25.3-1.6-42.9-.6-3.8-1.5-11-2.1-16-.6-5-2.1-17-3.4-26.6-2-14.9-2.1-17.7-1-19.1.8-.8 1.4-3.3 1.4-5.5s.6-4.9 1.4-6c.8-1.1 1.8-3.6 2.3-5.5.7-2.3 1.5-3.4 2.9-3.5.399-.022.76-.043 1.087-.068Zm-286.018-93.781h-.008c-1.082 0-3.55 1.027-5.861 2.449-2.7 1.7-5.3 3-5.9 3-2.2 0-9 8.1-9.5 11.3-.3 1.8-1 4.4-1.5 5.8-.6 1.4-1.1 20.9-1.2 44.9l-.2 42.5-2.7 1.3c-1.9.9-2.8 2.1-2.8 3.7 0 3.3-1.2 3.7-6.4 2.3-3.6-.9-4.8-1.8-5.5-4-.7-1.9-1.7-2.8-3.1-2.8-2 0-2-.4-1.9-17.3.2-13.6-.5-47.2-1-51-.2-1.8-2.8-.4-4.6 2.5-1 1.8-2.4 3.7-3.1 4.3-1.1 1-2.3 4.4-3.3 9.5-.7 3.6-.3 46.6.5 52.5.3 2.9 1.4 5.7 2.5 6.8 1.3 1.2 1.9 3.2 1.9 6.2 0 3.6.5 4.7 3.1 6.9 1.7 1.4 3.4 2.6 3.8 2.6.4 0 1.3 1.1 1.9 2.4 1 2.3 1.6 2.4 9.7 2.5l8.6.1 4.8-5c2.7-2.8 5.3-5 5.9-5 .6 0 1.2-1.7 1.4-3.8.2-3 .7-3.8 2.6-4 1.2-.2 2.3-.4 2.4-.5.1-.1.5-20.9.9-46.2.5-41 .9-51.1 2.1-51.9.2-.1 2.1-1 4.3-2 4.7-2 7-1.4 12.4 3.2 3.1 2.7 3.3 3.2 3.3 9.3-.1 3.5-.2 7.3-.2 8.4-.1 1.1-.1 15.4-.1 31.7.1 16.4.1 30.1 0 30.5-.1.5-.1 4.3 0 8.6.1 7.3.2 7.8 2.6 8.7 2.1.8 2.5 1.6 2.5 4.7 0 4.2.6 5.3 3.5 6.9 1.1.6 2.1 2 2.3 3.2.2 1.1 1.4 2.8 2.8 3.6 1.3.9 2.4 2.3 2.4 3.1 0 1.8 5 4.5 8.3 4.5 1.3 0 3.9.5 5.7 1.2 3 1 3.5.9 5.1-1 .9-1.2 2.4-2.2 3.3-2.2.9 0 1.8-1.1 2.2-2.5.3-1.3 1.4-2.7 2.4-3 1-.3 2.1-1.9 2.5-3.4.3-1.6 1.7-3.8 3-5 1.4-1.1 2.5-2.9 2.5-3.8 0-1 .3-9.7.7-19.3.4-9.6.7-25.4.7-35 .1-9.6.2-23.5.4-30.8l.2-13.2 2.6-1c1.4-.6 2.8-1.9 3.1-3 .8-3.1 7-2.2 11.7 1.6l3.7 3.1-.1 29.9c-.1 16.5-.3 32.1-.5 34.9-.5 9.7-1.6 25.1-2.1 31-.6 5.6-.4 6.2 2.5 9.9 1.7 2.1 3.1 4.8 3.1 5.9 0 1.1.7 2.7 1.5 3.6 4.8 5.3 5.5 6.2 5.5 7.1 0 1.7 5 3.2 11.4 3.5 5.5.3 6.2.1 8.7-2.6 1.5-1.6 3.2-2.9 3.8-2.9.6 0 1.3-1.1 1.7-2.4.3-1.4 1.2-2.7 1.8-2.9.7-.3 1.6-1.8 1.9-3.4.3-1.5 1.6-4.4 3-6.4 1.5-2.3 2.6-5.8 3.1-10 .8-6.2 1-9.3 2-31.9 1-20.1 1.5-27.1 2.2-28.1.6-1.1 1.6-6.9 3.4-20.8 1-7.6 2.2-10.1 4.6-10.1.7 0 1.8-.8 2.3-1.8 1.4-2.7 7.4-1.7 11.1 1.8 3.9 3.6 3.8 6.5-.2 29.5-.5 3.3-1.4 17.2-1.9 31-.5 13.7-1.2 27.6-1.5 30.8-.5 5.3-.4 5.9 1.4 6.4 2.1.5 3.2 3 3.2 7.1 0 1.3.9 2.7 2.3 3.3 1.2.6 3.8 3 5.6 5.4 1.9 2.4 4.6 4.7 6 5.1 7.2 2.1 15 .6 16.4-3.1.4-.8 1.3-1.5 2-1.5.797 0 2.189-.893 3.188-1.987l.024-.026c.999-1.094 2.391-1.987 3.188-1.987.9 0 1.3-1.3 1.3-3.9 0-3 .5-4.2 2.4-5.4 2.4-1.6 2.4-1.9 2.1-13.4-.1-6.5.1-16.5.6-22.3 2-22.5 2.1-24.9.9-28.5-1.2-3.6-7.5-13.8-8.9-14.3-1-.3-2.1 7.2-2.1 13.8 0 2.5-.4 7.1-1 10.1-.5 3-1.2 8.5-1.5 12.4-.3 3.8-.8 9.7-1.1 13-.3 3.3-.6 9.5-.7 13.9-.3 7.6-.4 7.9-3.9 11.1-3.4 3.2-3.8 3.3-7.2 2.3-2.4-.8-3.6-1.7-3.6-2.9 0-1-1.1-2.6-2.4-3.4-3.1-2-3.5-5.9-2.5-20 .5-6.1 1.4-18.9 1.9-28.5 1.2-18.4 2.1-27.7 4.1-40 1.1-7.3 1.1-7.4-1.4-9.5-1.3-1.1-2.8-3-3.1-4.2-.4-1.1-1.3-2.4-2.1-2.7-.8-.3-1.5-1.2-1.5-2 0-.9-1-2.1-2.2-2.7-1.3-.7-2.9-2.1-3.6-3.1-.7-1-1.8-1.5-2.4-1.1-.7.3-4.4.6-8.4.5-6.4 0-7.4.2-8.7 2.1-.8 1.2-3.5 3.2-6.1 4.5-2.8 1.4-4.6 3-4.6 4.1 0 2.2-1.9 4.1-4.2 4.1-1 0-2.1.6-2.3 1.2-.5 1.5-1.2 11.5-2.1 29.3-.3 6.6-.9 13.6-1.4 15.5-1.1 4.3-1.9 14.6-2.4 31-.5 13.3-2.2 23-4.3 24.3-.7.4-2 2.1-2.8 3.7-1.3 2.6-2.1 3-5.6 3-3.6 0-4-.3-4.5-3-.4-1.7-1.5-3.2-2.6-3.6-1.8-.5-1.9-1.3-1.4-10.7.3-5.6.8-17.8 1.1-27.1.3-9.3.8-17.2 1-17.6.3-.4.7-7.4 1-15.6.2-8.2.7-18.8 1.1-23.5.5-6.9.3-8.9-.9-10.1-.8-.8-1.9-3.5-2.4-5.9-.7-3.4-1.3-4.5-3-4.7-1.1-.2-2.3-1.2-2.6-2.2-.3-1.1-1.6-2.4-2.9-2.9-1.3-.5-3-1.6-3.8-2.5-.9-1.2-2.2-1.5-4.1-1.1-1.5.4-5 0-7.7-.8-4.9-1.5-5.1-1.5-8.6 1-1.9 1.4-3.8 3.4-4.1 4.4-.3 1-1.6 1.9-2.8 2.1-1.3.2-2.3 1.1-2.5 2.3-.8 5.3-1.3 6.5-3.1 6.5-2.8 0-3.1 4.6-3.1 50-.1 43.8-.5 52-2.6 52-.7 0-2.3 1.1-3.6 2.4l-2.3 2.5-4.2-2c-2.4-1.1-4.3-2.6-4.3-3.4 0-.8-.9-2.4-2.1-3.6-1.9-1.9-2.1-3.6-2.7-23.2-.4-11.7-.6-25.5-.6-30.7.4-38.9.4-40-1.2-43.3-4.1-8.5-4.9-9.7-6-9.7-.8 0-1.8-.9-2.4-2-2.4-4.5-5.5-6.6-11.5-7.7-3.3-.6-6.7-1.4-7.5-1.7a.955.955 0 0 0-.331-.049Zm252.331-8.351-6.169-7.545a313.137 313.137 0 0 1 3.721 4.794 218.915 218.915 0 0 1 3.138 4.227l.005.007c.437.914.883 1.802 1.205 2.317.8 1.4 2.4 5 5.8 13 .8 1.9 2.1 4.8 2.8 6.5.8 1.6 1.9 4.8 2.6 7 .7 2.2 1.8 4.7 2.5 5.5 1.784 4.358 4.541 9.015 4.298 7.757-.613-3.174-9.093-27.683-12.593-30.883-.36-1.992-3.038-6.245-6.61-11.191l-.026-.053c-.167-.351-.332-.703-.495-1.055l-.146-.314-.028-.061-.028-.061a4.189 4.189 0 0 0-.291-.529 11.864 11.864 0 0 0-.419-.63 22.44 22.44 0 0 0-.524-.712 51.329 51.329 0 0 0-1.311-1.62 81.665 81.665 0 0 0-1.575-1.805 119.18 119.18 0 0 0-2.017-2.187l-.024-.025c-6.9-8.717-13.987-16.822-14.654-17.027-1.3-.4-4.857-5.204-5.157-5.504-1.1-1.6-10-6.1-11.8-6.1-1.8 0-1.9.5-1.5 4 .4 3.1.2 4.1-1.1 4.6-2 .8-2.1 3-.1 3.8.8.3 1.5 1.4 1.5 2.4 0 1.1.7 2.5 1.5 3.2 1.1.9 1.3 1.6.5 2.4-1.6 1.6-1.2 2.6 1.5 3.6 1.7.7 2.5 1.7 2.5 3.4 0 3.7 1 5.6 3 5.6 1 0 2.3.7 3 1.5.7.8 1.8 1.5 2.4 1.5 1.9 0 12.2 9.7 17.1 16.1 6.5 8.3 13.4 23.4 14.6 31.4.5 3.6 1.4 8.4 2 10.8.6 2.3 1.3 6.2 1.4 8.7.2 2.5.6 6.3 1 8.5.5 3.2.3 4.4-.9 5.4-.9.7-1.6 1.9-1.6 2.6 0 1.8-7.3 7.2-7.7 5.8-.8-2.2-10.3-13.8-14.1-17.1-6-5.3-25.2-19.2-30-21.8-2.5-1.3-5.3-2.4-6.3-2.4-1.1 0-1.9-.5-1.9-1 0-.6-.5-1-1.1-1-.6 0 0 1.5 1.5 3.4 1.4 1.9 2.6 4.2 2.6 5 0 2.1 17.3 19.2 27.1 26.8 1.5 1.2 10.3 11.2 18.8 21.5l3.4 4.1 3.4-1.9c1.8-1 4.308-1.77 5.4-1.9 5.222-.623 10.62-2.976 11.741-11.106 1.663-12.055-3.009-33.369-5.041-34.694-1.658-1.082-3.7-10.5-4.5-17.7-.3-2.8-1-5.7-1.7-6.5-.6-.8-1.8-3.1-2.7-5-5.2-11.5-11.5-24-13.8-27-3-4.2-12.5-13.6-14.2-14.2-1.8-.6-.1-4.8 1.9-4.8s16.7 14.8 18.2 18.2ZM117.273 49.913c.027.636.207 1.24.524 1.944 1 2.1.8 3.2-.8 6.3-1 2.1-1.9 4.6-1.9 5.6s-.6 1.8-1.3 1.8c-.8 0-2.2.9-3.1 1.9-1 1.1-3.2 2.3-5 2.6-1.7.4-4.5 1.3-6.1 2-10 4.5-12.4 5.7-16.4 7.9-9.1 5.2-16.1 13.9-21.3 26.6-4.1 10-5.4 14.1-6.3 19.5-.4 2.2-1.5 6.5-2.5 9.5-3 9.4-4.3 16.3-4.2 22.3.2 6.6.6 7.7 3 7.7 2 0 7.1-5.7 7.7-8.5 3.2-15.7 4.7-22.5 5.6-25 .6-1.7 1.4-4.6 1.8-6.5.5-1.9 2.9-7.8 5.4-13 5.2-10.8 13.9-20.5 20.7-23.4 9.8-4 11.9-4.6 19.3-5.1 9.3-.7 14.4.7 29.6 8.4 2.5 1.3 2.4 3-.3 4.1-1.4.5-2.6 1.3-2.6 1.7 0 .5-1.6 1.9-3.6 3.2-1.9 1.4-4.2 3.7-5 5.3-1.5 3-3.4 3.7-3.4 1.4 0-.7-.7-1.9-1.5-2.6-.8-.7-1.5-2.1-1.5-3.1 0-1.1-.7-1.9-1.5-1.9s-2-.9-2.7-2c-1-1.5-2.4-2-5.5-2-2.3 0-4.4.4-4.7.9-.3.5-1.8 1.2-3.3 1.6-1.6.3-3.5 1.2-4.3 1.9-.8.8-2.8 1.6-4.4 2-3.5.8-13.8 11.1-16.4 16.3-2.7 5.3-4.9 12.9-5.6 19-.4 2.8-1.3 6.4-2.1 8-.8 1.5-1.2 3.6-.9 4.5.2.9-.2 3.2-1 5.2-.8 1.9-1.7 5.7-2.1 8.3-.7 5.2-3.3 12.3-4.6 12.3-.4 0-1 .9-1.4 2-.6 1.8-7.1 8.7-9.8 10.1-.6.4-4.4-.8-8.3-2.7l-7-3.5.1-10.2c.142-5.614.082-8.097-.252-8.31 1.713-5.873 3.118-13.478 4.719-21.754.689-1.56 1.235-3.43 1.533-5.336.4-2.9 1.3-5.7 2-6.3.7-.6 1.7-3 2-5.3.4-2.3 1.1-4.7 1.6-5.3.812-1.015 1.34-6.018 1.52-11.995 4.067-11.038 9.711-20.75 18.159-26.548 27.325-18.754 40.097-22.655 47.183-31.235.071-.086.143-.175.214-.266Zm-2.176 68.644c-.8.5-2.4 1-3.6 1-2.2 0-13.9 7.7-19.7 12.9-2 1.9-3.8 4.6-4.1 6.4-.7 3.7.8 9.7 2.6 10.8.8.5 1.1 4.2 1 12.8-.3 11.6.2 13.7 2.6 10.8 1.7-2 1.7-13.7 0-19.5-1.7-6-1.6-6.3 4.9-10.3 4.2-2.6 6.2-4.7 6.3-6.7 0-.7 1.7-3 3.8-5.1 9.3-9.5 12.1-12.8 11.5-13.4-.9-1-3.6-.8-5.3.3Zm252-10c-.7.5-2.8.6-4.7.3-1.9-.3-3.9 0-4.7.6-.8.7-2 1.1-2.8 1-3.3-.4-7.6.2-9.2 1.4-1.7 1.3-1.6 1.5 1.2 4.3 1.6 1.7 3.1 3.9 3.4 5 .2 1.1 1.3 2 2.6 2.2 1.9.3 2.2 1 2.2 4.4 0 4.9 2.3 4.8 3-.3.5-3.1.8-3.4 5.3-4.2 5.2-.8 7.7.2 15.8 6.5 2 1.5 4.2 2.8 4.8 2.8.6 0 1.1.4 1.1.9 0 .8 10.4 8.1 15.5 10.9 1.3.7 5.7 4.8 9.8 9.2 6.1 6.5 7.7 8.8 8.2 12.2.6 3.5.9 3.9 1.6 2.3 1.3-3.4 1-13.4-.6-16.5-3.5-6.7-8.5-13-17-21.5-8.4-8.5-16.5-15.5-17.9-15.5-.3 0-2.5-1.3-4.8-2.9-4.5-3-10.5-4.5-12.8-3.1Z"/>
</svg>
