<svg xmlns="http://www.w3.org/2000/svg" xml:space="preserve" fill-rule="evenodd" stroke-linejoin="round" stroke-miterlimit="2" clip-rule="evenodd" viewBox="0 0 616 207">
  <path fill="none" d="M0 0h615.671v206.406H0z"/>
  <path fill="url(#imgA)" d="M310.03 204.935h-4.39l-8.478-5.685h21.347l-8.48 5.685Zm16.958-11.371h-38.305l-8.48-5.685h55.264l-8.48 5.685Zm16.958-11.37h-72.221l-8.48-5.685h89.18l-8.48 5.685Zm16.958-11.37H254.767l-8.48-5.686h123.096l-8.48 5.686Zm16.958-11.371H237.809l-8.48-5.685h157.012l-8.48 5.685Zm16.958-11.37H220.85l-8.478-5.685h190.927l-8.48 5.685Zm16.958-11.371H203.893l-8.48-5.685h224.844l-8.48 5.685Zm16.958-11.37h-241.8l-8.48-5.685h258.758l-8.478 5.685Zm16.957-11.37H169.978l-8.48-5.686h292.674l-8.48 5.686Zm16.958-11.371H153.02l-8.48-5.685h326.59l-8.48 5.685Zm25.437-17.055-8.48 5.685H136.063l-8.48-5.685h360.506Zm-140.152 0h-9.855L127.583 35.458v-2.345l220.353 52.433Zm19.71 0h-9.854l-230.21-54.778v-2.345l240.065 57.123Zm19.71 0h-9.854l-249.92-59.468v-2.345l259.775 61.813Zm19.71 0h-9.854l-269.63-64.158v-2.345l279.485 66.503Zm19.712 0h-9.855l-289.34-68.848v-2.345l299.195 71.193Zm19.71 0h-9.855l-309.05-73.538V9.663l318.905 75.883Zm19.71 0h-9.855L127.583 7.317V4.972l338.615 80.574Zm21.89 0h-12.034L127.583 2.627V0l360.505 85.546Zm-360.505-.919 3.859.919h-3.86v-.919Zm200.643.919h-9.855L127.583 40.148v-2.345l200.643 47.743Zm-19.71 0h-9.855L127.583 44.838v-2.345l180.933 43.053Zm-19.71 0h-9.856L127.583 49.528v-2.345l161.223 38.363Zm-19.711 0h-9.855L127.583 54.218v-2.345l141.512 33.673Zm-19.391 0h-9.856L127.583 58.832v-2.345l122.12 29.059Zm-19.711 0h-9.855l-92.555-22.024v-2.345l102.41 24.369Zm-19.71 0h-9.855l-72.845-17.334v-2.345l82.7 19.679Zm-19.71 0h-9.856l-53.134-12.644v-2.345l62.99 14.989Zm-19.711 0h-9.855l-33.424-7.954v-2.345l43.279 10.299Zm-19.71 0h-9.855l-13.714-3.264v-2.345l23.569 5.609Zm345.814-5.953h-8.878v5.685h.399l8.479-5.685Zm16.958-11.37h-25.836v5.685h17.357l8.479-5.685Zm16.958-11.371h-42.794v5.685h34.315l8.479-5.685Zm16.957-11.37h-59.751v5.685h51.272l8.479-5.685Zm16.958-11.371h-76.71v5.686h68.23l8.48-5.686Zm16.958-11.37h-93.667v5.685h85.188l8.479-5.685Zm16.958-11.37H488.088v5.685h102.146l8.479-5.685ZM615.67 0H488.088v5.685h119.104L615.67 0Z"/>
  <path fill="url(#imgB)" d="m127.583 2.627 348.47 82.919h-9.855L127.583 4.972v2.345l328.76 78.229h-9.855L127.583 9.663v2.345l309.05 73.538h-9.855L127.583 14.353v2.345l289.34 68.848h-9.856L127.583 19.043v2.345l269.629 64.158h-9.855L127.583 23.733v2.345l249.919 59.468h-9.855L127.583 28.423v2.345l230.209 54.778h-9.856L127.583 33.113v2.345L338.08 85.546h-9.855L127.583 37.803v2.345L318.37 85.546h-9.855L127.583 42.493v2.345L298.66 85.546h-9.855L127.583 47.183v2.345L278.95 85.546h-9.855L127.583 51.873v2.345L259.24 85.546h-9.855L127.583 56.563v2.269l112.265 26.714h-9.855l-102.41-24.369v2.345l92.555 22.024h-9.855l-82.7-19.679v2.345l72.845 17.334h-9.855l-62.99-14.989v2.345l53.134 12.644h-9.855l-43.28-10.299v2.345l33.425 7.954h-9.855l-23.57-5.609v2.345l13.715 3.264h-9.855l-3.86-.919v.919l-15.001-10.059V0h15.002v2.627Zm345.295 79.309-15.01-3.561L457.739 0h15.002l.138 81.936Zm-30.017-7.122-15.008-3.562L427.733 0h15.003l.125 74.814Zm-30.016-7.123-15.008-3.561L397.729 0h15.002l.114 67.691ZM97.579 65.428 82.577 55.369V0h15.002v65.428Zm285.25-4.86-15.008-3.561L367.725 0h15.002l.102 60.568Zm-30.016-7.122-15.008-3.562L337.72 0h15.002l.09 53.446Zm-30.017-7.123-15.008-3.561L307.716 0h15.003l.077 46.323ZM67.574 45.309 52.572 35.25V0h15.002v45.309ZM292.78 39.2l-15.008-3.561L277.712 0h15.002l.066 39.2Zm-30.016-7.122-15.008-3.562L247.708 0h15.002l.054 32.078ZM37.57 25.191 22.568 15.132V0H37.57v25.191Zm195.178-.236-15.008-3.561L217.704 0h15.002l.042 24.955Zm-30.016-7.123-15.01-3.561L187.7 0h15.003l.03 17.832Zm-30.017-7.122-15.008-3.561L157.695 0h15.002l.018 10.71ZM7.565 0v5.073L0 0h7.566ZM142.7 3.587 127.69.026V0h15.002l.006 3.587Z"/>
  <path fill="url(#imgC)" d="m307.836 206.407-2.195-1.472h4.389l-2.194 1.472Zm10.673-7.157h-21.347l-8.48-5.686h38.306l-8.48 5.686Zm16.958-11.371h-55.263l-8.48-5.685h72.222l-8.48 5.685Zm16.958-11.37h-89.18l-8.478-5.685h106.137l-8.48 5.685Zm16.958-11.371H246.288l-8.48-5.685h140.054l-8.48 5.685Zm16.958-11.37H229.33l-8.48-5.685h173.97l-8.48 5.685Zm16.958-11.37H212.372l-8.48-5.686h207.886l-8.48 5.686Zm16.958-11.371H195.414l-8.478-5.685h241.8l-8.48 5.685Zm16.957-11.37H178.457l-8.48-5.685h275.716l-8.48 5.685Zm16.958-11.371H161.499l-8.48-5.685h309.632l-8.48 5.685Zm16.958-11.37H144.54l-8.478-5.685h343.547l-8.48 5.685Zm16.958-11.37v-.268h.399l-.4.268Zm0 0-15.21-3.61L472.74 0h15.348v85.546Zm17.357-11.638h-17.357v5.685h8.878l8.479-5.685Zm-47.576 4.467-15.008-3.561L442.736 0h15.002l.13 78.375ZM112.58 75.487 97.579 65.428V0h15.002v75.487Zm315.272-4.235-15.008-3.561L412.73 0h15.002l.12 71.252Zm94.55-8.715h-34.315v5.686h25.836l8.479-5.686ZM397.837 64.13l-15.008-3.562L382.727 0h15.002l.108 64.13Zm-30.016-7.123-15.008-3.561L352.723 0h15.002l.096 57.007Zm171.539-5.84h-51.272v5.685h42.794l8.478-5.685ZM82.577 55.369l-15.003-10.06V0h15.003v55.369Zm255.228-5.485-15.01-3.561L322.72 0h15.002l.084 49.884Zm218.513-10.087h-68.23v5.685h59.75l8.48-5.685Zm-248.53 2.965L292.78 39.2 292.714 0h15.002l.072 42.762Zm-30.016-7.123-15.008-3.561L262.71 0h15.002l.06 35.639Zm-225.2-.389L37.57 25.191V0h15.002v35.25Zm520.704-6.824h-85.188v5.685h76.709l8.479-5.685Zm-325.52.09-15.008-3.561L232.706 0h15.002l.048 28.516Zm342.478-11.46H488.088v5.685h93.667l8.479-5.685ZM217.74 21.394l-15.008-3.562L202.702 0h15.002l.036 21.394ZM22.568 15.132 7.566 5.073V0h15.002v15.132Zm165.155-.861-15.008-3.561L172.697 0h15.002l.024 14.271Zm419.469-8.586H488.088v5.686h110.625l8.479-5.686ZM157.707 7.149l-15.008-3.562L142.693 0h15.002l.012 7.149Z"/>
</svg>
