<svg xmlns="http://www.w3.org/2000/svg"
    xml:space="preserve"
    width="100%"
    height="100%"
    fill-rule="evenodd"
    stroke-linejoin="round"
    stroke-miterlimit="2"
    clip-rule="evenodd"
    version="1.1"
    viewBox="0 0 1024 768">
    <path fill="url(#imgMC)"
        d="M0 0h1024v768H0z" />
    <path fill="url(#imgCC1)"
        d="M225.85 211.364v196.655h-12.944V211.364h12.944Zm103.771-.465v196.656h-12.945V210.899h12.945Zm-51.885.465v196.655h-12.945V211.364h12.945Zm103.77-.465v196.656h-12.945V210.899h12.945Zm-129.713.465v196.655h-12.945V211.364h12.945Zm103.77-.465v196.656h-12.945V210.899h12.946Zm-51.885.465v196.655h-12.945V211.364h12.945Zm103.77-.465v196.656h-12.944V210.899h12.945Zm26.075.465v196.655h-12.945V211.364h12.945Zm103.771-.465v196.656H524.35V210.899h12.945Zm-51.886.465v196.655h-12.944V211.364h12.944Zm103.771-.465v196.656h-12.945V210.899h12.945Zm-129.713.465v196.655H446.52V211.364h12.945Zm103.77-.465v196.656h-12.945V210.899h12.946Zm-51.885.465v196.655h-12.945V211.364h12.945Zm103.77-.465v196.656h-12.945V210.899h12.946Zm25.917.233v196.655h-12.945V211.132h12.945Zm103.77-.465v196.655h-12.944V210.667h12.945Zm-51.885.465v196.655H679.98V211.132h12.944Zm103.773-.465v196.655h-12.944V210.667h12.944Zm-129.715.465v196.655h-12.946V211.132h12.946Zm103.768-.465v196.655h-12.943V210.667h12.943Zm-51.883.465v196.655H705.92V211.132h12.945Zm103.77-.465v196.655h-12.944V210.667h12.944Z" />
    <path fill="url(#imgCC2)"
        d="M238.821 233.373V385.08h-12.944V233.373h12.944Zm103.771 0V385.08h-12.945V233.373h12.945Zm-51.885 0V385.08h-12.945V233.373h12.945Zm103.77 0V385.08h-12.945V233.373h12.945Zm-129.713 0V385.08h-12.945V233.373h12.945Zm103.77 0V385.08H355.59V233.373h12.946Zm-51.885 0V385.08h-12.945V233.373h12.945Zm103.77 0V385.08h-12.944V233.373h12.945Zm26.075 0V385.08H433.55V233.373h12.945Zm103.771 0V385.08H537.32V233.373h12.945Zm-51.886 0V385.08h-12.944V233.373h12.944Zm103.771 0V385.08h-12.945V233.373h12.945Zm-129.713 0V385.08h-12.945V233.373h12.945Zm103.77 0V385.08h-12.945V233.373h12.946Zm-51.885 0V385.08h-12.945V233.373h12.945Zm103.77 0V385.08h-12.945V233.373h12.946Zm25.917-.232v151.707h-12.945V233.141h12.945Zm103.77 0v151.707h-12.944V233.141h12.945Zm-51.885 0v151.707H692.95V233.141h12.944Zm103.773 0v151.707h-12.944V233.141h12.944Zm-129.715 0v151.707h-12.946V233.141h12.946Zm103.768 0v151.707h-12.943V233.141h12.943Zm-51.883 0v151.707h-12.945V233.141h12.945Zm103.77 0v151.707h-12.944V233.141h12.944Z" />
</svg>
