<svg xmlns="http://www.w3.org/2000/svg" xml:space="preserve" viewBox="0 0 100 100">
  <path d="M89.244 30.483c-4.488-20.265-24.066-20.468-24.33-20.468h-.001a1.003 1.003 0 0 0-.997 1.003c.028 8.287-5.821 14.555-13.6 14.582-8.016-.028-14.274-6.433-14.247-14.582a1 1 0 0 0-.996-1.003c-.148 0-19.826.167-24.327 20.453-.512 2.303-.76 4.765-.76 7.526v46.173a1 1 0 0 0 1 1h13.809V89a1 1 0 0 0 1 1h48.41a1 1 0 0 0 1-1v-3.833h13.846a1 1 0 0 0 1-1.001l-.048-46.204c-.003-2.74-.252-5.186-.76-7.479zM73.205 70.725h-46.41V49.27h46.41v21.455zm0 17.275h-46.41V72.725h46.41V88zm2-4.833v-46a1 1 0 1 0-2 0V47.27h-46.41V37.167a1 1 0 1 0-2 0v46h-12.81V37.994c0-2.613.234-4.933.713-7.093 3.638-16.399 17.545-18.561 21.398-18.844.486 8.767 7.422 15.512 16.22 15.543 4.385-.015 8.388-1.757 11.27-4.906 2.587-2.826 4.096-6.571 4.305-10.636 3.858.283 17.766 2.448 21.4 18.857.476 2.15.709 4.456.712 7.049l.047 45.203H75.205z"/>
  <text y="115" fill="#000000" font-family="'Helvetica Neue', Helvetica, Arial-Unicode, Arial, Sans-serif" font-size="5" font-weight="bold">Created by Made by Made</text>
  <text y="120" fill="#000000" font-family="'Helvetica Neue', Helvetica, Arial-Unicode, Arial, Sans-serif" font-size="5" font-weight="bold">from the Noun Project</text>
</svg>
