<svg xmlns="http://www.w3.org/2000/svg" version="1.1" viewBox="0 0 100 100">
 <path d="m25.98 45.18c-1.5273 0.49219-2.6406 1.9102-2.6406 3.5977 0 1.1055 0.48438 2.0977 1.2461 2.7891-0.75781 0.69531-1.2461 1.6836-1.2461 2.7891 0 1.0859 0.46484 2.0625 1.1992 2.7539-0.73437 0.69141-1.1992 1.668-1.1992 2.7539 0 1.6875 1.1133 3.1055 2.6406 3.5977-3.1602 1.9375-5.4609 5.2031-6.0273 9.0625-0.625 4.2617-0.43359 8.582 0.5625 12.844 0.22266 0.94922 0.55078 1.8555 0.97266 2.707 0.003907 0.003906 0.003907 0.007812 0.007813 0.011719 1.7383 3.5195 5.0508 6.0898 9.0195 6.8281 1.4062 0.26172 2.8086 0.46094 4.2109 0.63281 0.03125 0.003906 0.054688 0.023437 0.085938 0.027344 0.035156 0.003906 0.074219 0.003906 0.10938 0.003906 0.011719 0 0.019531-0.003906 0.03125-0.003906 2.6289 0.31641 5.2539 0.48828 7.8555 0.48828 3.8867 0 7.7344-0.35156 11.516-1.0508 5.0078-0.92969 8.9883-4.6875 10.145-9.5781 0.57812-2.457 0.88281-4.9336 0.92578-7.4062 0.03125-1.8398-0.078125-3.6797-0.34375-5.5039-0.55078-3.7812-2.7734-6.9883-5.8359-8.9375 1.7422-0.34375 3.0625-1.8789 3.0625-3.7227 0-1.0859-0.46484-2.0586-1.1992-2.7539 0.70703-0.66797 1.1562-1.6016 1.1875-2.6406 4.3281-1.3906 10.172-2.2539 14.855 0.73047 3.6016 2.3008 6.4375 8.2227 8.9414 13.449 2.8984 6.0508 5.6562 11.809 9.5312 11.809 0.56641 0 1.1602-0.125 1.7773-0.38672 0.52734-0.22656 0.77344-0.83594 0.55078-1.3672-0.22656-0.52734-0.83984-0.77734-1.3672-0.55078-3.0156 1.2852-5.7305-4.3945-8.6133-10.406-2.7539-5.7461-5.5977-11.684-9.6992-14.309-5.3164-3.3867-11.746-2.5039-16.496-0.99609-0.19531-0.32812-0.42969-0.625-0.71094-0.88281 0.75781-0.69531 1.2461-1.6836 1.2461-2.7891 0-1.8438-1.3203-3.3789-3.0625-3.7227 3.0625-1.9492 5.2852-5.1602 5.8359-8.9375 0.625-4.2617 0.43359-8.582-0.5625-12.844-0.22266-0.94922-0.55078-1.8555-0.97266-2.707-0.003906-0.003906-0.007812-0.011719-0.007812-0.015625-1.7422-3.5195-5.0508-6.0898-9.0195-6.8281-1.4062-0.26172-2.8086-0.46094-4.2109-0.63672-0.027344-0.003906-0.050781-0.023437-0.082031-0.027344-0.027344-0.003906-0.050781 0.007813-0.074219 0.007813-6.582-0.79297-13.102-0.62109-19.438 0.55469-5.0078 0.92969-8.9883 4.6875-10.145 9.5781-1.0117 4.2852-1.207 8.6289-0.57812 12.914 0.55469 3.8672 2.8555 7.1367 6.0156 9.0742zm1.3203-13.57c3.7305 4.3203 7.7812 7.9492 12.055 10.816-0.62109 0.89453-1.2617 1.7539-1.9258 2.5508h-0.53906c-5.5547-3.625-10.664-8.5195-15.191-14.555 0.042969-1.793 0.23047-3.5859 0.57422-5.375 1.5625 2.2969 3.2422 4.5 5.0273 6.5625zm-5.2852 4.2031c-0.089844-0.62109-0.15625-1.2422-0.21094-1.8633 3.5156 4.3281 7.3477 8.0156 11.441 11.031h-0.625c-5.2812 0-9.8398-3.9414-10.605-9.168zm0 37.012c0.625-4.2773 3.793-7.6875 7.8125-8.7891-4.1094 6.5273-6.3789 13.895-7.6016 19.348-0.64844-3.5117-0.72266-7.0586-0.21094-10.559zm1.5273 14.652c0.95703-5.5625 3.3711-15.641 9.0352-23.816 0.015625 0 0.027344-0.003906 0.042969-0.003906h4.832c-6.8906 9.8867-9.2031 22.457-9.9141 27.938-1.6836-0.97656-3.0703-2.3945-3.9961-4.1172zm5.9805 5.0312c0.60547-5.1055 2.8906-18.789 10.5-28.848h4.8867c-0.54688 0.72266-1.082 1.4727-1.5977 2.2539-0.003906 0.003907-0.003906 0.007813-0.007812 0.011719-0.99219 1.5078-1.9414 3.168-2.8203 4.9375-1.5156 3.043-2.832 6.4336-3.9102 10.074-0.46094 1.5625-0.87891 3.168-1.2383 4.7734-0.35156 1.5469-0.65234 3.0898-0.89453 4.5859-0.17188 1.0352-0.30859 2.0625-0.43359 3.0781-1.0352-0.14453-2.0742-0.30859-3.1133-0.5-0.46875-0.09375-0.92188-0.22266-1.3711-0.36719zm33.207-8.9219c-1.5625-2.293-3.2461-4.4961-5.0273-6.5625-3.7305-4.3203-7.7812-7.9492-12.055-10.816 0.62109-0.89453 1.2617-1.7539 1.9258-2.5508h0.53906c5.5547 3.625 10.66 8.5195 15.191 14.555-0.042969 1.7969-0.23047 3.5898-0.57422 5.375zm-25.551 3.4688c1.1289 0.089843 2.3906 0.14453 3.7422 0.14453 4.1289 0 9.0742-0.49609 13.48-1.8594 0.64844 0.84375 1.2734 1.7031 1.8828 2.5742-6.9453 2.4453-15.484 2.375-19.609 1.7109 0.15234-0.84766 0.32031-1.7031 0.50391-2.5703zm0.46875-2.0547c0.21875-0.91016 0.45703-1.8125 0.71094-2.707 0.35547 0.007812 0.73438 0.011719 1.1445 0.011719 2.8867 0 7.0508-0.24219 11.301-1.2773 0.74219 0.81641 1.4766 1.6719 2.2031 2.5586-5.2617 1.4844-11.207 1.7148-15.359 1.4141zm1.3398-4.7812c0.82422-2.5938 1.7773-5.0391 2.8359-7.3047 2.5312 1.8398 4.9805 3.9727 7.3164 6.3633-3.9023 0.81641-7.6328 0.96484-10.152 0.94141zm14.957 12.746c-5.8242 1.082-11.812 1.2891-17.863 0.64844 0.078125-0.64062 0.16406-1.2852 0.26172-1.9336 1.5547 0.24609 3.6719 0.41406 6.0977 0.41406 4.5859 0 10.219-0.61328 15.043-2.4102 0.29688 0.45312 0.58984 0.91016 0.875 1.3711-1.2852 0.9375-2.7812 1.6055-4.4141 1.9102zm5.9922-3.3438c-0.37891-0.60547-0.76562-1.2031-1.1602-1.7812-0.98828-1.4766-2.0508-2.9414-3.1602-4.3555-1.2031-1.5234-2.4414-2.9766-3.6797-4.3203-2.8828-3.125-5.9688-5.8477-9.1758-8.1445 0.55859-1.0781 1.1406-2.0977 1.7461-3.0664 4.1094 2.7617 8.0195 6.2617 11.617 10.438 2.125 2.4609 4.1016 5.1211 5.8945 7.9023-0.48047 1.2422-1.1953 2.3594-2.082 3.3281zm3.0469-16.797c0.089844 0.62109 0.15625 1.2422 0.21094 1.8633-3.5156-4.3281-7.3477-8.0156-11.441-11.031h0.625c5.2852 0 9.8438 3.9414 10.605 9.168zm-2.7969-12.961c0 0.94531-0.76562 1.7109-1.7109 1.7109h-31.34c-0.94531 0-1.7109-0.76953-1.7109-1.7109 0-0.94531 0.76562-1.7109 1.7109-1.7109h31.344c0.94141 0 1.707 0.76562 1.707 1.7109zm-33.055-3.7969c-0.94531 0-1.7109-0.76953-1.7109-1.7109 0-0.94531 0.76562-1.7109 1.7109-1.7109h31.344c0.94531 0 1.7109 0.76562 1.7109 1.7109 0 0.94531-0.76562 1.7109-1.7109 1.7109zm33.055-7.293c0 0.94531-0.76562 1.7109-1.7109 1.7109h-31.344c-0.94531 0-1.7109-0.76562-1.7109-1.7109 0-0.94531 0.76562-1.7109 1.7109-1.7109h31.344c0.94531 0 1.7109 0.76953 1.7109 1.7109zm2.7969-12.961c-0.625 4.2773-3.793 7.6875-7.8125 8.7891 4.1094-6.5273 6.3789-13.895 7.6016-19.352 0.65234 3.5156 0.72266 7.0625 0.21094 10.562zm-1.5234-14.652c-0.95703 5.5664-3.3711 15.641-9.0352 23.816-0.015625 0-0.027343 0.003907-0.042969 0.003907h-4.832c6.8906-9.8867 9.2031-22.457 9.9141-27.938 1.6797 0.97656 3.0664 2.3945 3.9961 4.1172zm-5.9844-5.0312c-0.60547 5.1055-2.8906 18.789-10.5 28.848l-4.8867 0.003907c0.54688-0.72266 1.082-1.4727 1.5938-2.2539 0.003906-0.003906 0.003906-0.007812 0.007812-0.011718 0.98828-1.5039 1.9414-3.1641 2.8242-4.9375 1.5156-3.043 2.8281-6.4297 3.9102-10.074 0.46094-1.5625 0.87891-3.168 1.2383-4.7734 0.35156-1.5508 0.65234-3.0938 0.89063-4.5859 0.17187-1.0391 0.30859-2.0664 0.43359-3.082 1.0352 0.14453 2.0742 0.30859 3.1133 0.5 0.47266 0.09375 0.92969 0.22266 1.375 0.36719zm-7.6562 5.4492c-4.5664-0.36328-11.379-0.10156-17.23 1.7148-0.64453-0.83984-1.2695-1.6992-1.8789-2.5703 6.9453-2.4453 15.484-2.3789 19.609-1.7109-0.14453 0.84766-0.3125 1.7031-0.5 2.5664zm-0.46875 2.0586c-0.21875 0.91016-0.45703 1.8164-0.71094 2.707-2.8516-0.0625-7.5938 0.074219-12.449 1.2578-0.73828-0.8125-1.4727-1.668-2.1992-2.5547 5.2617-1.4805 11.207-1.7109 15.359-1.4102zm-1.3398 4.7812c-0.82812 2.5977-1.7773 5.0391-2.8359 7.3047-2.5352-1.8398-4.9844-3.9727-7.3164-6.3633 3.9023-0.81641 7.6328-0.96484 10.152-0.94141zm-14.953-12.746c3.6562-0.67969 7.375-1.0156 11.137-1.0156 2.2305 0 4.4766 0.13281 6.7266 0.37109-0.078125 0.63672-0.16406 1.2812-0.26172 1.9336-4.4883-0.71094-13.766-0.75781-21.145 1.9883-0.29688-0.44922-0.58594-0.90625-0.87109-1.3672 1.2812-0.9375 2.7773-1.6055 4.4141-1.9102zm-5.9805 3.3281c0.37891 0.60156 0.75391 1.2148 1.1484 1.7969 0.98828 1.4766 2.0469 2.9336 3.1445 4.332l0.003906 0.003906c0.003906 0.003907 0.007812 0.011719 0.011719 0.015626 1.2031 1.5273 2.4453 2.9805 3.6797 4.3203 2.8789 3.125 5.9688 5.8477 9.1758 8.1445-0.55859 1.0781-1.1445 2.1016-1.7461 3.0703-4.1094-2.7617-8.0156-6.2617-11.617-10.438-2.1211-2.4609-4.0977-5.1211-5.8945-7.9023 0.48047-1.25 1.1992-2.3711 2.0938-3.3438z"/>
<text x="0.0" y="117.5" font-size="5.0" font-weight="bold" font-family="Arbeit Regular, Helvetica, Arial-Unicode, Arial, Sans-serif" fill="#000000">Created by Trotoart</text><text x="0.0" y="122.5" font-size="5.0" font-weight="bold" font-family="Arbeit Regular, Helvetica, Arial-Unicode, Arial, Sans-serif" fill="#000000">from Noun Project</text></svg>
