<svg xmlns="http://www.w3.org/2000/svg" xml:space="preserve" fill-rule="evenodd" stroke-linejoin="round" stroke-miterlimit="2" clip-rule="evenodd" viewBox="0 0 753 681">
  <path fill="url(#imgB)" d="m237.249 141.564 1.111 2.489h-10.832v-9.321h4.432l-3.802-8.433 26.93-21.896 29.403 36.161-28.929 23.522-18.313-22.522Zm22.368-16.816-14.465 11.761 5.881 7.232 14.464-11.761-5.88-7.232Zm33.159 144.208-.711-.875-4.466-9.909 26.767-21.764 29.403 36.161-28.929 23.522-19.151-23.553 13.375 29.976h-16.288v-33.558Zm26.119-12.203-14.464 11.761 5.88 7.232 14.465-11.761-5.881-7.232Zm35.234 146.759 13.217 29.622v9.198h-37.285v-46.606H349.6l-2.56-5.68 26.605-21.633 29.402 36.161-28.929 23.522-19.989-24.584Zm24.045-14.754-14.465 11.761 5.881 7.232 14.464-11.761-5.88-7.232Zm-20.149 25.61h-18.643v9.322h18.643v-9.322Zm67.493 149.14h-11.566v-9.321h7.407l4.159 9.321Zm-291.202-9.321v9.321h-18.643v-9.321h18.643ZM69.067 395.726v46.606H31.782v-46.606h37.285Zm-9.321 18.642H41.104v9.322h18.642v-9.322Zm111.855 0v9.322h-18.643v-9.322h18.643Zm-74.57 0v9.322H78.389v-9.322h18.642Zm83.891-158.46v46.606h-37.285v-46.606h37.285Zm-9.321 18.642h-18.643v9.321h18.643v-9.321Zm83.891 260.994v46.606h-37.285v-46.606h37.285Zm-9.322 18.643h-18.642v9.321h18.642v-9.321Zm-37.284 0v9.321h-18.643v-9.321h18.643ZM69.067 116.09v46.606H31.782V116.09h37.285Zm-9.321 18.642H41.104v9.321h18.642v-9.321Zm270.315 400.812v46.606h-37.285v-46.606h37.285Zm-9.321 18.643h-18.642v9.321h18.642v-9.321ZM143.637 116.09v46.606h-37.285V116.09h37.285Zm-9.321 18.642h-18.643v9.321h18.643v-9.321Zm-37.285 0v9.321H78.389v-9.321h18.642Zm186.424 419.455v9.321h-18.642v-9.321h18.642ZM134.316 274.55v9.321h-18.643v-9.321h18.643Zm37.285-139.818v9.321h-18.643v-9.321h18.643Zm83.891 121.176v46.606h-37.285v-46.606h37.285Zm-9.322 18.642h-18.642v9.321h18.642v-9.321Zm158.461 260.994v46.606h-37.285v-46.606h37.285Zm-9.321 18.643h-18.643v9.321h18.643v-9.321Zm-335.564 0v9.321H41.104v-9.321h18.642Zm46.606-18.643v46.606H69.067v-46.606h37.285Zm-9.321 18.643H78.389v9.321h18.642v-9.321ZM218.207 116.09v46.606h-37.285V116.09h37.285Zm-9.321 18.642h-18.643v9.321h18.643v-9.321ZM59.746 274.55v9.321H41.104v-9.321h18.642Zm298.279 279.637v9.321h-18.643v-9.321h18.643ZM320.74 414.368v9.322h-18.642v-9.322h18.642Zm-27.964-18.642v46.606h-37.284v-46.606h37.284Zm-9.321 18.642h-18.642v9.322h18.642v-9.322ZM180.922 535.544v46.606h-37.285v-46.606h37.285Zm-9.321 18.643h-18.643v9.321h18.643v-9.321Zm37.285-279.637v9.321h-18.643v-9.321h18.643Zm9.321 121.176v46.606h-37.285v-46.606h37.285Zm-9.321 18.642h-18.643v9.322h18.643v-9.322Zm-102.534-158.46v46.606H69.067v-46.606h37.285Zm-9.321 18.642H78.389v9.321h18.642v-9.321Zm186.424 0v9.321h-18.642v-9.321h18.642ZM143.637 395.726v46.606h-37.285v-46.606h37.285Zm-9.321 18.642h-18.643v9.322h18.643v-9.322Zm111.854 0v9.322h-18.642v-9.322h18.642Zm71.844-350.776 24.334 29.928-28.929 23.522-27.107-33.339 31.702-20.111Zm-.539 14.112L303.01 89.465l5.881 7.232 14.464-11.761-5.88-7.232Zm63.942-54.335 18.789 23.107-28.929 23.522-21.561-26.518 31.701-20.111Zm-6.085 7.291-14.464 11.761 5.88 7.232 14.465-11.761-5.881-7.232Zm31.167-13.328-10.822 8.799-5.88-7.232 4.734-3.849 6.631-4.207 5.337 6.489Zm100.665 122.381-18.751 15.246-29.402-36.161 18.545-15.079 11.843 14.398-11.395 9.265 5.88 7.232 11.437-9.298 11.843 14.397Zm76.978 93.586-12.05 9.799-5.881-7.233 12.01-9.765 5.921 7.199Zm100.665 122.382-19.979 16.245-29.403-36.161 19.774-16.079 11.843 14.398-12.624 10.265 5.881 7.232 12.665-10.298 11.843 14.398ZM406.48 521.919l26.443-21.501 29.403 36.161-28.929 23.522-21.781-26.787-5.136-11.395Zm30.972-1.156-14.464 11.761 5.88 7.232 14.464-11.761-5.88-7.232Zm53.329-67.389 29.402 36.161-28.929 23.522-29.402-36.161 28.929-23.522Zm4.529 20.345-14.465 11.761 5.881 7.232 14.464-11.761-5.88-7.232Zm-88.208-108.483 5.881 7.232-14.465 11.761-5.88-7.232 14.464-11.761ZM346.403 54.182l5.881 7.232-14.464 11.761-5.881-7.232 14.464-11.761Zm200.815 173.099 29.402 36.162-28.928 23.521-29.403-36.161 28.929-23.522Zm4.529 20.345-14.465 11.761 5.881 7.233 14.464-11.761-5.88-7.233Zm-85.366 249.615 5.88 7.232-14.464 11.761-5.881-7.232 14.465-11.761Zm-34.878-175.872 29.402 36.161-28.929 23.522-29.402-36.161 28.929-23.522Zm4.528 20.345-14.464 11.761 5.88 7.232 14.465-11.761-5.881-7.232Zm28.929-23.522 5.881 7.232-14.465 11.761-5.88-7.232 14.464-11.761Zm-92.736-128.828 29.403 36.161-28.929 23.522-29.403-36.161 28.929-23.522Zm4.529 20.345-14.464 11.761 5.88 7.232 14.464-11.761-5.88-7.232Zm-28.929 23.522 5.881 7.232-14.465 11.761-5.88-7.232 14.464-11.761Zm57.858-47.044 5.88 7.232-14.464 11.761-5.881-7.232 14.465-11.761Zm24.4-43.867 29.402 36.161-28.929 23.522-29.402-36.161 28.929-23.522Zm4.529 20.345-14.465 11.761 5.881 7.232 14.464-11.761-5.88-7.232ZM548.639 406.33l29.402 36.162-28.929 23.521-29.402-36.161 28.929-23.522Zm4.528 20.345-14.464 11.761 5.88 7.233 14.465-11.761-5.881-7.233Zm-28.928 23.522 5.88 7.233-14.464 11.76-5.881-7.232 14.465-11.761Zm82.257-90.91 29.403 36.161-28.929 23.522-29.403-36.161 28.929-23.522Zm4.529 20.345-14.464 11.76 5.88 7.233 14.465-11.761-5.881-7.232ZM288.546 101.226l5.88 7.232-14.464 11.761-5.881-7.232 14.465-11.761Zm174.994 37.917 5.88 7.232-14.464 11.761-5.881-7.232 14.465-11.761Zm59.278 132.005 5.88 7.233-14.464 11.76-5.881-7.232 14.465-11.761Zm117.136 84.962 5.88 7.232-14.464 11.761-5.88-7.232 14.464-11.761Zm-57.858 47.043 5.881 7.233-14.465 11.761-5.88-7.233 14.464-11.761ZM489.36 274.325l29.403 36.161-28.929 23.522-29.403-36.161 28.929-23.522Zm4.529 20.345-14.464 11.761 5.88 7.232 14.465-11.761-5.881-7.232Z"/>
  <path fill="url(#imgC)" d="M255.492 186.94v22.362h-37.285v-46.606h28.471l2.82 6.32 6.064-4.93 29.402 36.161-17.179 13.968-7.925-17.584 6.111-4.968-5.881-7.232-4.193 3.409-.405-.9Zm-9.322-5.602h-18.642v9.321h18.642v-9.321Zm74.02 149.139h-18.092v-9.321h15.284l2.917 6.537 4.95-4.025-5.88-7.232-4.031 3.277-7.925-17.583 7.427-6.039 29.402 36.161-17.016 13.836-7.036-15.611Zm50.417 111.855-3.754-8.329 7.265-5.907 29.403 36.161-16.355 13.298 5.08 11.383h-24.9v-46.606h3.261Zm12.604 27.964-4.201-9.322h-2.343v9.322h6.544Zm-3.911-10.372 5.228-4.251-5.881-7.232-3.281 2.668 3.934 8.815Zm62.616 140.612v28.22h-37.285V582.15h28.998l-7.335-16.273 7.103-5.776 29.402 36.161-16.692 13.572-4.191-9.298Zm-7.549-17.197 3.933 8.816 5.506-4.477-5.881-7.232-3.558 2.893Zm-1.772 17.454h-18.643v9.321h18.643v-9.321Zm-335.564 0v9.321H78.389v-9.321h18.642Zm195.745-298.279v46.606h-37.284v-46.606h37.284Zm-9.321 18.642h-18.642v9.321h18.642v-9.321ZM218.207 582.15v46.606h-37.285V582.15h37.285Zm-9.321 18.643h-18.643v9.321h18.643v-9.321Zm-65.249-18.643v46.606h-37.285V582.15h37.285Zm-9.321 18.643h-18.643v9.321h18.643v-9.321Zm-74.57-139.819v9.322H41.104v-9.322h18.642Zm307.6 121.176v46.606h-37.285V582.15h37.285Zm-9.321 18.643h-18.643v9.321h18.643v-9.321Zm-65.249-18.643v46.606h-37.284V582.15h37.284Zm-9.321 18.643h-18.642v9.321h18.642v-9.321ZM171.601 321.156v9.321h-18.643v-9.321h18.643ZM395.31 600.793v9.321h-18.643v-9.321h18.643ZM283.455 460.974v9.322h-18.642v-9.322h18.642Zm46.606-18.642v46.606h-37.285v-46.606h37.285Zm-9.321 18.642h-18.642v9.322h18.642v-9.322ZM106.352 162.696v46.606H69.067v-46.606h37.285Zm-9.321 18.642H78.389v9.321h18.642v-9.321Zm121.176 121.176v46.606h-37.285v-46.606h37.285Zm-9.321 18.642h-18.643v9.321h18.643v-9.321ZM59.746 181.338v9.321H41.104v-9.321h18.642Zm121.176-18.642v46.606h-37.285v-46.606h37.285Zm-9.321 18.642h-18.643v9.321h18.643v-9.321Zm-74.57 139.818v9.321H78.389v-9.321h18.642Zm111.855-139.818v9.321h-18.643v-9.321h18.643ZM320.74 600.793v9.321h-18.642v-9.321h18.642ZM134.316 181.338v9.321h-18.643v-9.321h18.643Zm9.321 121.176v46.606h-37.285v-46.606h37.285Zm-9.321 18.642h-18.643v9.321h18.643v-9.321Zm37.285 279.637v9.321h-18.643v-9.321h18.643Zm74.569 0v9.321h-18.642v-9.321h18.642Zm0-279.637v9.321h-18.642v-9.321h18.642ZM69.067 582.15v46.606H31.782V582.15h37.285Zm-9.321 18.643H41.104v9.321h18.642v-9.321Zm74.57-139.819v9.322h-18.643v-9.322h18.643Zm74.57 0v9.322h-18.643v-9.322h18.643Zm-27.964-18.642v46.606h-37.285v-46.606h37.285Zm-9.321 18.642h-18.643v9.322h18.643v-9.322Zm186.424 0v9.322h-18.643v-9.322h18.643ZM69.067 302.514v46.606H31.782v-46.606h37.285Zm-9.321 18.642H41.104v9.321h18.642v-9.321Zm46.606 121.176v46.606H69.067v-46.606h37.285Zm-9.321 18.642H78.389v9.322h18.642v-9.322Zm158.461-18.642v46.606h-37.285v-46.606h37.285Zm-9.322 18.642h-18.642v9.322h18.642v-9.322Zm201.779-393.25-18.341 14.913-29.402-36.161 18.136-14.746 11.843 14.397-10.986 8.933 5.881 7.232 11.026-8.966 11.843 14.398Zm76.979 93.586-11.641 9.465-5.881-7.232 11.601-9.432 5.921 7.199Zm100.664 122.382-19.569 15.912-29.403-36.161 19.365-15.746 11.843 14.398-12.214 9.931 5.88 7.233 12.255-9.965 11.843 14.398Zm76.979 93.586-12.87 10.464-5.88-7.232 12.828-10.431 5.922 7.199ZM372.698 249.047l29.402 36.161-28.929 23.522-29.402-36.161 28.929-23.522Zm4.528 20.345-14.464 11.761 5.881 7.232 14.464-11.761-5.881-7.232ZM606.97 418.97l29.402 36.161-28.929 23.522-29.402-36.161 28.929-23.522Zm4.529 20.345-14.465 11.76 5.881 7.233 14.464-11.761-5.88-7.232Zm-28.929 23.521 5.88 7.233-14.464 11.761-5.881-7.233 14.465-11.761Zm-34.878-175.872 29.402 36.162-28.929 23.521-29.402-36.161 28.929-23.522Zm4.528 20.345-14.464 11.761 5.88 7.233 14.465-11.761-5.881-7.233ZM406.155 245.87l5.881 7.232-14.465 11.761-5.88-7.232 14.464-11.761Zm1.421 179.049 5.88 7.232-14.464 11.761-5.88-7.232 14.464-11.761Zm141.536 41.094 29.403 36.162-28.929 23.521-29.403-36.161 28.929-23.522Zm4.529 20.345-14.465 11.761 5.881 7.233 14.464-11.761-5.88-7.233Zm-65.228-331.399 29.403 36.161-28.929 23.522-29.403-36.161 28.929-23.522Zm4.529 20.345-14.464 11.761 5.88 7.232 14.464-11.761-5.88-7.232Zm171.886 196.622 29.402 36.161-28.929 23.522-29.402-36.161 28.929-23.522Zm4.528 20.345-14.464 11.761 5.88 7.232 14.465-11.761-5.881-7.232ZM464.013 198.826l5.881 7.232-14.465 11.761-5.88-7.232 14.464-11.761Zm59.278 132.005 5.881 7.233-14.465 11.76-5.88-7.232 14.464-11.761Zm-91.315 50.221 29.403 36.161-28.929 23.522-29.403-36.161 28.929-23.522Zm4.529 20.345-14.465 11.761 5.881 7.232 14.464-11.761-5.88-7.232Zm-31.77-334.576 5.88 7.232-14.464 11.761-5.881-7.232 14.465-11.761Zm-115.716 94.088 5.881 7.232-14.465 11.761-5.88-7.232 14.464-11.761Zm176.415 216.966 5.88 7.232-14.464 11.761-5.881-7.232 14.465-11.761Zm24.4-43.867 29.402 36.161-28.929 23.522-29.402-36.161 28.929-23.522Zm4.529 20.345-14.465 11.761 5.881 7.232 14.464-11.761-5.88-7.232ZM313.419 117.042l29.403 36.161-28.929 23.522-29.402-36.161 28.928-23.522Zm4.529 20.345-14.464 11.761 5.88 7.232 14.465-11.761-5.881-7.232Zm112.607 64.616 29.403 36.161-28.929 23.522-29.402-36.161 28.928-23.522Zm4.529 20.345-14.464 11.761 5.88 7.232 14.465-11.761-5.881-7.232Zm31.77 334.576 5.881 7.232-14.465 11.761-5.88-7.232 14.464-11.761Zm24.4-43.867 29.403 36.161-28.929 23.522-29.402-36.161 28.928-23.522Zm4.529 20.345-14.464 11.761 5.88 7.232 14.465-11.761-5.881-7.232ZM348.298 292.914l5.88 7.232-14.464 11.761-5.881-7.232 14.465-11.761ZM524.712 509.88l5.881 7.233-14.465 11.76-5.88-7.232 14.464-11.761ZM346.877 113.865l5.88 7.232-14.464 11.761-5.88-7.232 14.464-11.761Zm24.4-43.867 29.403 36.161-28.929 23.522-29.403-36.161 28.929-23.522Zm4.529 20.345-14.465 11.761 5.881 7.232 14.464-11.761-5.88-7.232Zm205.343 193.444 5.881 7.233-14.465 11.761-5.88-7.233 14.464-11.761Zm59.279 132.006 5.88 7.232-14.464 11.761-5.881-7.232 14.465-11.761Z"/>
  <path fill="url(#imgD)" d="m280.965 239.539 7.304 16.369h-32.777v-46.606h11.982l8.318 18.642h-10.979v9.321h14.21l-1.902-2.338-1.41-3.129 13.782-11.206 5.88 7.232-14.408 11.715ZM339.382 370.6l-2.485-3.057-1.746-3.872 13.62-11.074 5.881 7.232-14.465 11.761-.668-.822 2.818 6.316h-2.955V370.6Zm-9.321-21.028v46.154h-37.285V349.12h37.084l.201.452Zm-9.321 18.19h-18.642v9.322h18.642v-9.322Zm92.301 167.782h-8.41v-18.848l8.41 18.848Zm28.875 125.838v-32.626h12.716l8.318 18.643h-11.713v9.321h15.872l2.037 4.565-27.23.097Zm-74.57.265v-32.891h37.285v32.759l-37.285.132Zm27.964-14.248h-18.643v9.321h18.643v-9.321Zm-102.534 14.513v-33.156h37.285v33.023l-37.285.133Zm27.964-14.513h-18.642v9.321h18.642v-9.321Zm-102.533 14.778v-33.421h37.285v33.288l-37.285.133Zm27.963-14.778h-18.642v9.321h18.642v-9.321Zm-102.533 15.043v-33.686h37.285v33.553l-37.285.133Zm27.964-15.043h-18.643v9.321h18.643v-9.321ZM69.067 662.706v-33.95h37.285v33.818l-37.285.132Zm27.964-15.307H78.389v9.321h18.642v-9.321Zm46.606-438.097v46.606h-37.285v-46.606h37.285Zm-9.321 18.642h-18.643v9.321h18.643v-9.321Zm46.606 121.176v46.606h-37.285V349.12h37.285Zm-9.321 18.642h-18.643v9.322h18.643v-9.322Zm-74.57-139.818v9.321H78.389v-9.321h18.642Zm9.321 121.176v46.606H69.067V349.12h37.285Zm-9.321 18.642H78.389v9.322h18.642v-9.322Zm-27.964-158.46v46.606H31.782v-46.606h37.285Zm-9.321 18.642H41.104v9.321h18.642v-9.321Zm186.424 0v9.321h-18.642v-9.321h18.642Zm-74.569 0v9.321h-18.643v-9.321h18.643Zm111.854 139.818v9.322h-18.642v-9.322h18.642Zm-223.709 0v9.322H41.104v-9.322h18.642Zm158.461-158.46v46.606h-37.285v-46.606h37.285Zm-9.321 18.642h-18.643v9.321h18.643v-9.321Zm-74.57 139.818v9.322h-18.643v-9.322h18.643Zm121.176-18.642v46.606h-37.285V349.12h37.285Zm-9.322 18.642h-18.642v9.322h18.642v-9.322Zm-37.284 0v9.322h-18.643v-9.322h18.643ZM171.601 507.58v9.322h-18.643v-9.322h18.643Zm74.569 0v9.322h-18.642v-9.322h18.642ZM69.067 488.938v46.606H31.782v-46.606h37.285Zm-9.321 18.642H41.104v9.322h18.642v-9.322Zm74.57 139.819v9.321h-18.643v-9.321h18.643Zm74.57 0v9.321h-18.643v-9.321h18.643Zm-65.249-158.461v46.606h-37.285v-46.606h37.285Zm-9.321 18.642h-18.643v9.322h18.643v-9.322Zm83.891-18.642v46.606h-37.285v-46.606h37.285Zm-9.321 18.642h-18.643v9.322h18.643v-9.322ZM59.746 647.399v9.321H41.104v-9.321h18.642ZM320.74 507.58v9.322h-18.642v-9.322h18.642Zm74.57 0v9.322h-18.643v-9.322h18.643Zm-102.534-18.642v46.606h-37.284v-46.606h37.284Zm-9.321 18.642h-18.642v9.322h18.642v-9.322Zm83.891-18.642v46.606h-37.285v-46.606h37.285Zm-9.321 18.642h-18.643v9.322h18.643v-9.322Zm-74.57 139.819v9.321h-18.642v-9.321h18.642Zm74.57 0v9.321h-18.643v-9.321h18.643Zm74.57 0v9.321h-18.643v-9.321h18.643ZM97.031 507.58v9.322H78.389v-9.322h18.642ZM465.714 89.321l-11.232 9.132-5.88-7.232 11.19-9.099 5.922 7.199Zm100.664 122.382-19.16 15.578-29.402-36.161 18.955-15.412 11.843 14.398-11.805 9.598 5.88 7.233 11.846-9.632 11.843 14.398Zm76.979 93.586-12.461 10.131-5.88-7.232 12.419-10.098 5.922 7.199Zm76.693 134.554-25.82-31.756 20.184-16.412 11.843 14.398-13.034 10.598 5.881 7.232 13.074-10.631 7.489 9.105-19.617 17.466Zm-55.75 49.635-27.928-34.347 28.929-23.522 26.874 33.051-27.875 24.818Zm5.53-37.524-14.465 11.761 5.881 7.232 14.464-11.761-5.88-7.232Zm-44.536 72.252-17.377 14.13-29.402-36.162 28.928-23.521 28.982 35.643-11.131 9.91Zm-13.322-25.209-14.464 11.761 5.88 7.233 14.465-11.761-5.881-7.233Zm-157.94 128.421 13.296-10.811 5.88 7.232-14.464 11.761-2.296-2.823-2.416-5.359Zm-59.44-131.874 13.458-10.942 5.88 7.232-14.464 11.761-2.794-3.435-2.08-4.616Zm71.315-57.986 5.881 7.232-14.465 11.761-5.88-7.232 14.464-11.761ZM373.171 308.73l29.403 36.161-28.929 23.522-29.403-36.161 28.929-23.522Zm4.529 20.345-14.464 11.761 5.88 7.232 14.465-11.761-5.881-7.232Zm54.75 111.66 29.402 36.161-28.929 23.522-29.402-36.161 28.929-23.522Zm4.528 20.345-14.464 11.761 5.88 7.232 14.465-11.761-5.881-7.232Zm54.75 111.66 29.402 36.161-28.929 23.522-29.402-36.161 28.929-23.522Zm4.529 20.345-14.465 11.761 5.881 7.232 14.464-11.761-5.88-7.232Zm53.329-67.389 29.402 36.161-28.929 23.522-29.402-36.161 28.929-23.522Zm4.528 20.345-14.464 11.761 5.88 7.233 14.465-11.761-5.881-7.233Zm-28.928 23.522 5.88 7.232-14.464 11.761-5.881-7.232 14.465-11.761Zm-94.157-307.877 29.402 36.161-28.928 23.522-29.403-36.161 28.929-23.522Zm4.529 20.345-14.465 11.761 5.881 7.232 14.464-11.761-5.88-7.232Zm-28.929 23.522 5.88 7.232-14.464 11.761-5.881-7.232 14.465-11.761Zm82.258-90.911 29.402 36.161-28.929 23.522-29.402-36.161 28.929-23.522Zm4.528 20.345-14.464 11.761 5.881 7.232 14.464-11.761-5.881-7.232Zm-28.928 23.522 5.88 7.232-14.464 11.761-5.881-7.232 14.465-11.761Zm57.857-47.044 5.881 7.233-14.465 11.76-5.88-7.232 14.464-11.761Zm-174.993-37.917 5.88 7.232-14.464 11.761-5.881-7.232 14.465-11.761Zm57.857-47.044 5.881 7.232-14.465 11.761-5.88-7.232 14.464-11.761Zm-91.315 50.221 29.402 36.161-28.929 23.522-29.402-36.161 28.929-23.522Zm4.529 20.345-14.465 11.761 5.881 7.232 14.464-11.761-5.88-7.232Zm53.329-67.389 29.402 36.161-28.929 23.522-29.402-36.161 28.929-23.522Zm4.528 20.345-14.464 11.761 5.88 7.232 14.465-11.761-5.881-7.232Zm53.329-67.389 29.403 36.161-28.929 23.522-29.402-36.161 28.928-23.522Zm4.529 20.345-14.464 11.761 5.88 7.232 14.465-11.761-5.881-7.232Zm89.628 287.532 5.88 7.233-14.464 11.76-5.88-7.232 14.464-11.761Zm57.858-47.044 5.88 7.233-14.464 11.761-5.881-7.233 14.465-11.761Zm-91.316 50.221 29.403 36.161-28.929 23.522-29.402-36.161 28.928-23.522Zm4.529 20.345-14.464 11.761 5.88 7.232 14.465-11.761-5.881-7.232Zm53.329-67.389 29.402 36.162-28.928 23.521-29.403-36.161 28.929-23.522Zm4.529 20.345-14.465 11.761 5.881 7.233 14.464-11.761-5.88-7.233Zm53.329-67.388 29.402 36.161-28.929 23.522-29.402-36.161 28.929-23.522Zm4.529 20.345-14.465 11.76 5.881 7.233 14.464-11.761-5.88-7.232Zm-27.509 202.57 5.881 7.233-14.465 11.761-5.88-7.233 14.464-11.761Zm57.858-47.043 5.88 7.232-14.464 11.761-5.88-7.232 14.464-11.761Zm57.858-47.044 5.88 7.232-14.464 11.761-5.881-7.232 14.465-11.761Z"/>
  <path fill="url(#imgA)" d="m400.206 46.476-18.789-23.107 13.114-8.319-4.734 3.849 5.88 7.232 10.822-8.799 11.843 14.398-18.136 14.746ZM69.067 628.756v33.95l-37.285.133v-34.083h37.285Zm0-419.454H31.782v-46.606h37.285v46.606Zm0-46.606V116.09h37.285v46.606H69.067Zm37.285 0h37.285v46.606h-37.285v-46.606Zm37.285 0V116.09h37.285v46.606h-37.285Zm37.285 0h37.285v46.606h-37.285v-46.606Zm37.285 0v-32.308l-9.609-21.289 20.052-9.051 28.368 62.854 27.473-22.338 29.402 36.161-28.929 23.522-24.928-30.658 16.815 37.255 8.113-6.597 29.402 36.161-17.683 14.378 7.933 17.577 14.279-11.61 5.881 7.232-14.465 11.761-5.311-6.532 11.516 25.514 27.253-22.159 29.402 36.161-28.929 23.522-24.254-29.829 16.36 36.248 7.894-6.419 29.403 36.161-17.464 14.2 7.933 17.577 14.06-11.432 5.88 7.232-14.464 11.761-4.638-5.703 11.061 24.507 27.034-21.981 29.403 36.161-28.929 23.522-23.58-29 15.905 35.24 7.675-6.24 29.402 36.161-17.245 14.022 7.934 17.577 13.84-11.254 5.88 7.232-14.464 11.761-3.963-4.874 10.606 23.5 26.815-21.803 29.402 36.161-28.929 23.522-22.906-28.172 15.451 34.234 7.455-6.062 29.402 36.161-17.025 13.843 9.048 20.049-20.052 9.05-8.415-18.645h-4.52v-9.321h.313l-8.414-18.643h-1.22v-2.704l-9.321-20.653v4.715h-18.643v-9.321h16.563l-8.414-18.643h-17.47v-38.709l-3.564-7.897h-33.721v-46.606h12.686l-12.686-28.107v28.107h-37.285v-46.606h28.936l-8.414-18.642h-11.201v-9.322h6.994l-8.414-18.642h-7.901V378.22l-13.134-29.1h-24.151v-46.606h3.117l-3.117-6.905v6.905h-37.284v-46.606h19.366l-8.414-18.643h-1.631v-3.614l-9.321-20.652v42.909h-37.285v-46.606h35.616l-8.414-18.643h-17.881v-9.321h13.674l-8.414-18.642h-14.581Zm66.284-22.132-29.403-36.161 4.988-4.056 26.236-16.644 27.107 33.339-28.928 23.522Zm28.928-23.522 28.929-23.522 29.403 36.161-28.929 23.522-29.403-36.161Zm28.929-23.522-24.334-29.928 31.702-20.112 21.561 26.518-28.929 23.522Zm28.929-23.522 28.929-23.522 29.402 36.161-28.928 23.522-29.403-36.161Zm58.331 12.639 18.341-14.913 11.843 14.398-11.19 9.099 5.88 7.232 11.232-9.132 11.842 14.398-18.545 15.079-29.403-36.161Zm29.403 36.161 29.402 36.161-28.929 23.522-29.402-36.161 28.929-23.522Zm29.402 36.161 18.751-15.246 11.843 14.398-11.601 9.432 5.881 7.232 11.641-9.465 11.843 14.398-18.955 15.412-29.403-36.161Zm29.403 36.161 29.402 36.161-28.929 23.522-29.402-36.161 28.929-23.522Zm29.402 36.161 19.16-15.578 11.843 14.397-12.01 9.765 5.881 7.233 12.05-9.799 11.843 14.398-19.365 15.746-29.402-36.162Zm29.402 36.162 29.403 36.161-28.929 23.522-29.402-36.162 28.928-23.521Zm29.403 36.161 19.569-15.912 11.843 14.398-12.419 10.098 5.88 7.232 12.461-10.131 11.842 14.397-19.774 16.079-29.402-36.161Zm29.402 36.161 29.403 36.161-28.929 23.522-29.403-36.161 28.929-23.522Zm29.403 36.161 19.979-16.245 11.842 14.398-12.828 10.431 5.88 7.232 12.87-10.464 11.843 14.398-20.184 16.411-29.402-36.161Zm29.402 36.161 25.82 31.756-27.875 24.817-26.874-33.051 28.929-23.522Zm-28.929 23.522-28.929 23.522-29.402-36.161 28.929-23.522 29.402 36.161Zm-28.929 23.522 27.928 34.347-27.875 24.818-28.982-35.643 28.929-23.522Zm-28.929 23.522-28.928 23.522-29.403-36.162 28.929-23.521 29.402 36.161Zm-28.928 23.522 29.402 36.161-28.929 23.521-29.402-36.161 28.929-23.521Zm-28.929 23.521-28.929 23.522-29.403-36.161 28.929-23.522 29.403 36.161Zm-28.929 23.522 29.402 36.161-28.929 23.522-29.402-36.161 28.929-23.522Zm-78.741 79.538v32.626l-37.285.133v-32.759h37.285Zm-37.285 0h-37.285V582.15h37.285v46.606Zm-37.285 0v32.891l-37.285.132v-33.023h37.285Zm-37.285 0h-37.285V582.15h37.285v46.606Zm-37.285 0v33.156l-37.284.132v-33.288h37.284Zm-37.284 0h-37.285V582.15h37.285v46.606Zm-37.285 0v33.421l-37.285.132v-33.553h37.285Zm-37.285 0h-37.285V582.15h37.285v46.606Zm-37.285 0v33.686l-37.285.132v-33.818h37.285Zm-37.285 0H69.067V582.15h37.285v46.606ZM69.067 582.15H31.782v-46.606h37.285v46.606Zm0-46.606v-46.606h37.285v46.606H69.067Zm0-46.606H31.782v-46.606h37.285v46.606Zm0-46.606v-46.606h37.285v46.606H69.067Zm0-46.606H31.782V349.12h37.285v46.606Zm0-46.606v-46.606h37.285v46.606H69.067Zm0-46.606H31.782v-46.606h37.285v46.606Zm0-46.606v-46.606h37.285v46.606H69.067ZM467.243 628.69l5.965-4.851-5.88-7.232-4.051 3.294 3.966 8.789ZM143.637 209.302h37.285v46.606h-37.285v-46.606Zm-37.285 46.606h37.285v46.606h-37.285v-46.606Zm74.57 0h37.285v46.606h-37.285v-46.606Zm132.971-79.183 28.929-23.522 29.402 36.161-28.929 23.522-29.402-36.161Zm.473 59.683 28.929-23.522 29.403 36.161-28.929 23.522-29.403-36.161Zm57.385-106.727 28.929-23.522 29.402 36.161-28.929 23.522-29.402-36.161Zm.473 59.683 28.929-23.522 29.402 36.161-28.928 23.522-29.403-36.161Zm87.26-10.883 29.403 36.161-28.929 23.522-29.403-36.161 28.929-23.522Zm58.805 72.322 29.403 36.161-28.929 23.522-29.403-36.161 28.929-23.522Zm-58.331-12.639 29.402 36.161-28.929 23.522-29.402-36.161 28.929-23.522Zm117.136 84.962 29.402 36.161-28.929 23.522-29.402-36.162 28.929-23.521Zm-58.331-12.64 29.402 36.161-28.929 23.522-29.402-36.161 28.929-23.522Zm58.804 72.323 29.403 36.161-28.929 23.522-29.402-36.162 28.928-23.521Zm-28.455 83.204-28.929 23.522-29.402-36.161 28.929-23.522 29.402 36.161Zm-.473-59.683-28.929 23.522-29.403-36.161 28.929-23.522 29.403 36.161Zm-57.385 106.727-28.928 23.522-29.403-36.161 28.929-23.522 29.402 36.161Zm-.473-59.683-28.929 23.522-29.402-36.161 28.929-23.522 29.402 36.161ZM367.346 582.15h-37.285v-46.606h37.285v46.606Zm-74.57 0h-37.284v-46.606h37.284v46.606Zm37.285-46.606h-37.285v-46.606h37.285v46.606ZM218.207 582.15h-37.285v-46.606h37.285v46.606Zm37.285-46.606h-37.285v-46.606h37.285v46.606ZM143.637 582.15h-37.285v-46.606h37.285v46.606Zm37.285-46.606h-37.285v-46.606h37.285v46.606Zm-74.57-46.606v-46.606h37.285v46.606h-37.285Zm0-93.212V349.12h37.285v46.606h-37.285Zm37.285 46.606v-46.606h37.285v46.606h-37.285Zm0-93.212v-46.606h37.285v46.606h-37.285ZM288.75 233.209l6.623-5.385-5.88-7.232-4.709 3.829 3.966 8.788Zm118.995 263.654 6.185-5.029-5.88-7.232-4.271 3.472 3.966 8.789Zm-19.299 10.717h-11.779v9.322h15.986l-4.207-9.322ZM218.207 302.514h37.285v46.606h-37.285v-46.606Zm-37.285 46.606h37.285v46.606h-37.285V349.12Zm191.776-100.073 28.929-23.522 29.402 36.161-28.929 23.522-29.402-36.161Zm.473 59.683 28.929-23.522 29.403 36.161-28.929 23.522-29.403-36.161Zm87.26-10.883 29.403 36.161-28.929 23.522-29.402-36.161 28.928-23.522Zm.474 59.683 29.402 36.161-28.928 23.522-29.403-36.161 28.929-23.522Zm-28.929 23.522-28.929 23.522-29.402-36.161 28.929-23.522 29.402 36.161Zm-139.2 107.886h-37.284v-46.606h37.284v46.606Zm37.285-46.606h-37.285v-46.606h37.285v46.606Zm-111.854 46.606h-37.285v-46.606h37.285v46.606Zm37.285-46.606h-37.285v-46.606h37.285v46.606Zm27.78-167.782h-18.459v9.321h18.642v-8.914l-.183-.407Zm-27.78 74.57h37.284v46.606h-37.284V349.12Zm53.021-18.643-4.206-9.321h-2.209v9.321h6.415Zm39.735 34.559 6.404-5.207-5.881-7.232-4.49 3.651 3.967 8.788ZM59.746 647.399H41.104v9.321h18.642v-9.321Zm639.013-218.967-14.465 11.761 5.881 7.232 14.464-11.761-5.88-7.232ZM59.746 181.338H41.104v9.321h18.642v-9.321Zm37.285-46.606H78.389v9.321h18.642v-9.321Zm37.285 46.606h-18.643v9.321h18.643v-9.321Zm37.285-46.606h-18.643v9.321h18.643v-9.321Zm37.285 46.606h-18.643v9.321h18.643v-9.321Zm80.133-20.429-14.464 11.761 5.88 7.232 14.465-11.761-5.881-7.232Zm-.473-59.683-14.465 11.761 5.881 7.232 14.464-11.761-5.88-7.232Zm351.882 314.567-14.465 11.761 5.881 7.232 14.464-11.761-5.88-7.232Zm.473 59.683-14.464 11.761 5.88 7.232 14.464-11.761-5.88-7.232Zm-58.331-12.64-14.465 11.761 5.881 7.233 14.464-11.761-5.88-7.233Zm.473 59.683-14.464 11.761 5.88 7.233 14.465-11.761-5.881-7.233Zm-58.331-12.639-14.464 11.761 5.88 7.232 14.465-11.76-5.881-7.233Zm.474 59.683-14.465 11.761 5.881 7.232 14.464-11.761-5.88-7.232Zm-58.332-12.639-14.464 11.761 5.88 7.232 14.465-11.761-5.881-7.232Zm173.1-200.814-14.464 11.761 5.88 7.232 14.464-11.761-5.88-7.232ZM346.877 113.865l-14.464 11.761 5.88 7.232 14.464-11.761-5.88-7.232Zm-.474-59.683-14.464 11.761 5.881 7.232 14.464-11.761-5.881-7.232Zm58.332 12.639L390.27 78.582l5.881 7.232 14.464-11.761-5.88-7.232Zm58.805 72.322-14.465 11.761 5.881 7.232 14.464-11.761-5.88-7.232Zm58.804 72.322-14.464 11.761 5.88 7.232 14.465-11.76-5.881-7.233Zm58.805 72.322-14.464 11.761 5.88 7.233 14.465-11.761-5.881-7.233ZM432.595 647.399h-18.643v9.321h18.643v-9.321Zm-37.285-46.606h-18.643v9.321h18.643v-9.321Zm-37.285 46.606h-18.643v9.321h18.643v-9.321Zm-37.285-46.606h-18.642v9.321h18.642v-9.321Zm-37.285 46.606h-18.642v9.321h18.642v-9.321Zm-37.285-46.606h-18.642v9.321h18.642v-9.321Zm-37.284 46.606h-18.643v9.321h18.643v-9.321Zm-37.285-46.606h-18.643v9.321h18.643v-9.321Zm-37.285 46.606h-18.643v9.321h18.643v-9.321Zm-37.285-46.606H78.389v9.321h18.642v-9.321Zm-37.285-46.606H41.104v9.321h18.642v-9.321Zm37.285-46.607H78.389v9.322h18.642v-9.322Zm-37.285-46.606H41.104v9.322h18.642v-9.322Zm37.285-46.606H78.389v9.322h18.642v-9.322Zm-37.285-46.606H41.104v9.322h18.642v-9.322Zm37.285-46.606H78.389v9.321h18.642v-9.321ZM59.746 274.55H41.104v9.321h18.642v-9.321Zm37.285-46.606H78.389v9.321h18.642v-9.321Zm0-46.606v9.321H78.389v-9.321h18.642Zm74.57 0v9.321h-18.643v-9.321h18.643Zm-37.285 46.606v9.321h-18.643v-9.321h18.643Zm74.57 0v9.321h-18.643v-9.321h18.643Zm109.062-90.557 5.881 7.232-14.465 11.761-5.88-7.232 14.464-11.761Zm.474 59.683 5.88 7.232-14.464 11.761-5.881-7.232 14.465-11.761Zm57.384-106.727 5.88 7.232-14.464 11.761-5.881-7.232 14.465-11.761Zm.473 59.683 5.881 7.232-14.465 11.761-5.88-7.232 14.464-11.761Zm57.858-47.044 5.881 7.232-14.465 11.761-5.88-7.232 14.464-11.761Zm58.805 72.322 5.88 7.232-14.464 11.761-5.88-7.232 14.464-11.761Zm-58.331-12.639 5.88 7.232-14.464 11.761-5.881-7.232 14.465-11.761Zm117.136 84.961 5.88 7.233-14.464 11.761-5.881-7.233 14.465-11.761Zm-58.332-12.639 5.881 7.232-14.464 11.761-5.881-7.232 14.464-11.761Zm117.137 84.962 5.88 7.232-14.464 11.761-5.881-7.233 14.465-11.76Zm-58.332-12.64 5.881 7.233-14.465 11.761-5.88-7.233 14.464-11.761Zm117.136 84.962 5.881 7.232-14.465 11.761-5.88-7.232 14.464-11.761Zm-58.331-12.639 5.881 7.232-14.465 11.761-5.88-7.233 14.464-11.76Zm.474 59.683 5.88 7.232-14.464 11.761-5.881-7.233 14.465-11.76Zm-57.858 47.043 5.88 7.233-14.464 11.761-5.881-7.233 14.465-11.761Zm-.474-59.683 5.881 7.233-14.465 11.761-5.88-7.233 14.464-11.761Zm-57.384 106.727 5.881 7.232-14.465 11.761-5.88-7.232 14.464-11.761Zm-.473-59.683 5.88 7.232-14.464 11.761-5.881-7.232 14.465-11.761ZM358.025 600.793v9.321h-18.643v-9.321h18.643Zm37.285-46.606v9.321h-18.643v-9.321h18.643Zm-111.855 46.606v9.321h-18.642v-9.321h18.642Zm37.285-46.606v9.321h-18.642v-9.321h18.642Zm-111.854 46.606v9.321h-18.643v-9.321h18.643Zm37.284-46.606v9.321h-18.642v-9.321h18.642Zm-111.854 46.606v9.321h-18.643v-9.321h18.643Zm37.285-46.606v9.321h-18.643v-9.321h18.643Zm-74.57 0v9.321H78.389v-9.321h18.642Zm0-93.213v9.322H78.389v-9.322h18.642Zm37.285 46.606v9.322h-18.643v-9.322h18.643ZM97.031 367.762v9.322H78.389v-9.322h18.642Zm37.285 46.606v9.322h-18.643v-9.322h18.643ZM97.031 274.55v9.321H78.389v-9.321h18.642Zm37.285 46.606v9.321h-18.643v-9.321h18.643Zm37.285-93.212h-18.643v9.321h18.643v-9.321Zm-37.285 46.606h-18.643v9.321h18.643v-9.321Zm111.854-46.606h-18.642v9.321h18.642v-9.321Zm-37.284 46.606h-18.643v9.321h18.643v-9.321Zm138.465-101.002-14.465 11.761 5.881 7.232 14.464-11.761-5.88-7.232Zm.473 59.683-14.464 11.761 5.88 7.232 14.465-11.761-5.881-7.232Zm57.384-106.727-14.464 11.761 5.88 7.232 14.465-11.761-5.881-7.232Zm.474 59.683-14.465 11.761 5.881 7.232 14.464-11.761-5.88-7.232Zm58.331 12.639-14.464 11.761 5.88 7.232 14.465-11.761-5.881-7.232Zm58.805 72.322-14.465 11.761 5.881 7.232 14.464-11.76-5.88-7.233Zm-58.331-12.639-14.465 11.761 5.881 7.232 14.464-11.761-5.88-7.232Zm117.136 84.961-14.465 11.761 5.881 7.233 14.464-11.761-5.88-7.233Zm-58.332-12.639-14.464 11.761 5.88 7.232 14.465-11.76-5.881-7.233Zm58.805 72.322-14.464 11.761 5.88 7.233 14.465-11.761-5.881-7.233Zm-57.857 47.044-14.465 11.761 5.881 7.232 14.464-11.76-5.88-7.233Zm-.474-59.683-14.464 11.761 5.88 7.232 14.464-11.76-5.88-7.233Zm-57.384 106.727-14.465 11.761 5.881 7.232 14.464-11.761-5.88-7.232Zm-.474-59.683-14.464 11.761 5.88 7.232 14.465-11.761-5.881-7.232ZM358.025 554.187h-18.643v9.321h18.643v-9.321Zm-74.57 0h-18.642v9.321h18.642v-9.321Zm37.285-46.607h-18.642v9.322h18.642v-9.322Zm-111.854 46.607h-18.643v9.321h18.643v-9.321Zm37.284-46.607h-18.642v9.322h18.642v-9.322Zm-111.854 46.607h-18.643v9.321h18.643v-9.321Zm37.285-46.607h-18.643v9.322h18.643v-9.322Zm-37.285-46.606h-18.643v9.322h18.643v-9.322Zm0-93.212h-18.643v9.322h18.643v-9.322Zm37.285 46.606h-18.643v9.322h18.643v-9.322Zm0-93.212h-18.643v9.321h18.643v-9.321Zm0-46.606v9.321h-18.643v-9.321h18.643Zm74.569 0v9.321h-18.642v-9.321h18.642Zm-37.284 46.606v9.321h-18.643v-9.321h18.643Zm167.867-111.447 5.88 7.232-14.464 11.761-5.88-7.232 14.464-11.761Zm.473 59.683 5.881 7.232-14.464 11.761-5.881-7.232 14.464-11.761Zm57.858-47.044 5.881 7.232-14.465 11.761-5.88-7.232 14.464-11.761Zm58.805 72.322 5.881 7.232-14.465 11.761-5.88-7.232 14.464-11.761Zm-58.331-12.639 5.88 7.232-14.464 11.761-5.881-7.232 14.465-11.761Zm117.136 84.961 5.88 7.233-14.464 11.761-5.881-7.233 14.465-11.761Zm-58.331-12.639 5.88 7.232-14.464 11.761-5.881-7.232 14.465-11.761Zm.473 59.683 5.881 7.232-14.465 11.761-5.88-7.232 14.464-11.761Zm-57.858 47.044 5.881 7.232-14.465 11.761-5.88-7.232 14.464-11.761Zm-.473-59.683 5.88 7.232-14.464 11.761-5.881-7.232 14.465-11.761Zm-78.48 106.183v9.322h-18.643v-9.322h18.643Zm-74.57 0v9.322h-18.642v-9.322h18.642Zm37.285-46.606v9.322h-18.642v-9.322h18.642ZM208.886 507.58v9.322h-18.643v-9.322h18.643Zm37.284-46.606v9.322h-18.642v-9.322h18.642Zm-74.569 0v9.322h-18.643v-9.322h18.643Zm0-93.212v9.322h-18.643v-9.322h18.643Zm37.285 46.606v9.322h-18.643v-9.322h18.643Zm37.284-93.212h-18.642v9.321h18.642v-9.321Zm-37.284 46.606h-18.643v9.322h18.643v-9.322ZM406.155 245.87l-14.464 11.761 5.88 7.232 14.465-11.761-5.881-7.232Zm-57.857 47.044-14.465 11.761 5.881 7.232 14.464-11.761-5.88-7.232Zm58.331 12.639-14.465 11.761 5.881 7.232 14.464-11.761-5.88-7.232Zm58.331 12.639-14.464 11.761 5.88 7.232 14.465-11.761-5.881-7.232Zm.474 59.683-14.465 11.761 5.881 7.232 14.464-11.761-5.88-7.232Zm-57.858 47.044-14.464 11.761 5.88 7.232 14.464-11.761-5.88-7.232Zm-.474-59.683-14.464 11.761 5.88 7.232 14.465-11.761-5.881-7.232Zm-49.077 95.738h-18.643v9.322h18.643v-9.322Zm-74.57 0h-18.642v9.322h18.642v-9.322Zm37.285-46.606h-18.642v9.322h18.642v-9.322Zm-111.854 46.606h-18.643v9.322h18.643v-9.322Zm37.284-46.606h-18.642v9.322h18.642v-9.322Zm37.285-93.212v9.321h-18.642v-9.321h18.642Zm-37.285 46.606v9.322h-18.642v-9.322h18.642Zm131.53-38.687 5.881 7.232-14.465 11.761-5.88-7.232 14.464-11.761Zm58.331 12.639 5.881 7.232-14.465 11.761-5.88-7.232 14.464-11.761Zm-152.576 72.654v9.322h-18.642v-9.322h18.642Zm37.285-46.606v9.322h-18.642v-9.322h18.642Zm-37.285 0h-18.642v9.322h18.642v-9.322ZM59.746 134.732v9.321H41.104v-9.321h18.642Zm74.57 0v9.321h-18.643v-9.321h18.643Zm74.57 0v9.321h-18.643v-9.321h18.643ZM59.746 414.368v9.322H41.104v-9.322h18.642Zm0-93.212v9.321H41.104v-9.321h18.642Zm0 279.637v9.321H41.104v-9.321h18.642Zm0-372.849v9.321H41.104v-9.321h18.642Zm0 279.636v9.322H41.104v-9.322h18.642ZM395.31 647.399v9.321h-18.643v-9.321h18.643Zm-74.57 0v9.321h-18.642v-9.321h18.642Zm-74.57 0v9.321h-18.642v-9.321h18.642Zm-74.569 0v9.321h-18.643v-9.321h18.643Zm-74.57 0v9.321H78.389v-9.321h18.642ZM436.106 53.326l-11.026 8.966-5.881-7.232 10.986-8.933 5.921 7.199Zm59.215 71.99-11.437 9.298-5.88-7.232 11.395-9.265 5.922 7.199Zm59.214 71.989-11.846 9.632-5.88-7.233 11.805-9.598 5.921 7.199Zm59.214 71.989-12.255 9.965-5.88-7.233 12.214-9.931 5.921 7.199Zm59.215 71.989-12.665 10.298-5.881-7.232 12.624-10.265 5.922 7.199Zm59.214 71.989-13.074 10.631-5.881-7.232 13.034-10.598 5.921 7.199ZM259.617 124.748l5.88 7.232-14.464 11.761-5.881-7.232 14.465-11.761Zm57.858-47.044 5.88 7.232-14.464 11.761-5.881-7.232 14.465-11.761Zm57.857-47.044 5.881 7.232-14.465 11.761-5.88-7.232 14.464-11.761ZM669.83 451.954l5.88 7.232-14.464 11.761-5.881-7.232 14.465-11.761ZM496.257 593.085l5.88 7.232-14.464 11.761-5.881-7.232 14.465-11.761Zm57.857-47.044 5.881 7.233-14.465 11.761-5.88-7.233 14.464-11.761Zm57.858-47.044 5.881 7.233-14.465 11.761-5.88-7.233 14.464-11.761Z"/>
</svg>
