<?xml version="1.0" standalone="no"?>
<!DOCTYPE svg PUBLIC "-//W3C//DTD SVG 20010904//EN"
 "http://www.w3.org/TR/2001/REC-SVG-20010904/DTD/svg10.dtd">
<svg version="1.0" xmlns="http://www.w3.org/2000/svg"
 width="300.000000pt" height="375.000000pt" viewBox="0 0 300.000000 375.000000"
 preserveAspectRatio="xMidYMid meet">
<metadata>
Created by potrace 1.10, written by Peter Selinger 2001-2011
</metadata>
<g transform="translate(0.000000,375.000000) scale(0.100000,-0.100000)"
fill="#000000" stroke="none">
<path d="M1890 3729 c0 -11 -5 -17 -10 -14 -6 4 -8 11 -5 16 4 5 2 9 -3 9 -4
0 -9 -23 -9 -51 0 -33 2 -47 8 -38 7 11 9 11 9 1 0 -7 -7 -20 -15 -28 -17 -17
-20 -54 -5 -54 6 0 10 12 11 28 l1 27 8 -28 c13 -42 -9 -81 -23 -44 -3 6 -6 3
-6 -9 -1 -13 8 -25 22 -31 21 -10 20 -11 -18 -30 -38 -20 -94 -97 -80 -111 6
-6 4 -8 30 43 11 22 31 45 45 52 22 11 26 10 32 -7 17 -47 25 -10 26 135 2
100 -1 155 -8 155 -5 0 -10 -9 -10 -21z"/>
<path d="M2151 3506 l-1 -250 -36 42 c-46 55 -69 54 -94 0 -11 -24 -19 -50
-19 -58 0 -8 11 9 24 38 13 29 31 52 39 52 25 0 76 -71 76 -107 0 -18 5 -33
10 -33 6 0 10 34 10 83 1 45 3 152 5 237 3 85 1 175 -4 200 -6 32 -9 -29 -10
-204z"/>
<path d="M2338 3648 c-1 -57 -2 -115 -2 -130 -1 -14 -4 -30 -8 -34 -11 -10
-10 -44 1 -44 5 0 11 12 14 28 7 39 9 282 3 282 -3 0 -7 -46 -8 -102z"/>
<path d="M2657 3698 c-3 -29 -6 -150 -7 -268 -1 -118 -3 -231 -5 -250 -1 -19
-6 -336 -10 -705 -4 -368 -9 -673 -11 -676 -2 -4 5 -9 16 -12 20 -5 28 7 11
17 -5 4 -7 47 -4 99 8 138 6 374 -2 388 -5 7 -4 10 2 6 7 -4 11 113 12 346 2
389 8 796 15 985 5 122 -7 169 -17 70z"/>
<path d="M2273 3536 c0 -18 3 -24 9 -18 7 7 7 16 0 28 -8 14 -9 13 -9 -10z"/>
<path d="M1933 3493 c9 -2 25 -2 35 0 9 3 1 5 -18 5 -19 0 -27 -2 -17 -5z"/>
<path d="M1851 3404 c-17 -14 -31 -31 -31 -36 0 -6 8 -4 18 4 29 25 40 29 48
17 4 -8 3 -9 -4 -5 -16 10 -14 -3 3 -34 16 -27 14 -31 21 48 3 40 -13 42 -55
6z"/>
<path d="M2298 3298 c-1 -62 -3 -129 -4 -148 -1 -19 -3 -99 -3 -177 l-1 -143
-35 0 c-44 0 -86 21 -114 56 -16 20 -19 35 -15 64 5 29 2 38 -11 43 -9 4 -13
11 -10 17 9 15 -13 11 -70 -11 -35 -14 -41 -18 -20 -15 44 7 62 -7 30 -22 -14
-7 -24 -16 -21 -21 4 -5 0 -11 -6 -14 -10 -3 -10 -7 1 -20 8 -10 9 -17 3 -17
-6 0 -13 4 -16 9 -4 5 -20 5 -41 -2 -19 -5 -32 -13 -30 -17 2 -4 -7 -5 -22 -2
-19 4 -24 2 -18 -7 5 -9 0 -12 -16 -10 -39 4 -77 -11 -75 -29 2 -9 9 -18 17
-20 11 -3 11 -1 -1 7 -8 6 -13 11 -10 12 3 0 14 2 25 3 11 2 40 9 65 16 25 7
55 12 68 12 31 -2 88 37 105 73 13 25 16 27 22 13 4 -10 5 -24 2 -32 -10 -25
-77 -69 -125 -82 -38 -10 -42 -13 -18 -13 38 -1 132 47 144 73 8 19 10 18 28
-12 21 -37 86 -72 132 -72 l31 0 -5 -217 c-2 -120 -6 -300 -8 -400 -3 -106 -1
-185 5 -188 5 -4 9 43 9 112 0 65 3 249 7 410 l6 292 28 10 c37 13 114 85 151
141 31 46 21 38 -47 -41 -32 -38 -89 -82 -118 -92 -17 -6 -17 8 -11 283 4 160
4 290 1 290 -4 0 -8 -51 -9 -112z"/>
<path d="M1610 3356 c-14 -8 -54 -28 -90 -45 -36 -16 -91 -53 -122 -80 -66
-60 -138 -177 -138 -225 0 -17 -9 -49 -20 -71 -13 -26 -16 -41 -9 -46 6 -3 9
-12 8 -20 -3 -17 5 -40 32 -94 10 -22 19 -46 19 -53 0 -20 -62 -53 -88 -47
-20 5 -22 3 -16 -22 8 -34 88 -117 106 -110 8 3 6 6 -5 6 -24 1 -16 25 9 29
16 3 17 1 4 -7 -12 -9 -10 -11 9 -9 20 3 27 -3 34 -29 5 -17 15 -34 22 -37 8
-3 7 8 -5 32 -12 25 -15 42 -9 54 12 23 12 25 -8 32 -10 4 -14 4 -11 0 4 -3 1
-12 -5 -19 -10 -11 -16 -11 -32 -1 -11 6 -27 12 -35 11 -16 -1 -30 13 -30 30
0 6 16 17 35 24 19 6 34 15 34 19 -3 19 2 33 9 28 5 -3 9 0 9 7 0 7 3 23 7 36
5 15 4 21 -2 17 -15 -9 -35 21 -28 41 4 10 4 14 0 10 -17 -17 -33 30 -28 88 7
96 13 121 34 140 11 10 20 24 20 32 0 8 5 11 12 7 7 -4 8 -3 4 5 -10 16 39 91
59 91 8 0 15 6 15 14 0 7 8 16 18 20 9 3 33 12 52 20 31 13 32 15 11 15 -38 1
-15 17 84 57 76 31 95 35 138 30 27 -4 59 -14 71 -22 13 -8 26 -11 29 -7 4 3
7 -1 7 -10 0 -9 -3 -16 -7 -16 -5 1 -24 0 -43 -1 -27 -2 -19 -5 30 -12 45 -6
66 -6 68 2 3 7 9 7 20 -2 10 -8 13 -9 9 -1 -4 6 -3 14 3 18 17 11 11 23 -12
23 -26 -1 -130 36 -123 43 2 3 -6 6 -18 7 -12 1 -42 5 -67 7 -30 4 -54 0 -70
-9z"/>
<path d="M1663 3304 c12 -12 117 -17 117 -5 0 7 -23 11 -62 11 -34 0 -59 -3
-55 -6z"/>
<path d="M1860 3244 c0 -5 32 -24 70 -42 74 -34 88 -47 43 -36 -27 6 -27 6 -8
-9 11 -9 26 -17 33 -17 6 0 12 -11 12 -25 0 -19 5 -25 23 -26 12 0 16 -3 10
-6 -24 -9 -14 -33 15 -33 21 0 24 -2 12 -10 -12 -7 -8 -10 15 -10 21 0 26 3
16 9 -10 6 -10 10 -1 16 8 5 5 11 -10 19 -12 6 -34 36 -48 66 -22 44 -36 59
-72 77 -51 26 -110 40 -110 27z"/>
<path d="M2085 3171 c3 -5 1 -12 -5 -16 -5 -3 -10 -14 -9 -23 0 -11 2 -12 6
-4 2 6 8 10 12 8 4 -3 13 -1 21 5 10 6 11 9 3 9 -7 0 -13 7 -13 15 0 8 -5 15
-11 15 -5 0 -8 -4 -4 -9z"/>
<path d="M2136 3165 c-3 -9 0 -15 9 -15 8 0 15 7 15 15 0 8 -4 15 -9 15 -5 0
-11 -7 -15 -15z"/>
<path d="M1253 3101 c-14 -35 -17 -38 -30 -25 -8 8 -20 14 -26 14 -7 -1 -5 -6
4 -13 22 -17 12 -38 -14 -32 -25 7 -107 -42 -107 -62 0 -8 8 -5 20 7 27 27 85
27 100 1 5 -11 10 -29 10 -41 0 -13 5 -20 13 -17 7 2 12 23 12 53 0 27 2 51 5
54 8 8 38 100 33 100 -3 0 -12 -18 -20 -39z"/>
<path d="M2143 3123 c-4 -10 -10 -21 -15 -24 -12 -8 6 -52 35 -83 28 -30 32
-10 5 21 -23 27 -32 63 -16 63 8 0 20 -6 28 -12 8 -7 5 -1 -8 13 -12 14 -19
29 -15 32 3 4 3 7 -1 7 -3 0 -10 -8 -13 -17z"/>
<path d="M1123 2984 c-7 -3 -13 -17 -13 -31 0 -13 3 -23 8 -21 50 25 62 33 59
42 -4 12 -35 18 -54 10z"/>
<path d="M1058 2908 c-10 -10 -18 -23 -18 -29 0 -6 -7 -17 -15 -26 -11 -11
-15 -30 -13 -65 3 -50 4 -51 48 -68 25 -9 58 -20 74 -24 26 -6 28 -5 17 8 -8
9 -24 16 -38 16 -13 0 -37 7 -52 15 -16 8 -30 13 -32 10 -2 -2 -5 16 -7 40 -3
43 1 51 41 78 12 8 17 22 15 38 -3 23 -4 24 -20 7z"/>
<path d="M1141 2916 c-7 -8 -14 -26 -15 -40 l-3 -25 31 26 c17 14 31 31 31 37
0 17 -31 18 -44 2z"/>
<path d="M1151 2845 c-17 -15 -31 -31 -31 -37 0 -10 41 -1 50 12 3 3 13 10 23
13 19 7 19 28 0 34 -6 2 -25 -8 -42 -22z"/>
<path d="M1740 2841 c0 -4 11 -6 25 -3 14 2 25 6 25 8 0 2 -11 4 -25 4 -14 0
-25 -4 -25 -9z"/>
<path d="M2068 2780 l4 -40 -43 -1 -44 -1 40 -8 c22 -4 43 -6 48 -3 9 6 9 93
-1 93 -4 0 -6 -18 -4 -40z"/>
<path d="M1167 2797 c-33 -13 -30 -31 7 -35 30 -4 56 12 56 34 0 16 -23 16
-63 1z"/>
<path d="M1530 2796 c0 -8 -19 -18 -44 -25 -49 -12 -65 -28 -82 -78 -11 -32
-10 -40 11 -73 28 -44 41 -55 50 -40 3 5 -1 10 -9 10 -17 0 -28 15 -32 44 -1
12 -3 26 -4 31 -7 32 3 35 17 5 18 -38 53 -87 53 -75 0 4 -9 22 -19 39 -10 17
-22 49 -25 71 -7 40 -7 40 33 53 23 6 48 12 56 12 10 0 13 5 9 12 -4 7 -3 8 4
4 7 -4 20 -2 29 3 10 6 14 11 8 11 -5 1 -20 3 -32 6 -15 2 -23 -1 -23 -10z"/>
<path d="M2140 2535 c0 -154 -3 -303 -6 -332 l-7 -52 -31 24 c-81 62 -188 85
-201 44 -11 -35 4 -88 50 -173 24 -45 49 -106 56 -136 6 -30 16 -59 22 -65 7
-7 8 -5 4 7 -3 9 -9 44 -13 77 -3 34 -11 61 -16 61 -5 0 -7 4 -3 9 3 5 -1 15
-8 23 -31 32 -85 174 -71 188 12 11 115 -10 108 -22 -3 -5 2 -8 12 -6 11 2 18
-2 17 -8 -1 -7 10 -14 25 -17 15 -3 38 -15 51 -26 13 -12 29 -21 35 -22 6 0 2
-5 -9 -10 -19 -9 -19 -9 2 -5 12 2 24 -2 27 -9 3 -8 15 -19 28 -25 13 -6 0 11
-29 38 -40 38 -49 52 -40 61 14 14 20 621 6 643 -5 7 -9 -108 -9 -267z"/>
<path d="M1701 2793 c-19 -4 -21 -7 -10 -15 11 -7 9 -9 -7 -5 -12 2 -27 1 -34
-3 -7 -4 -26 -4 -41 0 -37 11 -38 -5 -2 -24 25 -12 32 -12 58 1 65 34 80 40
92 36 6 -2 14 1 18 6 6 11 -27 13 -74 4z"/>
<path d="M1788 2783 c-37 -45 4 -73 104 -73 37 0 78 -5 92 -11 31 -14 65 -4
47 14 -7 7 -43 11 -101 9 -126 -3 -168 18 -124 62 8 9 11 16 6 16 -5 0 -16 -8
-24 -17z"/>
<path d="M1157 2733 c10 -7 24 -18 32 -24 17 -15 65 0 69 22 2 14 -7 16 -58
15 -50 -1 -57 -3 -43 -13z"/>
<path d="M1533 2738 c-13 -6 -23 -15 -23 -20 0 -10 36 7 45 22 7 12 7 12 -22
-2z"/>
<path d="M1550 2700 c0 -19 3 -21 12 -12 9 9 9 15 0 24 -9 9 -12 7 -12 -12z"/>
<path d="M1633 2713 c-17 -6 54 -79 90 -92 16 -6 49 -10 75 -10 l47 2 -50 7
c-72 10 -100 24 -125 64 -12 20 -22 36 -23 35 -1 0 -7 -3 -14 -6z"/>
<path d="M1490 2680 c0 -6 11 -15 25 -20 14 -5 25 -14 25 -20 0 -6 4 -8 10 -5
14 9 -11 44 -27 38 -7 -3 -13 0 -13 6 0 6 -4 11 -10 11 -5 0 -10 -5 -10 -10z"/>
<path d="M1980 2683 c0 -6 -14 -16 -31 -23 -24 -10 -36 -11 -50 -2 -23 15 -59
16 -59 2 0 -5 8 -10 19 -10 10 0 24 -7 31 -15 17 -21 70 -20 70 1 0 9 8 23 17
30 10 7 15 16 10 20 -4 4 -7 3 -7 -3z"/>
<path d="M2008 2633 c-3 -21 -2 -40 2 -43 4 -3 11 -19 14 -36 9 -40 -10 -56
-53 -48 -33 7 -41 30 -18 53 10 10 9 11 -5 6 -22 -8 -33 -44 -20 -57 8 -8 7
-19 -3 -38 -17 -33 -36 -41 -73 -34 -20 4 -33 0 -46 -15 -11 -12 -14 -21 -9
-21 6 0 16 6 22 14 10 12 51 12 51 0 0 -10 -36 -44 -47 -44 -7 0 -13 -7 -13
-15 0 -22 31 -18 37 5 3 10 15 22 26 26 27 9 72 54 81 81 5 16 14 20 46 19 59
-1 63 9 41 98 -11 43 -22 80 -24 82 -3 3 -7 -12 -9 -33z"/>
<path d="M1560 2605 c0 -14 4 -25 9 -25 5 0 9 11 9 25 0 14 -4 25 -9 25 -5 0
-9 -11 -9 -25z"/>
<path d="M1241 2518 c0 -9 -12 -29 -26 -44 -14 -15 -25 -29 -25 -31 0 -11 64
-153 67 -149 2 2 -7 31 -21 65 -31 73 -32 95 -5 114 14 10 19 23 16 39 -2 13
-5 16 -6 6z"/>
<path d="M1550 2486 c0 -2 17 -16 38 -31 l37 -28 -29 31 c-26 28 -46 40 -46
28z"/>
<path d="M1390 2473 c0 -4 5 -15 10 -23 7 -11 12 -12 21 -3 8 8 6 14 -10 22
-12 7 -21 8 -21 4z"/>
<path d="M2840 2363 c0 -16 28 -29 38 -18 4 4 1 10 -6 12 -6 3 -10 8 -8 12 3
4 -1 8 -9 8 -8 0 -15 -6 -15 -14z"/>
<path d="M1867 2363 c-4 -3 -7 -15 -7 -26 0 -10 -9 -21 -20 -24 -28 -7 -25
-17 10 -30 l30 -11 0 49 c0 50 -1 54 -13 42z"/>
<path d="M1619 2351 c13 -8 13 -12 0 -28 -13 -16 -13 -17 4 -4 21 16 22 3 2
-26 -19 -27 -97 -73 -124 -73 -25 0 -28 26 -6 58 15 20 15 21 -1 15 -16 -6
-56 -82 -49 -93 5 -8 78 -5 145 4 68 10 112 15 141 15 20 1 28 8 36 36 13 42
0 47 -16 6 -11 -26 -15 -28 -51 -21 -21 4 -45 3 -53 -2 -10 -5 -18 -4 -22 2
-5 8 -12 7 -23 -2 -9 -7 -2 5 16 27 41 53 46 89 12 93 -19 2 -21 0 -11 -7z"/>
<path d="M773 2330 c-23 -10 -42 -27 -46 -39 l-5 -21 29 21 c18 13 54 23 97
28 l69 7 43 -38 c24 -22 49 -37 56 -34 8 3 16 1 18 -3 4 -7 86 -20 161 -26 6
0 15 -4 21 -7 15 -10 221 -22 212 -13 -8 9 -34 13 -80 14 -36 1 -43 5 -74 46
-14 19 -15 19 -4 -3 7 -13 9 -26 6 -30 -4 -3 -33 -1 -64 6 -32 7 -73 12 -92
12 -66 0 -175 46 -175 75 0 25 -119 29 -172 5z"/>
<path d="M2762 2280 c0 -19 2 -27 5 -17 2 9 2 25 0 35 -3 9 -5 1 -5 -18z"/>
<path d="M2863 2260 c0 -25 2 -35 4 -22 2 12 2 32 0 45 -2 12 -4 2 -4 -23z"/>
<path d="M680 2270 c0 -19 3 -21 12 -12 9 9 9 15 0 24 -9 9 -12 7 -12 -12z"/>
<path d="M780 2274 c0 -3 13 -10 29 -15 21 -8 33 -22 47 -57 15 -41 16 -56 5
-132 -6 -47 -14 -103 -16 -125 -3 -22 -7 -48 -9 -57 -2 -10 -1 -20 4 -23 4 -2
15 37 25 88 32 162 25 243 -25 297 -24 26 -60 41 -60 24z"/>
<path d="M1316 2180 c13 -26 57 -84 85 -111 30 -29 54 -24 81 19 9 15 27 43
39 62 18 29 19 31 3 15 -11 -11 -30 -37 -42 -57 -16 -25 -29 -36 -44 -35 -21
1 -64 39 -106 93 -13 16 -20 22 -16 14z"/>
<path d="M1024 2069 c-3 -5 1 -16 9 -24 13 -12 17 -12 26 -1 12 14 19 13 91
-12 8 -3 24 -7 35 -8 11 -2 34 -5 50 -8 91 -14 122 -18 145 -18 14 0 33 -4 42
-9 21 -11 23 -1 5 22 -7 8 -25 15 -42 14 -16 -1 -40 2 -52 7 -13 4 -23 3 -23
-2 0 -5 -16 -2 -35 6 -22 9 -35 10 -35 4 0 -7 -8 -7 -22 1 -13 7 -32 14 -43
15 -11 2 -33 6 -50 9 -52 11 -95 13 -101 4z"/>
<path d="M1695 2051 c-3 -3 -13 -6 -21 -7 -9 -1 -23 -6 -32 -9 -9 -4 -42 -9
-72 -10 -77 -3 -77 -3 -83 -19 -5 -12 4 -14 46 -10 70 7 89 10 110 19 9 4 23
5 31 2 7 -3 18 -1 24 5 6 6 32 11 59 13 26 1 48 6 48 11 0 9 -101 14 -110 5z"/>
<path d="M1053 1992 c-35 -4 -59 -25 -47 -43 5 -8 9 -7 15 4 5 8 17 14 27 12
9 -2 17 -4 17 -5 0 -1 20 -3 45 -5 25 -2 59 -6 75 -9 56 -11 120 -17 153 -16
17 0 32 -3 32 -7 0 -10 199 -8 223 2 9 4 24 5 32 2 8 -4 17 -2 20 3 4 6 16 10
29 10 12 0 26 3 30 8 4 4 16 8 27 8 10 1 20 3 22 4 1 1 14 3 30 4 15 2 30 6
34 9 3 4 12 2 20 -4 10 -9 13 -8 13 5 0 19 -59 22 -130 5 -25 -6 -52 -12 -60
-14 -8 -2 -15 -4 -15 -5 0 -1 -13 -3 -30 -5 -16 -1 -30 -4 -30 -5 0 -2 -44 -8
-80 -11 -5 0 -44 3 -85 6 -41 3 -82 6 -90 6 -8 1 -22 3 -30 6 -8 3 -28 7 -45
8 -16 1 -48 5 -70 9 -22 4 -49 8 -61 10 -11 2 -25 5 -30 7 -5 3 -23 3 -41 1z"/>
<path d="M2315 1943 c3 -6 -1 -14 -7 -16 -8 -3 -6 -6 5 -6 10 -1 15 -5 12 -11
-3 -5 -3 -10 2 -10 4 0 28 -32 53 -70 24 -38 48 -66 52 -64 4 3 8 1 8 -5 0
-11 73 -91 84 -91 4 0 -21 32 -56 70 -35 39 -79 95 -98 125 -44 68 -62 93 -55
78z"/>
<path d="M1906 1933 c-4 -4 -21 -9 -39 -10 -52 -4 -82 -9 -92 -14 -6 -3 -20
-4 -32 -3 -13 0 -23 -3 -23 -8 0 -4 -11 -6 -25 -4 -14 3 -25 1 -25 -4 0 -5
-12 -9 -27 -10 -82 -3 -103 -5 -103 -10 0 -3 -24 -4 -52 -3 -96 5 -173 10
-175 13 -2 1 -29 3 -60 4 -32 1 -62 4 -68 7 -5 4 -21 5 -35 4 -14 -1 -28 3
-32 9 -5 8 -8 7 -8 -2 0 -7 -5 -10 -10 -7 -23 14 -103 14 -123 0 -15 -11 -17
-15 -7 -16 8 0 33 -3 55 -5 22 -2 68 -4 103 -4 34 0 62 -4 62 -8 0 -4 25 -6
56 -5 32 2 62 -1 68 -5 6 -5 76 -7 156 -5 197 4 200 5 200 14 0 5 11 9 24 9
14 0 36 4 50 10 19 7 26 6 26 -3 0 -8 3 -8 9 2 5 8 18 12 29 8 12 -2 22 -1 24
3 2 5 14 10 28 12 25 3 84 38 64 38 -6 0 -14 -3 -18 -7z"/>
<path d="M2933 1903 c15 -2 37 -2 50 0 12 2 0 4 -28 4 -27 0 -38 -2 -22 -4z"/>
<path d="M781 1851 c-12 -16 -25 -56 -29 -89 -6 -40 -17 -70 -33 -90 -13 -16
-31 -39 -39 -52 -8 -12 -23 -33 -32 -45 -10 -13 -18 -28 -18 -35 0 -6 -4 -8
-10 -5 -5 3 -10 -1 -10 -10 0 -25 -73 -146 -193 -316 -30 -43 -47 -50 -47 -19
0 11 -4 20 -10 20 -18 0 -10 -57 11 -84 12 -15 24 -24 27 -21 4 3 1 10 -6 14
-13 8 -2 27 246 402 50 78 92 145 92 150 0 17 19 9 25 -11 7 -20 39 -27 50
-11 3 6 7 27 9 49 2 22 7 45 11 52 5 9 4 11 -3 6 -15 -9 -25 33 -20 84 2 22 3
40 1 40 -1 0 -11 -13 -22 -29z"/>
<path d="M2061 1859 c0 -15 -10 -38 -21 -52 -11 -14 -20 -33 -20 -43 0 -9 77
-94 171 -188 94 -94 214 -216 265 -272 l94 -101 -50 -114 c-51 -115 -77 -159
-157 -257 -52 -65 -57 -93 -6 -37 93 103 103 115 96 115 -4 0 -3 4 3 8 9 6
104 179 104 189 0 2 -5 1 -11 -3 -6 -3 -4 4 5 17 14 23 39 116 39 149 0 8 5
18 11 22 6 4 1 6 -12 5 -16 -1 -22 -8 -22 -24 0 -13 -2 -23 -4 -23 -5 0 -77
74 -167 173 -30 32 -80 84 -111 115 -32 30 -58 62 -58 69 0 8 -4 12 -9 9 -25
-16 -134 155 -121 189 4 11 4 25 0 30 -4 6 -10 19 -13 30 -4 16 -5 15 -6 -6z"/>
<path d="M2897 1853 c18 -2 50 -2 70 0 21 2 7 4 -32 4 -38 0 -55 -2 -38 -4z"/>
<path d="M1860 1840 c0 -3 -17 -5 -38 -5 -20 0 -58 -5 -84 -12 -95 -24 -239
-30 -438 -19 -58 4 -114 8 -125 10 -11 2 -28 -1 -37 -6 -10 -5 -18 -5 -18 -1
0 4 -38 9 -85 10 -76 2 -85 0 -85 -16 0 -14 6 -17 25 -13 16 3 25 0 25 -9 0
-10 3 -10 11 -2 8 8 20 8 35 3 13 -5 26 -5 29 -1 6 10 24 9 42 -2 6 -4 14 -3
17 2 3 5 27 7 53 4 27 -2 102 -6 168 -8 66 -2 122 -4 125 -5 3 -1 10 -1 15 0
6 2 38 4 72 5 34 2 65 5 70 8 4 2 20 3 35 1 15 -1 30 1 33 6 3 5 16 7 30 4 13
-2 26 -1 28 3 3 5 39 8 81 8 42 0 76 4 76 9 0 4 7 6 15 2 16 -6 19 3 7 19 -7
10 -82 15 -82 5z"/>
<path d="M2670 1790 c0 -6 17 -10 37 -10 43 0 41 5 -4 13 -19 4 -33 2 -33 -3z"/>
<path d="M2793 1783 c26 -2 68 -2 95 0 26 2 4 3 -48 3 -52 0 -74 -1 -47 -3z"/>
<path d="M1857 1754 c-2 -2 -39 -6 -83 -10 -43 -3 -101 -7 -129 -10 -27 -3
-154 -7 -280 -8 -127 -1 -236 -5 -242 -9 -6 -4 -14 -3 -17 2 -7 10 -25 9 -43
-2 -6 -4 -17 -5 -25 -2 -30 11 -118 13 -124 4 -13 -22 17 -31 107 -30 187 3
555 12 599 16 25 2 91 6 147 9 56 2 111 7 123 11 11 4 20 2 20 -4 0 -6 15 -8
36 -5 44 5 55 11 48 27 -5 13 -84 17 -84 4 0 -5 -6 -5 -12 0 -15 9 -35 13 -41
7z"/>
<path d="M2678 1723 c12 -2 30 -2 40 0 9 3 -1 5 -23 4 -22 0 -30 -2 -17 -4z"/>
<path d="M1755 1661 c-4 -3 -106 -8 -306 -14 -52 -2 -101 -7 -107 -11 -7 -4
-12 -3 -12 2 0 10 -54 7 -71 -3 -5 -4 -9 -2 -9 4 0 6 -11 7 -27 2 -16 -4 -51
-7 -80 -7 -28 1 -49 -2 -47 -5 2 -3 -40 -5 -92 -4 -65 1 -98 5 -103 14 -7 10
-9 10 -14 -2 -16 -42 46 -48 303 -33 173 11 614 29 738 30 50 0 92 4 92 8 0 5
0 11 0 15 0 7 -258 11 -265 4z"/>
<path d="M761 1609 c-1 -9 -4 -31 -8 -49 -4 -22 -3 -31 4 -27 6 4 14 -5 18
-20 3 -15 15 -33 25 -40 27 -19 286 -31 393 -18 93 10 455 27 643 28 111 2
155 6 167 16 24 20 21 34 -5 20 -25 -13 -264 -19 -290 -7 -9 5 -19 4 -22 -1
-3 -5 -47 -9 -98 -10 -127 -3 -225 -8 -332 -18 -86 -8 -306 -9 -371 -3 -16 2
-38 0 -47 -4 -12 -6 -21 0 -32 23 -9 16 -16 38 -16 48 -1 24 -28 83 -29 62z"/>
<path d="M2106 1438 c-13 -366 -18 -723 -10 -715 10 10 10 17 18 293 4 126 9
311 12 412 4 114 2 182 -4 182 -6 0 -12 -72 -16 -172z"/>
<path d="M2010 1590 c-8 -6 -94 -10 -190 -10 -171 0 -363 -6 -427 -14 -18 -2
-30 0 -28 5 3 4 1 11 -5 14 -6 4 -9 1 -8 -6 2 -8 -8 -14 -27 -15 -16 -1 -75
-6 -130 -10 -55 -4 -148 -8 -208 -8 -78 -1 -107 -4 -107 -13 0 -7 8 -13 18
-14 50 -2 251 3 277 6 17 3 84 7 150 10 66 3 152 7 190 11 39 3 163 6 277 7
181 2 209 4 225 19 19 20 15 32 -7 18z"/>
<path d="M2223 1464 c-7 -18 4 -276 14 -319 l6 -30 8 30 c5 18 4 32 -2 36 -5
3 -10 26 -9 50 3 90 -1 249 -6 249 -2 0 -7 -7 -11 -16z"/>
<path d="M1980 1451 c-8 -5 -107 -12 -220 -15 -113 -4 -223 -8 -245 -11 -79
-7 -224 -7 -236 0 -8 5 -10 4 -5 -3 8 -13 -78 -16 -316 -12 -86 1 -128 -2
-128 -9 0 -12 69 -15 250 -14 119 1 450 13 525 18 28 2 118 7 200 11 150 7
195 15 195 34 0 12 -1 12 -20 1z"/>
<path d="M2299 1408 c-1 -13 -3 -34 -5 -48 -5 -44 -6 -134 -1 -155 2 -11 0
-25 -4 -31 -6 -7 -6 -21 -1 -35 8 -21 10 -18 15 21 8 54 9 270 2 270 -3 0 -6
-10 -6 -22z"/>
<path d="M1946 1390 c-15 -5 -74 -12 -130 -15 -55 -3 -128 -8 -161 -11 -151
-13 -583 -28 -742 -25 -69 1 -73 2 -73 24 0 17 -2 19 -10 7 -5 -8 -5 -19 -1
-25 5 -5 9 -22 10 -37 1 -28 1 -35 1 -95 0 -19 -6 -33 -13 -33 -8 0 -8 -3 2
-9 8 -5 11 -16 7 -29 -5 -14 -1 -21 15 -25 13 -4 18 -10 14 -17 -6 -9 -9 -9
-15 0 -4 6 -7 -2 -8 -19 0 -24 4 -31 19 -31 14 0 19 7 19 26 0 25 0 26 63 19
77 -8 380 -9 462 -1 33 3 103 8 155 11 151 8 286 20 340 30 8 1 34 6 57 10 39
6 61 20 51 31 -3 2 -27 0 -54 -5 -27 -5 -76 -12 -109 -16 -33 -3 -76 -8 -95
-11 -33 -4 -132 -10 -310 -19 -41 -2 -75 -4 -75 -5 0 -8 -242 -7 -256 0 -10 6
-20 6 -23 1 -5 -8 -186 -5 -213 4 -7 3 -13 13 -13 24 0 19 7 20 213 19 190 -1
265 2 497 16 303 20 430 38 430 61 0 10 -7 11 -30 5 -29 -8 -98 -16 -220 -25
-30 -2 -84 -7 -120 -10 -173 -18 -737 -27 -763 -14 -10 6 -17 18 -15 27 3 15
29 17 258 19 268 2 585 14 585 23 0 1 29 3 65 5 36 2 65 4 65 5 0 1 16 3 35 5
19 2 49 6 65 9 17 2 38 5 48 5 9 1 17 8 17 16 0 18 3 17 -57 5 -26 -5 -84 -12
-128 -15 -44 -4 -98 -9 -120 -11 -130 -12 -416 -26 -550 -25 -296 0 -285 -1
-285 24 0 23 0 23 158 23 168 0 521 11 587 19 22 2 83 7 135 10 52 3 106 8
120 10 14 2 49 6 78 10 35 5 52 11 52 21 0 8 -1 14 -2 13 -2 0 -16 -5 -32 -9z"/>
<path d="M2790 1358 c0 -5 21 -8 48 -9 26 0 73 -1 105 -3 31 -2 57 0 57 5 0 4
-47 9 -105 11 -58 2 -105 0 -105 -4z"/>
<path d="M108 1303 c-6 -16 -12 -34 -14 -42 -2 -8 -6 -26 -10 -40 -4 -14 -7
-29 -6 -33 1 -4 -3 -19 -8 -33 -5 -14 -6 -25 -1 -25 4 0 13 26 20 58 7 31 21
76 31 100 11 23 15 42 9 42 -5 0 -15 -12 -21 -27z"/>
<path d="M2825 1243 c17 -40 17 -71 -2 -90 -10 -11 -38 -48 -62 -82 -25 -34
-54 -72 -65 -85 -12 -13 -30 -36 -41 -52 -36 -52 -104 -116 -115 -109 -6 4
-17 -8 -25 -27 -8 -18 -14 -29 -15 -23 0 5 -17 -8 -38 -28 -21 -21 -42 -34
-47 -30 -4 5 -5 3 -2 -3 4 -6 -3 -22 -14 -35 -12 -13 -31 -35 -43 -49 -30 -36
-126 -98 -158 -102 -15 -2 -30 -7 -34 -11 -4 -4 -16 -7 -26 -7 -10 0 -18 -4
-18 -10 0 -6 -31 -10 -74 -10 -59 0 -75 -3 -80 -16 -5 -13 -2 -15 16 -9 13 3
34 9 48 12 l25 5 -25 -22 -25 -21 33 16 c41 20 47 16 31 -19 -16 -33 -64 -35
-127 -5 -42 21 -87 74 -76 91 3 4 38 23 79 43 40 19 76 39 80 44 7 13 -82 -17
-120 -41 -43 -25 -76 -39 -107 -43 -22 -3 -26 0 -23 21 4 37 21 52 117 96 48
23 86 43 84 46 -3 2 -33 -5 -68 -17 -35 -11 -118 -25 -185 -32 -106 -10 -123
-14 -123 -29 0 -27 -31 -34 -37 -9 -5 19 -10 20 -97 13 -50 -5 -129 -8 -175
-8 -76 -1 -85 1 -98 22 -9 12 -20 22 -26 22 -5 0 -16 8 -23 17 -7 10 -15 15
-19 11 -7 -6 72 -88 80 -85 3 1 13 -6 24 -15 12 -10 21 -13 23 -6 5 14 58 -19
58 -36 0 -20 -22 -36 -50 -36 -35 0 -87 33 -138 88 l-44 47 23 -40 c40 -70 44
-75 56 -75 16 0 16 -5 -1 -38 -34 -66 -187 -138 -236 -112 -10 6 -43 35 -73
65 l-54 55 -7 -62 c-3 -35 -9 -94 -12 -133 -4 -42 -12 -75 -20 -81 -16 -13
-18 -42 -5 -63 5 -7 5 -28 1 -45 -18 -69 -19 -106 -5 -106 17 0 24 37 28 138
2 41 8 77 13 80 10 7 14 31 14 90 -1 22 4 32 15 32 13 0 14 4 5 21 -14 25 -9
41 13 45 13 2 15 -2 7 -16 -11 -20 -4 -31 15 -24 7 3 24 -2 37 -10 14 -9 45
-19 71 -22 40 -6 50 -4 66 14 10 12 21 19 24 16 9 -10 81 42 121 89 33 38 43
44 62 37 12 -5 25 -6 28 -3 3 4 6 1 6 -5 0 -8 -11 -9 -32 -5 -22 4 -29 3 -24
-5 9 -15 41 -15 67 -1 28 14 59 47 59 60 0 8 17 10 50 7 27 -3 47 -1 44 4 -3
4 -24 8 -47 8 -74 0 -77 18 -4 22 87 4 110 -2 117 -32 11 -45 28 -34 23 15 -4
30 -2 45 6 45 6 0 11 -8 11 -18 0 -10 2 -21 5 -24 11 -11 85 14 85 28 0 8 8
14 18 15 98 6 99 5 94 -13 -5 -21 19 -108 30 -108 4 0 8 8 8 18 0 14 2 14 9 3
5 -8 16 -11 25 -8 8 3 18 2 21 -4 4 -5 11 -6 17 -3 7 5 9 1 5 -9 -9 -23 61
-80 121 -100 44 -14 49 -14 80 4 42 24 43 24 32 -7 -9 -24 -5 -65 9 -89 3 -5
7 -17 8 -25 4 -19 22 -201 21 -209 -3 -31 4 -51 19 -51 14 0 15 13 9 124 -3
69 -13 146 -21 173 -8 26 -17 69 -20 95 -4 27 -11 48 -16 48 -6 0 -9 5 -7 12
2 6 31 19 64 28 32 10 66 20 74 24 13 5 15 -25 12 -249 -3 -181 -1 -255 7
-255 8 0 11 71 12 233 2 270 2 280 19 285 7 3 36 30 64 60 28 30 106 110 173
176 120 120 318 368 329 413 8 30 -4 93 -18 93 -6 0 -7 -7 -3 -17z"/>
<path d="M580 1215 c0 -8 5 -15 10 -15 6 0 10 7 10 15 0 8 -4 15 -10 15 -5 0
-10 -7 -10 -15z"/>
<path d="M1978 1104 c-3 -3 -46 -12 -94 -20 -82 -13 -129 -18 -319 -29 -38 -2
-124 -7 -190 -11 -150 -9 -273 -9 -395 0 -52 3 -99 3 -105 -1 -12 -10 -16 -53
-4 -53 5 0 9 -6 9 -14 0 -14 14 -18 115 -33 104 -16 619 -1 760 22 17 2 53 7
80 10 79 9 143 26 156 41 14 17 2 18 -36 4 -14 -5 -51 -12 -83 -16 -31 -3 -68
-7 -82 -10 -14 -3 -54 -7 -90 -9 -36 -2 -101 -6 -145 -9 -69 -5 -362 -18 -390
-18 -52 0 -217 14 -245 20 -26 6 -36 14 -38 31 -4 22 -2 23 45 16 133 -20 275
-20 588 0 33 2 100 6 150 9 49 3 101 8 115 10 14 3 48 8 75 11 74 8 148 28
153 43 4 12 -19 17 -30 6z"/>
<path d="M2257 1043 c-4 -38 -7 -124 -7 -193 0 -140 -4 -149 -59 -151 -26 -1
-29 -3 -12 -6 38 -8 68 5 79 34 12 29 22 383 11 383 -3 0 -9 -30 -12 -67z"/>
<path d="M60 1009 c0 -5 -4 -7 -10 -4 -5 3 -10 1 -10 -4 0 -6 7 -11 15 -11 8
0 15 7 15 15 0 8 -2 15 -5 15 -3 0 -5 -5 -5 -11z"/>
<path d="M2000 978 c0 -14 -42 -34 -62 -30 -4 1 -18 -2 -31 -7 -13 -5 -50 -12
-83 -15 -32 -3 -70 -8 -84 -11 -108 -22 -651 -38 -730 -22 -19 4 -48 10 -65
13 -16 4 -39 8 -51 8 -15 1 -19 6 -16 19 2 9 -1 17 -7 17 -6 0 -11 -8 -11 -19
0 -19 22 -43 36 -40 5 1 16 -1 24 -4 41 -18 179 -32 300 -30 74 1 135 2 135 3
0 1 34 3 75 5 41 2 75 4 75 4 0 1 36 4 80 6 195 12 254 19 349 43 72 19 101
41 78 64 -9 9 -12 9 -12 -4z"/>
<path d="M50 953 c1 -18 18 -35 24 -24 4 6 2 11 -4 11 -6 0 -8 5 -5 10 3 6 1
10 -4 10 -6 0 -11 -3 -11 -7z"/>
<path d="M125 939 c-4 -5 -1 -8 7 -7 7 2 14 -8 16 -21 2 -13 7 -19 10 -14 7
11 113 -61 137 -91 6 -7 20 -16 32 -20 13 -4 29 -13 35 -20 7 -7 54 -36 103
-66 102 -61 177 -108 250 -155 28 -19 61 -36 75 -40 24 -6 24 -5 6 9 -11 9
-27 16 -36 16 -9 0 -27 12 -41 26 -13 14 -45 37 -71 52 -26 14 -44 30 -42 34
3 4 -1 8 -9 8 -22 0 -122 56 -222 124 -49 33 -92 63 -95 66 -25 27 -151 107
-155 99z"/>
<path d="M750 921 c0 -16 28 -20 40 -5 10 12 8 14 -14 14 -14 0 -26 -4 -26 -9z"/>
<path d="M2030 902 c0 -9 -59 -32 -93 -37 -12 -2 -31 -6 -42 -8 -56 -13 -267
-35 -408 -42 -60 -3 -68 -1 -63 13 5 15 4 15 -7 2 -6 -8 -18 -16 -25 -18 -31
-6 -108 -6 -119 1 -6 4 -14 3 -18 -2 -13 -22 -307 7 -391 40 -22 8 -25 6 -22
-8 3 -19 63 -38 148 -48 25 -3 56 -8 70 -11 46 -12 359 -6 530 11 30 3 80 7
110 10 70 5 165 19 198 29 9 3 35 7 57 11 41 5 85 31 93 53 2 7 -1 12 -7 12
-6 0 -11 -4 -11 -8z"/>
<path d="M2738 865 c-2 -19 0 -35 4 -35 4 0 8 16 8 35 0 19 -2 35 -4 35 -2 0
-6 -16 -8 -35z"/>
<path d="M610 874 c0 -9 47 -52 72 -65 12 -6 2 7 -21 30 -41 40 -51 47 -51 35z"/>
<path d="M2616 823 c-3 -3 -6 -46 -6 -95 0 -85 -1 -90 -30 -118 -16 -16 -30
-34 -30 -40 0 -6 15 4 33 23 l32 35 195 -3 c126 -2 181 0 155 5 -22 5 -98 9
-170 10 -176 1 -177 1 -170 59 11 94 12 122 5 126 -4 2 -10 2 -14 -2z"/>
<path d="M710 796 c0 -2 23 -17 50 -34 45 -28 56 -29 48 -5 -2 5 -9 7 -15 5
-7 -2 -13 1 -13 6 0 5 -10 13 -22 17 -33 10 -48 14 -48 11z"/>
<path d="M1331 765 c2 -5 -2 -21 -9 -35 -12 -22 -11 -23 1 -8 8 10 17 15 20
12 3 -3 4 1 3 10 -1 8 -6 19 -10 23 -4 4 -6 4 -5 -2z"/>
<path d="M860 746 c0 -8 -5 -18 -12 -22 -7 -5 -8 -2 -3 7 7 12 5 12 -6 1 -12
-11 -12 -14 1 -22 24 -16 30 -12 30 20 0 17 -2 30 -5 30 -3 0 -5 -6 -5 -14z"/>
<path d="M2808 753 c12 -2 30 -2 40 0 9 3 -1 5 -23 4 -22 0 -30 -2 -17 -4z"/>
<path d="M2056 725 c-3 -8 -12 -15 -20 -15 -8 0 -17 -4 -20 -8 -2 -4 11 -6 30
-4 25 3 34 9 34 23 0 23 -15 25 -24 4z"/>
<path d="M880 723 c0 -5 11 -20 26 -34 16 -15 23 -18 19 -7 -4 9 -2 19 4 23
16 9 13 22 -4 22 -8 0 -15 -5 -15 -10 0 -5 -7 -4 -15 3 -8 7 -15 8 -15 3z"/>
<path d="M1020 723 c0 -7 -7 -10 -15 -7 -8 4 -15 2 -15 -4 0 -12 55 -26 69
-18 5 4 12 2 16 -4 3 -5 14 -10 23 -10 25 0 1 18 -32 24 -16 3 -33 11 -38 18
-6 10 -8 10 -8 1z"/>
<path d="M2798 713 c23 -2 61 -2 85 0 23 2 4 4 -43 4 -47 0 -66 -2 -42 -4z"/>
<path d="M1342 680 c0 -19 2 -27 5 -17 2 9 2 25 0 35 -3 9 -5 1 -5 -18z"/>
<path d="M1294 668 c-4 -6 -3 -8 4 -4 6 3 13 -2 15 -11 4 -14 5 -13 6 5 1 23
-13 30 -25 10z"/>
<path d="M2085 590 c-14 -14 -44 -30 -68 -37 l-42 -11 34 -1 c22 -1 46 8 67
24 23 17 45 25 74 25 49 0 45 16 -5 22 -27 3 -40 -2 -60 -22z"/>
<path d="M1016 544 c-3 -9 7 -15 30 -20 47 -9 51 -1 9 18 -27 12 -35 13 -39 2z"/>
<path d="M1588 544 c-4 -3 -12 -6 -20 -7 -20 -3 -27 -37 -7 -37 5 0 8 4 4 9
-3 5 4 12 15 16 11 3 20 11 20 16 0 10 -4 12 -12 3z"/>
<path d="M2470 538 c0 -7 4 -20 10 -28 7 -12 10 -11 16 5 4 11 9 23 11 28 2 4
-5 7 -16 7 -12 0 -21 -6 -21 -12z"/>
<path d="M840 520 c0 -5 6 -10 14 -10 8 0 23 -3 33 -6 10 -3 7 2 -7 10 -30 18
-40 20 -40 6z"/>
<path d="M1935 510 c-13 -5 -14 -9 -5 -9 8 0 24 4 35 9 13 5 14 9 5 9 -8 0
-24 -4 -35 -9z"/>
<path d="M2540 484 c0 -14 4 -23 10 -19 6 3 10 15 10 26 0 10 -4 19 -10 19 -5
0 -10 -12 -10 -26z"/>
<path d="M1531 443 c4 -27 5 -59 3 -73 -1 -14 -5 -45 -8 -70 l-5 -45 14 30
c21 44 17 205 -5 205 -4 0 -3 -21 1 -47z"/>
<path d="M1567 435 c3 -33 7 -62 9 -64 8 -9 2 85 -6 104 -6 13 -7 -2 -3 -40z"/>
<path d="M875 470 c-3 -5 1 -10 9 -10 8 0 18 5 21 10 3 6 -1 10 -9 10 -8 0
-18 -4 -21 -10z"/>
<path d="M994 465 c-13 -10 -14 -13 -3 -10 9 3 22 -1 29 -10 7 -8 20 -15 29
-15 10 1 6 6 -12 16 -15 8 -25 19 -22 24 9 14 2 12 -21 -5z"/>
<path d="M918 443 c12 -2 30 -2 40 0 9 3 -1 5 -23 4 -22 0 -30 -2 -17 -4z"/>
<path d="M2343 433 c-16 -6 -17 -30 -1 -39 7 -5 9 -2 5 9 -3 9 -1 18 6 20 7 2
10 7 7 9 -3 3 -11 3 -17 1z"/>
<path d="M951 426 c2 -2 18 -6 34 -10 22 -5 26 -4 15 4 -14 9 -59 15 -49 6z"/>
<path d="M523 403 c-17 -6 -16 -35 1 -59 14 -17 16 -18 28 -3 7 9 20 19 28 22
10 4 7 6 -7 6 -13 1 -23 -3 -23 -9 0 -5 -4 -10 -10 -10 -5 0 -10 9 -10 21 0
14 5 19 14 16 10 -4 13 -1 9 9 -5 15 -10 16 -30 7z"/>
<path d="M1596 329 c-4 -28 -5 -53 -3 -56 3 -2 8 19 12 47 4 28 5 53 2 56 -2
3 -7 -19 -11 -47z"/>
<path d="M2473 320 c-2 -24 22 -27 31 -4 3 8 2 12 -4 9 -6 -3 -10 -1 -10 4 0
20 -16 11 -17 -9z"/>
<path d="M550 305 c0 -11 4 -26 9 -33 7 -11 9 -11 14 1 3 8 -1 23 -8 34 -14
17 -14 17 -15 -2z"/>
<path d="M164 275 c-15 -11 -16 -14 -4 -15 21 0 44 16 33 23 -6 4 -19 0 -29
-8z"/>
<path d="M2543 262 c0 -22 4 -29 10 -23 7 7 7 18 0 33 -9 20 -10 20 -10 -10z"/>
<path d="M280 266 c0 -10 28 -13 41 -5 10 6 7 9 -13 9 -16 0 -28 -2 -28 -4z"/>
<path d="M2574 233 c7 -7 108 -5 115 3 2 2 -24 4 -59 4 -35 0 -60 -3 -56 -7z"/>
<path d="M2718 229 c15 -6 30 -5 40 1 13 7 8 9 -23 9 -35 0 -37 -1 -17 -10z"/>
<path d="M2810 214 c0 -14 -13 -16 -105 -12 l-105 4 0 -103 c0 -85 3 -103 15
-103 12 0 15 17 15 96 l0 96 168 -7 c92 -3 169 -11 170 -16 3 -6 10 -5 18 2
26 21 3 29 -82 29 -80 0 -115 14 -56 23 25 4 25 4 -5 6 -24 1 -33 -3 -33 -15z"/>
<path d="M2908 223 c17 -2 47 -2 65 0 17 2 3 4 -33 4 -36 0 -50 -2 -32 -4z"/>
<path d="M676 203 c-4 -13 -14 -23 -22 -23 -8 0 -14 -4 -14 -9 0 -14 41 0 47
15 3 7 3 19 1 26 -3 8 -8 4 -12 -9z"/>
<path d="M600 152 c0 -12 59 -22 66 -10 3 4 -4 8 -15 8 -10 0 -26 3 -35 6 -9
3 -16 2 -16 -4z"/>
<path d="M1511 45 c-1 -36 2 -46 10 -38 8 8 8 22 1 50 l-10 38 -1 -50z"/>
<path d="M2542 30 c0 -19 2 -27 5 -17 2 9 2 25 0 35 -3 9 -5 1 -5 -18z"/>
</g>
</svg>
