<svg xmlns="http://www.w3.org/2000/svg" xml:space="preserve" fill-rule="evenodd" stroke-linejoin="round" stroke-miterlimit="2" clip-rule="evenodd" viewBox="0 0 132 173">
  <path fill="none" d="M0 0h131.899v172.177H0z"/>
  <path fill="url(#imgMC)" d="M.246 2.79C4.801 1.255 10.875-.602 15.707.188c2.96.484 6.612 5.515 9.444 6.153 6.124 1.381 12.452 1.633 18.705 2.189 13.978 1.244 28.159 2.879 42.189 2.061 5.391-.314 11.003.236 16.136-1.442 1.193-.39-.396-2.515-.226-3.759.162-1.195.362-2.547 1.202-3.413 1.341-1.385 3.799.679 5.667 1.161 2.525.651 5.163 1.053 7.513 2.183 1.506.724-1.46 3.061-1.698 4.714-.26 1.811-.044 3.671.198 5.484 1.094 8.212 6.255 12.184 9.908 19.032 3.877 7.27 2.149 13.415 2.731 22.321 1.091 16.72 2.742 16.941-2.382 31.981-.779 2.286-3.462 4.629-2.447 6.821.155.335 1.019-.362 1.106-.004 2.068 8.481 2.467 16.605 2.327 25.202-.053 3.302-1.895 6.529-1.446 9.801.44 3.21 5.095 4.719 5.757 8.194.533 2.802-.455 2.568-1.103 5.323-.066.285.639-.718.754-.449 1.501 3.51 2.926 11.151.717 14.695-2.503 4.014-11.939 4.296-15.461 5.138-3.573.854-7.009 2.363-10.655 2.827-7.476.952-26.147.502-33.648 1.039-12.011.86-23.543 4.392-35.698 4.318-4.069-.025-26.332 2.911-29.066-6.41-1.153-3.932 3.282-7.558 4.215-11.547.433-1.853-1.558-5.859-.673-7.738 2.823-6 4.968-5.328 4.622-12.03-.677-13.094-2.56-26.03-4.779-38.893-1.487-8.619-6.354-16.567-7.886-25.134-.168-.935-1.06-1.686-1.082-2.635-.023-1.014 2.006 1.062 2.958.712 2.495-.916 3.775-3.423 4.502-5.73 1.339-4.249 2.71-8.511 3.53-12.889.289-1.543-.982-3.107-.72-4.654 1.241-7.331 5.168-20.193 4.213-28.804-.729-6.578-6.863-8.604-11.685-12.2C2.436 3.053 0 3.51 0 2.25l.246.54Z"/>
  <path fill="url(#imgCC)" d="M58.419 154.6c.1.25.325.3.475.238.15-.063.225-.238.025-.438-.4-.4-.6-.4-.5.2Zm71.014-14.5c.591.008.885.506.686 1.2-.8 2.2-5.2 4.8-9.3 5.3-2.2.4-4.8.8-5.7 1.1-3.3 1-12.8 2.4-19.8 2.9-1.125.113-2.531.239-4.007.369l-2.985.262c-1.476.13-2.883.257-4.008.369-17.1 1.7-48.4 2.3-53 1.1-1.4-.3-4.5-.8-7-1.1-8.342-.981-14.276-2.83-14.751-4.701l-.003-.011-.046-.088c-.192-.898-.138-1.302.504-1.217.363-.028.907.13 1.696.417 8.4 3.3 37.8 6.2 39.1 4 .4-.5 1.2-.6 1.8-.2 1.1.7 8.8.7 11.9.1.7-.2 1.9-1 2.5-1.8 1.1-1.3 1.2-1.3.7.2-.5 1.4.3 1.6 6.3 1.3 14.1-.7 35.2-2.9 40.8-4.2 1.1-.2 3-.6 4.2-.8 3.4-.5 9.3-2.8 9.3-3.7 0-.4.5-.8 1.1-.8h.014Zm-61.114 4.5c31.223-2.033 60.748-4.261 58.947-10.097.048-.526-.205-1.062-.747-1.603-.64-.64-.977-.825-1.095-.402v.003c-.08.16-.105.426-.105.799 0 1.4-4.2 3.4-6.2 3-.4-.1-1.8.2-3.1.7-1.3.5-5 1.2-8.3 1.5-3.2.3-7 .8-8.4 1.1-10.8 2.2-65.1 3.8-73 2.2-1.9-.4-4.8-1-6.5-1.3-1.6-.4-3.9-.8-5.1-.8-.436-.029-.779-.092-1.029-.221l-.418.832-.463.687c.663.712 1.47 1.139 2.11 1.002.5-.1 1.6.1 2.4.4 4.1 1.8 17.9 3.2 30 3 7.4-.1 13.5-.2 13.5-.3 0-.1 3.4-.3 7.5-.5Zm56.1-15.1.563-.976-.085-.267-.224-.081c-.544-.141-1.831.179-3.854.924-1.4.5-5.1 1.2-8.3 1.6-3.1.3-6.8.7-8.2 1-1.4.3-5.4.7-9 .9-3.6.2-10.1.6-14.5.9-6.9.5-36.2 1.8-39 1.8-5.2 0-21.7-1.4-24.5-2-1.565-.361-2.551-.795-3.088-1.492l.164 2.225.006.768c1.342.58 4.266 1.086 10.418 1.999 10.4 1.6 61.9.1 76-2.2 1.7-.2 5.3-.7 8-1 7.9-.9 14.3-2.6 15.6-4.1Zm1.59-8.07.001-.002.109-.128c.07-.209.058-.397-.038-.549l-.001-.002c-.329-.775-2.053-.956-2.961-.049-.3.3-4.6 1.2-9.4 2-8.2 1.3-12.9 1.8-31.9 2.9-3.8.2-12.4.7-19 1.1-15 .9-27.3.9-39.5 0-3.998-.231-7.702-.284-9.471-.1l.126 1.707c.617-.189 1.833-.036 4.045.293 13.3 2 27.5 2 58.8 0 3.3-.2 10-.6 15-.9 4.9-.3 10.1-.8 11.5-1 1.4-.3 4.8-.8 7.5-1.1 7.151-.773 14.302-2.666 15.19-4.17Zm.056-6.751.002-.002c.362-.389.394-.801.052-1.177l-.104-.001c-.539-.169-2.788.037-5.296.501-2.7.5-7.6 1.2-10.9 1.6-3.3.3-7.6.8-9.5 1.1-3.3.4-13.2 1-31 1.9-4.1.2-7.5.4-7.5.5 0 .8-24.2.7-25.6 0-1-.6-2-.6-2.3-.1-.478.766-17.089.524-20.867-.32l.375 3.352c.301-1.031 1.496-.954 6.192-.432 7.7.8 38 .9 46.2.1 3.3-.3 10.3-.8 15.5-1.1 15.1-.8 28.6-2 34-3 .8-.1 3.4-.6 5.7-1 2.564-.394 4.393-1.134 5.046-1.921Zm-113.977-3.665.496 3.486.027.244c2.004-.491 7.098-.507 20.008-.444 19 .1 26.5-.2 49.7-1.6 30.3-2 43-3.8 43-6.1 0-1-.7-1.1-3-.5-2.9.8-9.8 1.6-22 2.5-3 .2-8.4.7-12 1-17.177 1.787-72.901 2.687-76.231 1.414Zm-1.115-7.616.231 1.404.366 2.57c2.031-.677 7.886-.825 24.749-.972 26.8-.2 58.5-1.4 58.5-2.3l13-1c0-.1 1.6-.3 3.5-.5s4.9-.6 6.5-.9c1.7-.2 3.8-.5 4.8-.5.9-.1 1.7-.8 1.7-1.6 0-1.8.3-1.7-5.7-.5-2.6.5-8.4 1.2-12.8 1.5-4.4.4-9.8.9-12 1.1-13 1.2-41.6 2.6-55 2.5-20.438 0-26.24.048-27.846-.802Zm111.728-10.035c-.551.552-1.971.864-4.582 1.237-2.9.4-6.4.8-7.8 1-1.4.2-6.8.7-12 1-5.2.3-11.3.8-13.5 1-6.6.8-41.9 1.9-58.7 1.9-12.327 0-15.036 0-15.605 1.107l-.672-4.091c.737.561 2.52.622 6.777.684 15.9.3 59.1-1.2 74.2-2.5 3.3-.3 10.6-.8 16.1-1.1 5.6-.3 11.5-1 13-1.5 1.6-.4 3-.9 3.2-.9l-.141 1.509-.267.647-.009.005-.001.002ZM8.558 90.742h-.001c-.16.075-.238.163-.238.258 0 .172.142.325.444.445l.004.001c1.765.832 9.052 1.04 24.552.954 11.9-.1 45-1.3 52.5-1.8 2.8-.2 11.8-.7 20-1.1 15-.7 19.5-1.5 19.5-3.4 0-1.2-.1-1.2-2-.1-.8.5-10.7 1.2-22 1.5-11.3.4-22.3.8-24.5 1.1-7.9.7-22.4.7-23.6 0-.8-.5-1-.4-.5.3.8 1.3-7.8 1.6-31.6 1.2-7.425-.086-11.57.126-12.561.642Zm-2.036-5.386.199.012c3.687.329 27.41 1.506 37.898.232 9.3-1 45.5-2.7 64.3-2.8 11.1-.2 15.5-.6 16.7-1.6 2.4-2 2.1-3.4-.5-2-2.5 1.3-26.4 1.9-29 .7-.9-.5-1.9-.4-2.2.1-.3.5-4.7.9-9.8 1-12.7.3-22.5.8-33.2 1.8-8.6.8-30.6.9-37.1.3-1.6-.2-3.8 0-4.7.4-.403.202-1.971.14-2.47.339l-.376.306c-.271.387.281.914.249 1.211ZM126.319 72.1c-.8.6-9.4 1-19 1-17.1 0-36.3.6-42.7 1.4-1.8.2-3 0-2.8-.5.3-.4.1-1.1-.5-1.4-.6-.4-.9-.1-.8.6.2.8-.8 1.4-2.7 1.5-1.6.1-7.5.6-13 1s-14.8.8-20.8.8c-7.8.1-10.7.4-10.7 1.3 0 .7.8 1.3 1.8 1.4 5 .2 25.1-.3 27.7-.6 1.7-.3 8.4-.7 15-1 6.6-.3 15.2-.7 19-1.1 3.9-.3 16.3-.6 27.7-.7 18.1-.2 20.9-.4 22.5-1.9 1.9-2 1.5-3.2-.7-1.8Zm-25.5-7.1c-.4.3-10.6.8-30.6 1.4-5.2.2-10.1.7-10.7 1.1-.7.4-1.2.3-1.2-.2 0-1-5.4-.7-7.1.3-.5.4-.9.2-.9-.4 0-.6-1.1-.7-2.7-.2-1.6.4-5.1.7-8 .7-2.8-.1-4.9.2-4.7.5.2.3-4 .5-9.2.4-6.5-.1-9.8-.5-10.3-1.4-.7-1-.9-1-1.4.2-1.6 4.2 4.6 4.8 30.3 3.3 17.3-1.1 61.4-2.9 73.8-3 5 0 9.2-.4 9.2-.8v-1.5c0-.7-25.8-1.1-26.5-.4Zm10.2-9.3c-.2.2-3.9.6-8.3 1-4.3.3-10.1.7-12.9 1-2.7.3-15.4.7-28 .8-12.7.1-23.6.5-24.2.9-.6.4-1.4.3-1.7-.2-.7-1-2.5-.9-4.3.2-.6.4-1.7.5-2.5.2-3-1.1-11.8-1.3-12.4-.4-1.3 2.2 1.7 3.1 10.7 3 18.7-.3 55.5-1.2 59.9-1.6 2.5-.2 9.1-.6 14.7-.9 5.6-.2 11.1-.7 12.3-1.1 1.1-.4 2-.2 2 .4 0 .6 1.5.8 3.6.5 4.4-.5 5.5-1.1 4.8-2.7-.5-1.3-8.4-1.7-8.4-.4 0 .5-.6.5-1.2 0-1.5-.9-3.5-1.3-4.1-.7Zm.3-8.6c0 .3-1.7.5-3.8.5-2 0-5.8.5-8.4 1.2-9.5 2.4-23.9 3-43.8 1.9-5.8-.4-11.4-.8-12.5-1-1.1-.2-2.8.1-3.7.6-1 .5-1.8.5-1.8.1s-3.8-.9-8.5-1c-7.6-.2-8.5 0-8.5 1.6 0 1.4.6 1.7 2.5 1.3 1.6-.3 2.5 0 2.5.9 0 1 .3 1 1.1.2s2-.8 3.5-.3c1.3.5 2.6.5 2.9.1.6-1 2.4-.9 4.2.2.6.4 1.4.3 1.7-.2.3-.5 2.7-.7 5.3-.4 2.7.2 10.2.6 16.8.8 6.6.2 12.2.4 12.5.5.3.1 1 .1 1.5 0 .6-.2 3.8-.4 7.2-.5 3.4-.2 6.5-.5 7-.8.4-.2 2-.3 3.5-.1 1.5.1 3-.1 3.3-.6.3-.5 1.6-.7 3-.4 1.3.2 2.6.1 2.8-.3.3-.5 3.9-.8 8.1-.8 4.2 0 7.6-.4 7.6-.9 0-.4.7-.6 1.5-.2 1.6.6 1.9-.3.7-1.9-.7-1-8.2-1.5-8.2-.5Zm0-6.2c2.5-.3 2.5-2.2.7-2.1-5.2.4-8.2.9-9.2 1.4-.6.3-2 .4-3.2.3-1.3 0-2.3.3-2.3.8 0 .4-1.1.6-2.5.4-1.4-.3-2.5-.1-2.5.4s-1.2.9-2.7 1c-8.2.3-10.3.5-10.3 1 0 .3-2.4.4-5.2.3-9.6-.5-17.3-1-17.5-1.3-.2-.1-2.9-.3-6-.4-3.2-.1-6.2-.4-6.8-.7-.5-.4-2.1-.5-3.5-.4-1.4.1-2.8-.3-3.2-.9-.5-.8-.8-.7-.8.2 0 .7-.5 1-1 .7-2.3-1.4-10.3-1.4-12.3 0-1.5 1.1-1.7 1.5-.7 1.6.8 0 3.3.3 5.5.5s6.8.4 10.3.4c3.4 0 6.2.4 6.2.8s2.5.6 5.6.5c3.2-.2 6.2.1 6.8.5.6.5 7.6.7 15.6.5 19.7-.4 20-.5 20-1.4 0-.5 1.1-.9 2.4-.9 1.4 0 3.6-.4 5-1 1.9-.7 2.6-.6 2.6.3 0 .8.3.8.9-.2.5-.8 1.8-1.2 2.9-.8 1.2.2 2.2.1 2.4-.3.2-.5 1.4-1 2.8-1.2Zm-80.7-9c-3.5.4-5.9 2.5-4.7 4.3.5.8.9.7 1.5-.4.5-.8 1.7-1.4 2.7-1.2.9.2 1.7.4 1.7.5 0 .1 2 .3 4.5.5s5.9.6 7.5.9c5.6 1.1 12 1.7 15.3 1.6 1.7 0 3.2.3 3.2.7 0 1 19.9.8 22.3-.2.9-.4 2.4-.5 3.2-.2.8.4 1.7.2 2-.3.4-.6 1.6-1 2.9-1 1.2 0 2.6-.3 3-.8.4-.4 1.6-.8 2.7-.8 1-.1 2-.3 2.2-.4.1-.1 1.4-.3 3-.4 1.5-.2 3-.6 3.4-.9.3-.4 1.2-.2 2 .4 1 .9 1.3.8 1.3-.5 0-1.9-5.9-2.2-13-.5-2.5.6-5.2 1.2-6 1.4-.8.2-1.5.4-1.5.5 0 .1-1.3.3-3 .5-1.6.1-3 .4-3 .5 0 .2-4.4.8-8 1.1-.5 0-4.4-.3-8.5-.6s-8.2-.6-9-.6c-.8-.1-2.2-.3-3-.6-.8-.3-2.8-.7-4.5-.8-1.6-.1-4.8-.5-7-.9s-4.9-.8-6.1-1c-1.1-.2-2.5-.5-3-.7-.5-.3-2.3-.3-4.1-.1Zm40.31-.213c-1.261-.078-6.385-.387-7.61-.387-2.3 0-5.4-.4-14.5-1.8-1.6-.3-3.9-.6-5-.8-1.1-.1-2.7-.5-3.5-.8-7.2-2.5-7.9-2.6-9.1-1.2-.9 1.1-1.3 1.1-2.6-.1-.8-.8-1.2-1.9-.9-2.4.6-.9 4.9-.7 10.1.4 1.7.3 3.9.7 5 .9 1.1.1 3 .8 4.3 1.5 1.4.8 2.2.8 2.2.1 0-.6 1.3-.5 3.5.4 1.9.8 3.5 1.1 3.5.6 0-.5 1-.6 2.3-.2 1.2.5 3.6.8 5.2.7 1.7-.1 7.392.588 7.392.588S88.619 28 89.519 27.6c.9-.3 2.3-.8 3.2-.9.8-.1 1.8-.4 2.1-.7.9-.9 11-.4 11 .5 0 .5-2.2 1-4.8 1.1-2.7.2-5.3.7-5.9 1.3-.6.6-1.7.8-2.4.5-.8-.3-2.2-.2-3.1.2-2.1.9-4 1.2-11 1.9-4.2.4-1.789.176-6.109.24l-1.299-.036-.282-.017Z"/>
</svg>
