<svg xmlns="http://www.w3.org/2000/svg" xml:space="preserve" fill-rule="evenodd" stroke-linejoin="round" stroke-miterlimit="2" clip-rule="evenodd" viewBox="0 0 550 718">
  <path fill="url(#imgMC)" d="M1.025 11.625C20.005 5.229 45.313-2.508 65.445.783c12.334 2.017 27.55 22.98 39.35 25.638 25.518 5.754 51.884 6.804 77.938 9.12 58.242 5.184 117.33 11.997 175.788 8.588 22.463-1.308 45.846.984 67.234-6.008 4.97-1.625-1.65-10.48-.942-15.663.675-4.979 1.508-10.612 5.008-14.22 5.588-5.771 15.83 2.829 23.613 4.837 10.52 2.713 21.512 4.388 31.304 9.096 6.275 3.017-6.083 12.754-7.075 19.642-1.083 7.545-.183 15.295.825 22.85 4.558 34.216 26.062 50.766 41.283 79.3 16.154 30.291 8.954 55.895 11.38 93.004 4.545 69.667 11.424 70.587-9.926 133.254-3.245 9.525-14.425 19.288-10.195 28.421.645 1.396 4.245-1.508 4.608-.017 8.617 35.338 10.28 69.188 9.696 105.009-.221 13.758-7.896 27.204-6.025 40.837 1.833 13.375 21.229 19.663 23.987 34.142 2.221 11.675-1.896 10.7-4.596 22.18-.275 1.187 2.663-2.993 3.142-1.872 6.254 14.625 12.192 46.463 2.988 61.23-10.43 16.725-49.746 17.9-64.421 21.408-14.888 3.558-29.204 9.846-44.396 11.78-31.15 3.966-108.946 2.09-140.2 4.328-50.046 3.584-98.096 18.3-148.742 17.992-16.954-.104-109.717 12.13-121.108-26.708-4.805-16.384 13.675-31.492 17.562-48.113 1.804-7.72-6.492-24.413-2.804-32.242 11.762-25 20.7-22.2 19.258-50.125-2.82-54.558-10.666-108.458-19.912-162.054-6.196-35.913-26.475-69.03-32.859-104.725-.7-3.896-4.416-7.025-4.508-10.98-.096-4.224 8.358 4.426 12.325 2.967 10.396-3.816 15.73-14.262 18.758-23.875 5.58-17.704 11.292-35.462 14.709-53.704 1.204-6.429-4.092-12.946-3-19.392 5.17-30.545 21.533-84.137 17.554-120.016-3.038-27.409-28.596-35.85-48.688-50.834C10.15 12.721 0 14.625 0 9.375l1.025 2.25Z"/>
  <path fill="url(#imgCC)" d="M243.413 644.167c.416 1.042 1.354 1.25 1.979.992.625-.263.937-.992.104-1.825-1.667-1.667-2.5-1.667-2.083.833Zm295.892-60.417c2.462.034 3.687 2.109 2.858 5-3.333 9.167-21.667 20-38.75 22.084-9.167 1.666-20 3.333-23.75 4.583-13.75 4.167-53.333 10-82.5 12.084-4.688.47-10.546.995-16.696 1.537l-12.438 1.092c-6.15.541-12.012 1.07-16.7 1.537-71.25 7.084-201.666 9.584-220.833 4.584-5.833-1.25-18.75-3.334-29.167-4.584-34.758-4.087-59.483-11.792-61.462-19.587l-.013-.046-.191-.367c-.8-3.742-.575-5.425 2.1-5.07 1.512-.117 3.779.541 7.066 1.737 35 13.75 157.5 25.833 162.917 16.667 1.667-2.084 5-2.5 7.5-.834 4.583 2.917 36.667 2.917 49.583.417 2.917-.834 7.917-4.167 10.417-7.5 4.583-5.417 5-5.417 2.917.833-2.084 5.833 1.25 6.667 26.25 5.417 58.75-2.917 146.667-12.084 170-17.5 4.583-.834 12.5-2.5 17.5-3.334 14.167-2.083 38.75-11.666 38.75-15.416 0-1.667 2.083-3.334 4.583-3.334h.059ZM284.663 602.5c130.096-8.47 253.117-17.754 245.612-42.07.2-2.192-.854-4.425-3.112-6.68-2.667-2.666-4.07-3.437-4.563-1.675v.013c-.333.667-.437 1.775-.437 3.33 0 5.832-17.5 14.166-25.833 12.5-1.667-.418-7.5.832-12.917 2.916-5.417 2.083-20.833 5-34.583 6.25-13.334 1.25-29.167 3.333-35 4.583-45 9.167-271.25 15.833-304.167 9.167-7.917-1.667-20-4.167-27.084-5.417-6.666-1.667-16.25-3.333-21.25-3.333-1.816-.121-3.246-.384-4.287-.921L55.3 584.63l-1.93 2.862c2.763 2.967 6.126 4.746 8.793 4.175 2.083-.417 6.666.417 10 1.667 17.083 7.5 74.583 13.333 125 12.5 30.833-.417 56.25-.834 56.25-1.25 0-.417 14.166-1.25 31.25-2.084Zm233.75-62.916 2.346-4.067c-.117-.37-.234-.742-.354-1.112l-.934-.338c-2.266-.587-7.629.746-16.058 3.85-5.833 2.083-21.25 5-34.583 6.667-12.917 1.25-28.334 2.916-34.167 4.166-5.833 1.25-22.5 2.917-37.5 3.75-15 .834-42.084 2.5-60.417 3.75-28.75 2.084-150.833 7.5-162.5 7.5-21.667 0-90.417-5.833-102.083-8.333-6.521-1.504-10.63-3.312-12.867-6.217l.683 9.271.025 3.2c5.592 2.417 17.775 4.525 43.409 8.33 43.333 6.666 257.916.416 316.667-9.167 7.083-.834 22.083-2.917 33.333-4.167 32.917-3.75 59.583-10.833 65-17.083Zm6.625-33.625.004-.009.454-.533c.292-.87.242-1.654-.158-2.287l-.004-.009c-1.371-3.229-8.554-3.983-12.338-.204-1.25 1.25-19.166 5-39.166 8.333-34.167 5.417-53.75 7.5-132.917 12.084-15.834.833-51.667 2.916-79.167 4.583-62.5 3.75-113.75 3.75-164.583 0-16.659-.962-32.092-1.183-39.463-.417l.525 7.113c2.57-.788 7.638-.15 16.854 1.22 55.417 8.334 114.584 8.334 245 0 13.75-.833 41.667-2.5 62.5-3.75 20.417-1.25 42.084-3.333 47.917-4.166 5.834-1.25 20-3.333 31.25-4.583 29.796-3.221 59.592-11.109 63.292-17.375Zm.233-28.13.009-.008c1.508-1.62 1.641-3.337.216-4.904l-.433-.004c-2.246-.704-11.617.154-22.067 2.087-11.25 2.084-31.666 5-45.416 6.667-13.75 1.25-31.667 3.333-39.584 4.583-13.75 1.667-55 4.167-129.167 7.917-17.083.833-31.25 1.667-31.25 2.083 0 3.334-100.833 2.917-106.666 0-4.167-2.5-8.334-2.5-9.584-.416-1.991 3.191-71.204 2.183-86.946-1.334l1.563 13.967c1.254-4.296 6.233-3.975 25.8-1.8 32.083 3.333 158.333 3.75 192.5.417 13.75-1.25 42.917-3.334 64.583-4.584 62.917-3.333 119.167-8.333 141.667-12.5 3.334-.416 14.167-2.5 23.75-4.166 10.684-1.642 18.304-4.725 21.025-8.004ZM50.367 462.56l2.066 14.525.113 1.016c8.35-2.045 29.575-2.112 83.367-1.85 79.166.417 110.416-.833 207.083-6.666 126.25-8.334 179.167-15.834 179.167-25.417 0-4.167-2.917-4.583-12.5-2.083-12.083 3.333-40.833 6.666-91.667 10.416-12.5.834-35 2.917-50 4.167-71.57 7.446-303.754 11.196-317.63 5.892Zm-4.646-31.734.962 5.85 1.525 10.709c8.463-2.821 32.859-3.438 103.121-4.05 111.667-.834 243.75-5.834 243.75-9.584l54.167-4.166c0-.417 6.667-1.25 14.584-2.084 7.916-.833 20.416-2.5 27.083-3.75 7.083-.833 15.833-2.083 20-2.083 3.75-.417 7.083-3.333 7.083-6.667 0-7.5 1.25-7.083-23.75-2.083-10.833 2.083-35 5-53.333 6.25-18.333 1.667-40.834 3.75-50 4.583-54.167 5-173.334 10.834-229.167 10.417-85.158 0-109.333.2-116.025-3.342Zm465.534-41.812c-2.296 2.3-8.213 3.6-19.092 5.154-12.083 1.667-26.667 3.333-32.5 4.167-5.833.833-28.333 2.916-50 4.166-21.667 1.25-47.084 3.334-56.25 4.167-27.5 3.333-174.584 7.917-244.584 7.917-51.362 0-62.65 0-65.02 4.612l-2.8-17.046c3.07 2.338 10.5 2.592 28.237 2.85 66.25 1.25 246.25-5 309.167-10.416 13.75-1.25 44.167-3.334 67.083-4.584 23.334-1.25 47.917-4.166 54.167-6.25 6.667-1.666 12.5-3.75 13.333-3.75l-.587 6.288-1.113 2.696-.037.02-.004.009ZM35.658 378.092h-.004c-.666.312-.991.68-.991 1.075 0 .717.591 1.354 1.85 1.854l.016.004c7.354 3.467 37.717 4.334 102.3 3.975 49.584-.416 187.5-5.416 218.75-7.5 11.667-.833 49.167-2.916 83.334-4.583 62.5-2.917 81.25-6.25 81.25-14.167 0-5-.417-5-8.333-.416-3.334 2.083-44.584 5-91.667 6.25-47.084 1.666-92.917 3.333-102.084 4.583-32.916 2.917-93.333 2.917-98.333 0-3.333-2.083-4.167-1.667-2.083 1.25 3.333 5.417-32.5 6.667-131.667 5-30.938-.358-48.208.525-52.338 2.675Zm-8.483-22.442.83.05c15.362 1.371 114.208 6.275 157.908.967 38.75-4.167 189.583-11.25 267.917-11.667 46.25-.833 64.583-2.5 69.583-6.666 10-8.334 8.75-14.167-2.083-8.334-10.417 5.417-110 7.917-120.834 2.917-3.75-2.083-7.917-1.667-9.167.417-1.25 2.083-19.583 3.75-40.833 4.166-52.917 1.25-93.75 3.334-138.333 7.5-35.834 3.334-127.5 3.75-154.584 1.25-6.666-.833-15.833 0-19.583 1.667-1.68.842-8.213.583-10.292 1.412l-1.566 1.275c-1.13 1.613 1.17 3.809 1.037 5.046Zm499.155-55.233c-3.334 2.5-39.167 4.167-79.167 4.167-71.25 0-151.25 2.5-177.917 5.833-7.5.833-12.5 0-11.667-2.083 1.25-1.667.417-4.584-2.083-5.834-2.5-1.666-3.75-.416-3.333 2.5.833 3.334-3.334 5.834-11.25 6.25-6.667.417-31.25 2.5-54.167 4.167-22.917 1.667-61.667 3.333-86.667 3.333-32.5.417-44.583 1.667-44.583 5.417 0 2.917 3.333 5.417 7.5 5.833 20.833.834 104.583-1.25 115.417-2.5 7.083-1.25 35-2.916 62.5-4.166 27.5-1.25 63.333-2.917 79.166-4.584 16.25-1.25 67.917-2.5 115.417-2.916 75.417-.834 87.084-1.667 93.75-7.917 7.917-8.333 6.25-13.333-2.916-7.5Zm-106.25-29.583c-1.667 1.25-44.167 3.333-127.5 5.833-21.667.833-42.084 2.917-44.584 4.583-2.917 1.667-5 1.25-5-.833 0-4.167-22.5-2.917-29.583 1.25-2.084 1.667-3.75.833-3.75-1.667s-4.584-2.916-11.25-.833c-6.667 1.667-21.25 2.917-33.334 2.917-11.666-.417-20.416.833-19.583 2.083.833 1.25-16.667 2.083-38.333 1.667-27.084-.417-40.834-2.084-42.917-5.834-2.917-4.166-3.75-4.166-5.833.834-6.667 17.5 19.166 20 126.25 13.75 72.083-4.584 255.833-12.084 307.5-12.5 20.833 0 38.333-1.667 38.333-3.334v-6.25c0-2.916-107.5-4.583-110.416-1.666Zm42.5-38.75c-.834.833-16.25 2.5-34.584 4.166-17.917 1.25-42.083 2.917-53.75 4.167-11.25 1.25-64.167 2.917-116.667 3.333-52.916.417-98.333 2.084-100.833 3.75-2.5 1.667-5.833 1.25-7.083-.833-2.917-4.167-10.417-3.75-17.917.833-2.5 1.667-7.083 2.084-10.417.834-12.5-4.584-49.166-5.417-51.666-1.667-5.417 9.167 7.083 12.917 44.583 12.5 77.917-1.25 231.25-5 249.583-6.667 10.417-.833 37.917-2.5 61.25-3.75 23.334-.833 46.25-2.916 51.25-4.583 4.584-1.667 8.334-.833 8.334 1.667s6.25 3.333 15 2.083c18.333-2.083 22.917-4.583 20-11.25-2.083-5.417-35-7.083-35-1.667 0 2.084-2.5 2.084-5 0-6.25-3.75-14.583-5.416-17.083-2.916Zm1.25-35.834c0 1.25-7.084 2.083-15.834 2.083-8.333 0-24.166 2.084-35 5-39.583 10-99.583 12.5-182.5 7.917-24.167-1.666-47.5-3.333-52.083-4.167-4.584-.833-11.667.417-15.417 2.5-4.167 2.084-7.5 2.084-7.5.417s-15.833-3.75-35.417-4.167c-31.666-.833-35.416 0-35.416 6.667 0 5.834 2.5 7.084 10.416 5.417 6.667-1.25 10.417 0 10.417 3.75 0 4.167 1.25 4.167 4.583.833 3.334-3.333 8.334-3.333 14.584-1.25 5.416 2.084 10.833 2.084 12.083.417 2.5-4.167 10-3.75 17.5.833 2.5 1.667 5.833 1.25 7.083-.833s11.25-2.917 22.084-1.667c11.25.834 42.5 2.5 70 3.334 27.5.833 50.833 1.666 52.083 2.083 1.25.417 4.167.417 6.25 0 2.5-.833 15.833-1.667 30-2.083 14.167-.834 27.083-2.084 29.167-3.334 1.666-.833 8.333-1.25 14.583-.416 6.25.416 12.5-.417 13.75-2.5 1.25-2.084 6.667-2.917 12.5-1.667 5.417.833 10.834.417 11.667-1.25 1.25-2.083 16.25-3.333 33.75-3.333s31.667-1.667 31.667-3.75c0-1.667 2.916-2.5 6.25-.834 6.666 2.5 7.916-1.25 2.916-7.917-2.916-4.166-34.166-6.25-34.166-2.083Zm0-25.833c10.416-1.25 10.416-9.167 2.916-8.75-21.666 1.666-34.166 3.75-38.333 5.833-2.5 1.25-8.333 1.667-13.334 1.25-5.416 0-9.583 1.25-9.583 3.333 0 1.667-4.583 2.5-10.417 1.667-5.833-1.25-10.416-.417-10.416 1.667 0 2.083-5 3.75-11.25 4.166-34.167 1.25-42.917 2.084-42.917 4.167 0 1.25-10 1.667-21.667 1.25-40-2.083-72.083-4.167-72.916-5.417-.834-.416-12.084-1.25-25-1.666-13.334-.417-25.834-1.667-28.334-2.917-2.083-1.667-8.75-2.083-14.583-1.667-5.833.417-11.667-1.25-13.333-3.75-2.084-3.333-3.334-2.916-3.334.834 0 2.916-2.083 4.166-4.166 2.916-9.584-5.833-42.917-5.833-51.25 0-6.25 4.584-7.084 6.25-2.917 6.667 3.333 0 13.75 1.25 22.917 2.083 9.166.834 28.333 1.667 42.916 1.667 14.167 0 25.834 1.667 25.834 3.333 0 1.667 10.416 2.5 23.333 2.084 13.333-.834 25.833.416 28.333 2.083 2.5 2.083 31.667 2.917 65 2.083 82.084-1.666 83.334-2.083 83.334-5.833 0-2.083 4.583-3.75 10-3.75 5.833 0 15-1.667 20.833-4.167 7.917-2.916 10.834-2.5 10.834 1.25 0 3.334 1.25 3.334 3.75-.833 2.083-3.333 7.5-5 12.083-3.333 5 .833 9.167.416 10-1.25.833-2.084 5.833-4.167 11.667-5Zm-336.25-37.5c-14.584 1.666-24.584 10.416-19.584 17.916 2.083 3.334 3.75 2.917 6.25-1.666 2.083-3.334 7.083-5.834 11.25-5 3.75.833 7.083 1.666 7.083 2.083 0 .417 8.334 1.25 18.75 2.083 10.417.834 24.584 2.5 31.25 3.75 23.334 4.584 50 7.084 63.75 6.667 7.084 0 13.334 1.25 13.334 2.917 0 4.166 82.916 3.333 92.916-.834 3.75-1.666 10-2.083 13.334-.833 3.333 1.667 7.083.833 8.333-1.25 1.667-2.5 6.667-4.167 12.083-4.167 5 0 10.834-1.25 12.5-3.333 1.667-1.667 6.667-3.333 11.25-3.333 4.167-.417 8.334-1.25 9.167-1.667.417-.417 5.834-1.25 12.5-1.667 6.25-.833 12.5-2.5 14.167-3.75 1.25-1.666 5-.833 8.333 1.667 4.167 3.75 5.417 3.333 5.417-2.083 0-7.917-24.583-9.167-54.167-2.084-10.417 2.5-21.667 5-25 5.834-3.333.833-6.25 1.666-6.25 2.083 0 .417-5.417 1.25-12.5 2.083-6.667.417-12.5 1.667-12.5 2.084 0 .833-18.333 3.333-33.333 4.583-2.084 0-18.334-1.25-35.417-2.5-17.083-1.25-34.167-2.5-37.5-2.5-3.333-.417-9.167-1.25-12.5-2.5s-11.667-2.917-18.75-3.333c-6.667-.417-20-2.084-29.167-3.75-9.166-1.667-20.416-3.334-25.416-4.167-4.584-.833-10.417-2.083-12.5-2.917-2.084-1.25-9.584-1.25-17.084-.416Zm167.958-.888c-5.254-.325-26.604-1.612-31.709-1.612-9.583 0-22.5-1.667-60.416-7.5-6.667-1.25-16.25-2.5-20.834-3.334-4.583-.416-11.25-2.083-14.583-3.333-30-10.417-32.917-10.833-37.917-5-3.75 4.583-5.416 4.583-10.833-.417-3.333-3.333-5-7.916-3.75-10 2.5-3.75 20.417-2.916 42.083 1.667 7.084 1.25 16.25 2.917 20.834 3.75 4.583.417 12.5 3.333 17.916 6.25 5.834 3.333 9.167 3.333 9.167.417 0-2.5 5.417-2.084 14.583 1.666 7.917 3.334 14.584 4.584 14.584 2.5 0-2.083 4.166-2.5 9.583-.833 5 2.083 15 3.333 21.667 2.917 7.083-.417 30.8 2.45 30.8 2.45s72.533-4.95 76.283-6.617c3.75-1.25 9.583-3.333 13.333-3.75 3.334-.417 7.5-1.667 8.75-2.917 3.75-3.75 45.834-1.666 45.834 2.084 0 2.083-9.167 4.166-20 4.583-11.25.833-22.084 2.917-24.584 5.417s-7.083 3.333-10 2.083c-3.333-1.25-9.166-.833-12.916.833-8.75 3.75-16.667 5-45.834 7.917-17.5 1.667-7.454.733-25.454 1l-5.412-.15-1.175-.07Z"/>
</svg>
