<svg xmlns="http://www.w3.org/2000/svg" xml:space="preserve" fill-rule="evenodd" stroke-linecap="round" stroke-linejoin="round" stroke-miterlimit="1.5" clip-rule="evenodd" viewBox="0 0 5080 3282"><path id="sea-mist" fill="#a7bab1" stroke="#fff" d="M2068 2400h369v177h-369z" transform="translate(-982 -61)"/><path id="sherbert" fill="#f3cbaa" d="M2068 2400h369v177h-369z" transform="translate(-475 -61)"/><path id="starfish" fill="#efb19c" d="M2068 2400h369v177h-369z" transform="translate(1 -61)"/><path id="taffy" fill="#ef6fa1" d="M2068 2400h369v177h-369z" transform="translate(510 -61)"/><path id="tangerine" fill="#eb8a3b" d="M2068 2400h369v177h-369z" transform="translate(1017 -61)"/><path id="tiger" fill="#a87214" d="M2068 2400h369v177h-369z" transform="translate(1524 -61)"/><path id="truffle" fill="#3c261f" d="M2068 2400h369v177h-369z" transform="translate(2031 -61)"/><path id="unicorn" fill="#dbc2e6" d="M2068 2400h369v177h-369z" transform="translate(2538 -61)"/><path id="sand" fill="#dac2b1" d="M2068 2400h369v177h-369z" transform="translate(-1483 -61)"/><path id="white-peach" fill="#f5e6d7" d="M2068 2400h369v177h-369z" transform="translate(-1483 499)"/><path id="sage" fill="#8a9782" d="M2068 2400h369v177h-369z" transform="translate(-1990 -61)"/><path id="wellington" fill="#26261d" d="M2068 2400h369v177h-369z" transform="translate(-1990 499)"/><path id="north-sea" fill="#4e7479" d="M2068 2400h369v177h-369z" transform="translate(-982 -599)"/><path id="norway" fill="#1f444f" d="M2068 2400h369v177h-369z" transform="translate(-475 -599)"/><path id="pebble" fill="#c0c0bc" d="M2068 2400h369v177h-369z" transform="translate(1 -599)"/><path id="pickle-juice" fill="#dee95d" d="M2068 2400h369v177h-369z" transform="translate(510 -599)"/><path id="powder" fill="#f4e0e3" d="M2068 2400h369v177h-369z" transform="translate(1017 -599)"/><path id="red-hot" fill="#e3301c" d="M2068 2400h369v177h-369z" transform="translate(1524 -599)"/><path id="roswitha" fill="#c77875" d="M2068 2400h369v177h-369z" transform="translate(2031 -599)"/><path id="royal" fill="#1d2ea3" d="M2068 2400h369v177h-369z" transform="translate(2538 -599)"/><path id="mouse" fill="#3f3e3e" d="M2068 2400h369v177h-369z" transform="translate(-1483 -599)"/><path id="morgaine" fill="#3e5a63" d="M2068 2400h369v177h-369z" transform="translate(-1990 -599)"/><path id="glass" fill="#d0e5e4" d="M2068 2400h369v177h-369z" transform="translate(-982 -1137)"/><path id="glow" fill="#e3af13" d="M2068 2400h369v177h-369z" transform="translate(-475 -1137)"/><path id="grass-green" fill="#49ba76" d="M2068 2400h369v177h-369z" transform="translate(1 -1137)"/><path id="green-olive" fill="#575b08" d="M2068 2400h369v177h-369z" transform="translate(510 -1137)"/><path id="corduroy" fill="#3f1724" d="M2068 2400h369v177h-369z" transform="translate(1 -1675)"/><path id="dijon" fill="#b29012" d="M2068 2400h369v177h-369z" transform="translate(510 -1675)"/><path id="birch-tree" fill="#f0ebe3" d="M2068 2400h369v177h-369z" transform="translate(1017 -2213)"/><path id="blue-spruce" fill="#8f9a9c" d="M2068 2400h369v177h-369z" transform="translate(2031 -2213)"/><path id="greykjavik" fill="#89868d" d="M2068 2400h369v177h-369z" transform="translate(1017 -1137)"/><path id="kardemumma" fill="#c04d2f" d="M2068 2400h369v177h-369z" transform="translate(1524 -1137)"/><path id="marinière" fill="#1f1d25" d="M2068 2400h369v177h-369z" transform="translate(2031 -1137)"/><path id="mocha" fill="#795e4e" d="M2068 2400h369v177h-369z" transform="translate(2538 -1137)"/><path id="fuchsia" fill="#df2f6d" d="M2068 2400h369v177h-369z" transform="translate(-1483 -1137)"/><path id="french-grey" fill="#807c77" d="M2068 2400h369v177h-369z" transform="translate(-1990 -1137)"/><path id="chestnut" fill="#6e321b" d="M2068 2400h369v177h-369z" transform="translate(-982 -1675)"/><path id="copenhagen" fill="#161719" d="M2068 2400h369v177h-369z" transform="translate(-475 -1675)"/><path id="dutch-sky" fill="#b0b1b5" d="M2068 2400h369v177h-369z" transform="translate(1017 -1675)"/><path id="enchanted" fill="#294650" d="M2068 2400h369v177h-369z" transform="translate(1524 -1675)"/><path id="fandango" fill="#821d6e" d="M2068 2400h369v177h-369z" transform="translate(2031 -1675)"/><path id="flamingo" fill="#eea095" d="M2068 2400h369v177h-369z" transform="translate(2538 -1675)"/><path id="canal-house" fill="#403c43" d="M2068 2400h369v177h-369z" transform="translate(-1483 -1675)"/><path id="buttercup" fill="#efd36e" d="M2068 2400h369v177h-369z" transform="translate(-1990 -1675)"/><path id="avocado" fill="#969b2c" d="M2068 2400h369v177h-369z" transform="translate(-982 -2213)"/><path id="beatrix" fill="#e95644" d="M2068 2400h369v177h-369z" transform="translate(-475 -2213)"/><path id="berry" fill="#902025" d="M2068 2400h369v177h-369z" transform="translate(1 -2213)"/><path id="bianca" fill="#f4de0b" d="M2068 2400h369v177h-369z" transform="translate(510 -2213)"/><path id="biscuit" fill="#ac8057" d="M2068 2400h369v177h-369z" transform="translate(1524 -2213)"/><path id="brackish" fill="#38879a" d="M2068 2400h369v177h-369z" transform="translate(2538 -2213)"/><path id="aubergine" fill="#2e1f2a" d="M2068 2400h369v177h-369z" transform="translate(-1483 -2213)"/><path id="aquamarine" fill="#88c4cc" d="M2068 2400h369v177h-369z" transform="translate(-1990 -2213)"/></svg>