<svg xmlns="http://www.w3.org/2000/svg" xml:space="preserve" fill-rule="evenodd" stroke-linejoin="round" stroke-miterlimit="2" clip-rule="evenodd" viewBox="0 0 1071 1236">
  <path fill="url(#imgMC)" fill-rule="nonzero" d="M89 1231.014c0-30.157-45.263-12.73-65.46-69.257-13.778-38.568 21.232-38.35 10.085-77.996C20.352 1036.55 0 1013.944 0 961.947V924.37l4.39-9.695c7.126-15.701 13.124-196.784 66.462-421.116C95.05 391.78 98.89 392.605 110.447 288.649c9.06-81.5 22.8-101.216 114.848-137.958 12.022-4.8 139.777-55.793 149.364-62.236 14.709-9.882 39.811-69.211 42.515-75.602 7.124 4.3 13.698 18.48 56.276 33.974l10.213 3.717 25.844.63c3.791.094 3.33-.505 47.227-4.005l11.795-.934 8.631-5.89c3.731-2.547 2.922-2.984 39.5-40.345l3.047 15.369 1.718 16.412 6.194 12.099c23.795 46.484 144.228 11.726 200.48 98.856 124.377 192.66 120.113 196.11 153.723 227.441 22.516 20.99 85.502 66.862 92.239 66.122l3.42-.371.416 116.72c.34 93.522-3.702 109.347-4.416 130.404-8.56-4.24-107.004-52.986-107.004-52.986-20.53-13.396-39.67-28.818-59.854-42.728-27.893-19.218-30.478-9.489-64.417-8.207l-20.798.784-.88 3.51c-10.926 43.513 8.78 198.415-14.614 221.99-3.88 3.907-8.634 6.84-13.042 10.142-77.707 58.187 18.386 157.046-71.49 151.963-74.989-4.24-75.12-8.884-184.662 5.375-35.057 4.562-69.994 10.009-105.012 14.859-13.894 1.924-13.586-5.288-175.243-5.403l-34.598-.023-1.815 3.284c-20.358 36.63-1.14 38.166 4.31 79.808 7.814 59.726-25.724 116.742-10.93 171.142l1.095 4.011H89v-9.56Z"/>
  <path fill="url(#imgCC1)" d="M281.794 834.49c-7.144-8.61-5.282-20.725 1.817-19.481 1.15.202 2.556.758 3.69 3.367.549 1.262 6.194 14.246 3.307 16.882-1.667 1.523-7.056 1.35-8.814-.769Zm24.688-17.66 5.206-.86 3.914 5.981c.504.77 5.1 7.792 3.206 11.062-1.11 1.918-4.797 3.003-5.268 3.143-5.517 1.625-19.17-13.43-15.195-17.259.91-.877 7.474-1.959 8.137-2.068Zm34.09-1.392 7.188-1.307 2.66 3.284c7.16 8.843-1.944 23.84-9.818 17.895-11.248-8.493-7.626-18.488-.03-19.872Zm58.93 4.979-.462-10.906 7.925-1.284c11.805-1.914 21.952 24.023 2.488 26.025-.566.058-5.22.537-7.032-1.025-2.467-2.128-2.873-11.76-2.918-12.81Zm32.366 11.724c-1.422-.597-3.233-1.358-3.648-2.842-.107-.381-.161-17.063.91-20.008 1.218-3.344 3.987-3.686 4.45-3.745 4.738-.587 9.534-.653 14.275-1.24l-.668 29.932c-3.706-.237-7.435.2-11.143-.037-1.665-.105-3.883-1.83-4.176-2.06Zm-53.254-1.262c-9.09-1.136-7.655-6.441-8.669-8.466-.227-.456-7.71-6.85-1.747-12.322 3.15-2.89 13.522-5.976 15.748 3.602.284 1.224 2.893 12.453.961 15.688-1.272 2.13-5.78 1.562-6.293 1.498Zm84.866-2.72c-1.09-1.083-1.747-19.457 1.46-23.025 3.457-3.846 13.673-5.86 15.964-3.587 4.332 4.293.72 20.776-3.62 25.262-2.842 2.936-12.67 2.492-13.804 1.35Zm28.882-3.556c-1.126-3.562 3.65-25.854 5.89-26.801.94-.397 10.805-4.57 12.714-1.02 1.795 3.345.182 25.983-3.177 27.54-1.4.65-11.538 2.962-12.565 2.99-1.982.053-2.766-2.41-2.862-2.709Zm40.907-37.092 5.836-.895 3.146 6.572c4.355 9.094 3.838 33.658-3.8 31.611-6.16-1.651-14.936 3.37-15.765-10.197-.175-2.864.28-17.767 2.755-23.408 1.16-2.65 7.143-3.578 7.828-3.683Zm41.718-3.533 3.054 1.634-1.002 27.753-4.377 3.501c-5.715 4.556-13.46 4.381-16.057-.66-3.546-6.886-1.846-29.298 6.893-30.845 7.433-1.315 8.141-3.174 11.49-1.383Zm171.168 32.844-2.743-2.006 3.328-9.256c5.412-15.043 15.01-21.767 18.769-13.474 3.03 6.687-13.76 28.823-19.354 24.736Zm21.087-16.141 5.457-8.754 7.949.442c8.763.488 8.285 2.495 13.852 3.205 27.96 3.564-2.573 19.995-7.625 20.302-1.185.072-4.484-2.167-8.59-1.739-4.526.475-9.082 5.597-13.811 4.657-7.599-1.506 1.992-16.87 2.768-18.113Zm-64.241-5.107 2.515-6.565h13.048l-.502 7.993c-.946 15.007-7.82 20.697-12.452 19.905-10.128-1.733-3.226-19.728-2.61-21.333Zm23.1 18.876c-.536-.766-1.055-1.597-1.252-2.513-.986-4.587 8.511-26.607 15.073-22.893 3.373 1.908 3.945 12.028-1.195 20.407-4.503 7.34-10.226 8.423-12.625 5Zm-45.73-.926c-7.622-1.48-9.745-28.375.093-28.908 1.11-.06 11.534-.626 11.935 7.12.418 8.116-4.253 18.242-4.936 19.718-1.815 3.938-2.883 2.891-7.092 2.07Zm623.082-377.528c-2.076-5.387 5.843-7.248 7.594-2.099.113.33 1.055 3.103-1.784 3.982-2.062.636-5.194-.282-5.81-1.883ZM346.87 670.769l.777 12.378-3.914 1.49c-19.46 7.39-19.516-6.326-19.69-17.54-.02-1.347-.194-12.617 6.675-15.482 5.445-2.27 15.21 4.032 16.152 19.154Zm20.8 13.495-3.647-1.839-.426-11.724c-.436-12.363-.553-15.375 11.664-17.145 6.157-.89 8.563-.951 7.921 5.239-.206 1.973-1.908 18.368-6.497 23.91-.465.564-3.568 4.311-9.015 1.559Zm-75.36-.973c-13.53-5.675 10.562-51.53 15.976-31.698 1.847 6.76 1.782 22.34-.005 27.517-2.471 7.155-15.785 4.259-15.972 4.18Zm107.132-6.268-3.969-3.276 2.12-14.59c.722-4.976.962-10.046 2.144-14.933.382-1.577 1.022-1.037 11.809-3.7l2.075 17.318 1.025 16.193-3.99 3.14c-4.999 3.927-6.283 3.912-11.214-.152Zm48.474-14.637v7.007l-5.815 1.807c-10.654 3.335-15.244 3.895-15.043-7.244.03-1.74.212-11.748 2.914-21.543 1.35-4.89 2.844-3.634 7.334-6.062 3.083-1.669 3.507-.832 5.35 2.115 5.26 8.408 5.26 21.961 5.26 23.92Zm10.653-12.828 1.838-13.738 5.791-3.137c4.218-2.288 6.68-2.798 9.073-1.878l3.284 1.269v26.003l-4.743 3.61c-5.793 4.407-14.393 5.32-15.683 3.314-1.35-2.097.276-14.217.44-15.443Zm31.672 6.704c-1.516-1.83-3.335-35.578 10-32.812 2.234.463 15.18 6.7 10.049 27.015-.294 1.161-.605 2.375-1.302 3.352-1.313 1.844-15.989 5.776-18.747 2.445Zm296.234-6.954-3.237-2.27-4.006 2.293c-5.258 3.017-8.343 1.65-9.719-4.301l-1.109-4.84-.912 3.64c-1.14 4.536-4.589 5.304-9.452 2.12l-3.732-2.447.144-10.41c.028-1.897-1.309-16.784 6.747-18.55 5.577-1.224 6.82-.386 7.046 5.427.054 1.449.021 1.342.286 18.125l5.511-18.544 1.877-4.598 7.264.395c.827.044 8.894.48 10.025 2.57.34.632-.315 6.302 3.935 1.845 4.708-4.937 5.35-.805 10.958 2.92.076.051 6.122-.06 6.83 2.732.594 2.334-.116 2.363-1.496 30.06-22.842-4.352-23.153-3.498-26.96-6.167Zm-264.644-7.301-2.781-8.3 3.464-6.952c4.002-8.05 19.703-18.901 22.654 8.116.134 1.226 1.46 13.37-.738 15.396-.997.918-11.563 2.26-16.224 1.093-3.54-.887-6.087-8.495-6.375-9.353Zm43.535 9.308-4.377-.936-1.733-10.934c-.218-1.38-2.206-13.914-.766-17.435 1.972-4.822 15.586-4.211 18.545.508 2.873 4.583 3.027 25.381-.043 28.519-2.234 2.284-10.715.473-11.626.278Zm149.981-9.303c-8.09-8.886-9.003-27.834 2.208-32.683 2.138-.926 10.929-3.891 10.637 27.131-.105 11.06-8.991 9.784-12.845 5.552Zm21.848-.675c-2.202-3.379-4.445-23.657 1.525-27.797 7.058-4.892 8.208 8.25 8.293 9.24.936 10.696 3.718 16.497.847 20.69-1.811 2.647-6.84 3.723-10.665-2.133Zm-37.38-14.788.919 11.164-4.514 2.333c-20.733 10.734-23.533-26.88-13.174-32.657 2.96-1.651 12.299.354 14.114 3.157 1.539 2.374 2.548 14.71 2.655 16.003ZM304.591 499.92l2.492 4.581.745-6.565.753-6.566h5.204c9.048 0 15.69-13.716 24.15 4.576.885 1.914 10.275 18.094 4.877 24.873-4.71 5.914-10.957-.338-11.616-.998l-2.918-2.918v3.36c0 7.857-6.795 9.01-12.402 2.11l-3.854-4.74.913 4.596c.947 4.759-4.434 13.993-11.52 4.772-3.821-4.97-13.637-26.369-12.103-30.993 1.852-5.58 11.914-2.286 15.28 3.912Zm51.597 10.334c-1.24-1.58-11.667-22.79-9.344-28.778.969-2.498 12.14-16.97 19.565-.612 10.055 22.151 6.555 26.736 5.147 28.585-3.504 4.59-11.579 5.62-15.368.805Zm28.482-7.575c-1.031-1.697.385-2.127-6.66-23.903-4.575-14.14 16.1-15.837 18.614-12.71 3.433 4.275 9.092 29.28 8.213 32.173-1.07 3.52-18.267 7.51-20.167 4.44Zm34.932-10.914c-1.116-2.622-3.511-9.499-5.32-15.273L411 465.997l2.38-3.632c4.96-7.575 17.284-6.912 22.211 2.531 1.165 2.233 15.267 29.258-5.7 30.966l-8.26.675-2.029-4.772Zm36.316-3.138c-6.048-9.232-7.046-23.88-3.949-30.312 2.338-4.852 13.522-8.379 17.695-4.254 2.764 2.73 9.236 23.616 3.537 33.142-4.25 7.101-12.768 8.315-17.283 1.424Zm42.335-1.208c-9.495-3.33-9.369-9.368-10.001-14.035-.199-1.467-2.25-16.614-2.025-18.39.595-4.72 12.174-10.656 20.13 4.14 1.03 1.914 9.044 16.821 1.38 27.13-3.27 4.398-4.277 2.978-9.484 1.155Zm30.639-.79c-10.425-1.484-6.505-9.512-11.057-25.563-4.233-14.923 14.755-15.3 18.263-12.443 4.667 3.805 7.275 31.414 4.198 36.02-2.2 3.292-10.488 2.117-11.404 1.987Zm29.91-3.71-3.648-1.845V447.6l5.836.486c5.276.44 6.714 1.642 7.17 2.024 4.296 3.595 4.773 28.435 1.174 33.051-2.844 3.646-9.78.138-10.532-.241Zm126.934-28.936v13.146l-3.245 2.273c-3.435 2.408-9.865 2.69-12.691.92-2.596-1.625-6.75-25.677-4.741-29.295 2.36-4.25 15.251-6.657 17.874-4.502 2.803 2.305 2.803 16.043 2.803 17.458Zm29.902-2.704.957 13.89-4.955 1.793c-4.723 1.706-4.95 2.622-9.347.342-9.07-4.703-10.379-32.045-.751-33.565 3.896-.614 3.747-.984 7.264-2.861 1.517-.81 5.351-1.236 6.832 20.4Zm102.837 13.798c-2.054-2.476-4.078-.056-8.01-2.18-3.102-1.678-5.168-.444-6.598-.738-9.57-1.965-16.34-36.966-4.935-37.207 6.813-.144 6.385 1.782 8.386 8.282 1.49-1.67 2.315-3.862 3.805-5.533 2.973-3.332 8.502 3.881 8.727 3.943 2.245.625 9.08-6.233 9.394 7.53.049 2.144.37 16.215-4.369 26.452-2.128 4.596-6.071-.154-6.4-.549Zm-88.537-2.453c-3.093-3.332-6.143-27.679-3.791-31.21 4.655-6.989 14.685-4.981 16.87 13.025 2.519 20.766-5.941 25.855-13.079 18.185Zm49.175-1.59c-.31-.155-2.601-1.309-3.12-3.003-.952-3.09-3.891-22.833-3.598-25.328.872-7.426 11.746-8.35 13.509-1.594.591 2.272 6.365 24.403 4.912 28.93-1.907 5.935-10.865 1.418-11.703.996Zm-24.63-1.55c-2.376-2.86-3.844-27.816-1.671-30.806 3.326-4.578 12.376-7.257 13.518 14.712 1.04 20.01-6.647 22.358-11.847 16.094ZM233.602 311.873l8.19-.979 7.417 10.533c1.214 1.723 12.876 18.278 6.669 25.493-2.084 2.42-13.242 3.97-15.454 1.862-4.408-4.2-17.911-25.404-18.648-28.93-1.34-6.403 10.691-7.843 11.826-7.98Zm36.687 21.263c-.24-.304-8.66-14.073-9.612-15.746-7.832-13.789 10.188-18.946 15.425-15.639 3.299 2.084 17.76 23.09 18.603 27.107 1.245 5.935-18.843 11.345-24.416 4.278Zm38.269-7.052c-4.012-4.008-2.687-4.868-7.964-12.82-13.612-20.506 8.71-16.355 12.572-14.176 6.59 3.72 17.68 17.827 16.067 26.661-.759 4.153-15.707 5.303-20.675.335Zm34.629-29.492h7.423l5.745 6.202c1.26 1.358 13.907 14.995 9.66 21.05-2.647 3.777-17.085 4.164-26.038-8.57-6.375-9.066-5.422-18.682 3.21-18.682Zm67.288 9.78-.866-5.335 4.194-1.603c19.514-7.433 28.651 20.253 28.252 23.018-.641 4.443-7.789 5.433-13.965 3.846-5.482-1.41-16.734-14.507-17.615-19.927Zm56.864 19.81c-11.012-1.372-24.536-26.076-9.396-29.358 7.97-1.73 14.633 5.336 15.555 6.312 4.058 4.303 9.81 17.145 8.095 19.207-5.807 6.98-13.845 3.89-14.254 3.84Zm-86.097-6.366c-7.34-7.933-9.2-17.364-6.976-19.401 6.248-5.72 19.17-2.61 21.87 2.301.437.8.435 1.77.715 2.638 2.14 6.641 7.871 13.78 7.87 16.643-.003 3.775-9.311 3.775-10.18 3.775h-7.79l-5.51-5.956Zm114.927-1.877c-2.027-3.543-13.325-21.516 3.815-21.347 9.879.097 12.34 3.805 16.392 10.744.599 1.026 5.921 10.141 3.787 14.345-2.077 4.091-12.05 4.091-13.15 4.091h-6.36l-4.484-7.833Zm131.206-9.44c-1.863-.85-3.828-1.515-5.571-2.59-4.825-2.975-4.303-23.308.685-25.45 10.396-4.462 11.436-.396 14.247 10.501.29 1.123 3.385 13.124 3.366 14.104-.04 1.893-3.115 3.459-3.473 3.642l-4.147 2.118-5.107-2.324Zm20.427-27.127v-4.932l6.618-2.258c.663-.226 6.365-2.165 8.67-1.158 2.498 1.092 1.753 1.872 7.28 18.736l1.992 6.108-3.162 2.06c-4.884 3.18-12.456 3.909-14.277 2.432-1.083-.877-7.121-16.238-7.121-20.988Zm35.205 10.341c-2.714-3.266-4.881-17.525-3.769-21.885.936-3.66 11.027-6.935 14.24-4.856 2.687 1.738 9.058 23.487 7.16 26.05-1.728 2.333-15.425 3.347-17.631.691Zm46.589-19.94 1.673 10.768-2.623 1.924c-5.036 3.684-12 1.187-12.98.834-6.236-2.237-11.527-23.922-4.732-28.746.813-.578 7.814-5.548 12.326-1.868 4.221 3.444 6.112 15.647 6.336 17.088Zm7.935-11.306-1.035-10.587 5.213-2.18c11.322-4.726 13.458-2.576 15.587 15.73l1.396 12.007-3.083 2.554c-4.31 3.568-10.95 3.071-13.688-.321-3.102-3.848-4.254-15.789-4.39-17.203Zm32.007 8.237c-3.152-6.1-4.537-24.763-1.452-27.988 6.292-6.577 15.248-3.24 15.676 16.02.41 18.395-9.001 22.066-14.224 11.968Zm39.568-12.067.973 8.921-3.405 2.385c-14.205 9.921-17.61-20.642-11.9-28.894 1.724-2.49 6.617-3.852 8.731-2.33 3.72 2.676 5.422 18.272 5.601 19.918Zm12.63 11.868c-.975-1.188-5.385-25.667-3.353-29.57 2.685-5.154 13.766-6.783 15.87 4.462.368 1.964 3.936 21.023-.562 24.972-2.692 2.366-9.868 2.673-11.956.136Z"/>
  <path fill="url(#imgCC2)" d="m816.843 602.05-3.605 8.884c-1.52-.487-4.537-1.831-6.71-3.002-2.348-1.26-5.47-1.733-7.719-1.171-2.447.616-4.643.175-6.262-1.26-1.375-1.217-3.807-2.448-5.41-2.736-7.41-1.346-1.877-36.255 5.745-36.255 5.622 0 9.164 3.867 10.304 11.269l1.078 6.968 2.084-7.02c3.023-10.2 7.917-9.432 9.87 1.548 1.276 7.186.068 22.414.625 22.774Zm0 0 .4-.99c-.186.744-.315 1.046-.4.99Zm-13.026-9.644c-.076-5.447-.26-5.774-1.49-2.704-1.253 3.146-.639 8.906.957 8.906.342 0 .585-2.79.54-6.202h-.007Zm-583.37 225.676c-4.5-3.784-8.344-13.646-6.848-17.553 1.035-2.698 4.432-2.59 6.764.212 1.823 2.204 16.262 9.424 18.831 9.424 3.473 0 1.998 7.91-1.96 10.555-3.68 2.455-12.357 1.093-16.787-2.638Zm54.758-11.49c-3.07-4.687-9.665-22.28-9.665-25.783 0-6.382 15.341-11.222 20.205-6.367 1.276 1.276 6.003 33.17 5.122 34.598-1.81 2.918-13.322 1.125-15.662-2.447Zm31.507 1.62c-3.862-5.084-5.67-28.109-2.562-32.546 8.96-12.797 19.591-4.037 20.805 17.15l.8 14.012-4.21 1.117c-7.25 1.924-13.497 2.029-14.833.266Zm36.17-4.446c-.814-.813-1.48-3.153-1.496-5.198-.008-2.052-.98-7.332-2.166-11.748-3.26-12.15-1.908-15.988 5.905-16.687 2.369-.214 4.96-.562 5.768-.776 5.37-1.443 7.75 2.348 9.573 15.215.715 5.015 1.696 10.15 2.182 11.42 2.21 5.769-15 12.53-19.766 7.774Zm-108.788-1.49c-4.315-1.883-12.324-10.03-12.324-12.545 0-6.231 8.427-7.12 13.86-1.452 4.035 4.218 8.025 5.753 8.025 3.101 0-.708-.988-2.105-2.188-3.1-3.946-3.277-2.69-8.535 2.552-10.739 5.76-2.416 9.43-.91 10.767 4.416.526 2.09 3.815 7.31 7.311 11.604 3.496 4.293 6.361 8.145 6.361 8.556 0 1.809-5.608.54-6.369-1.436-1.184-3.085-8.14-2.706-13.327.73-5.078 3.36-8.474 3.563-14.668.865Zm147.786-2.097c-4.772-2.863-5.015-3.587-6.155-17.736-1.056-13.183-.638-13.891 9.013-15.144 9.476-1.232 10.25-.092 11.565 17.098l.957 12.424-4.945 3.024c-5.731 3.488-5.221 3.472-10.435.334Zm32.289-4.11c-2.811-3.405-2.562-27.57.311-30.365 1.132-1.111 4.476-2.455 7.424-2.996l5.365-.973 2.295 4.447c1.566 3.023 2.304 8.412 2.304 16.847v12.41l-5.473 1.519c-7.553 2.097-9.901 1.922-12.226-.89Zm33.223-1.4c-3.846-12.628-1.026-33.358 4.361-32.006 1.93.486 4.803.198 6.37-.646 6.808-3.64 14.375 25.648 8.212 31.81-3.433 3.434-17.955 4.08-18.943.843Zm35.055-4.444c-4.842-4.84.607-31.78 6.223-30.83 1.412.235 3.708-.516 5.099-1.671 6.414-5.319 10.995 24.286 4.9 31.649-1.556 1.893-14.506 2.57-16.222.852Zm32.098-7.295c-5.389-5.389.395-27.578 7.476-28.725 7.964-1.292 9.06.533 9.06 15.092v12.767l-5.473.905c-7.09 1.169-9.87 1.161-11.063-.04Zm282.348-.882c-.85-1.025-1.747-9.065-2.005-17.873l-.456-16.018 3.062-.442c2.006-.28 3.936.889 5.57 3.383 1.9 2.895 2.963 3.433 4.408 2.241 5.16-4.286 8.51 3.01 4.96 10.799-1.898 4.163-2.78 4.49-5.31 1.968-1.36-1.37-1.747-.54-1.747 3.716 0 9.369-4.941 16.489-8.482 12.226Zm-30.13-2.79c-4.36-12.811-3.83-34.749.843-34.749 5.708 0 11.52 21.195 8.717 31.756-1.155 4.377-8.32 6.62-9.56 2.994Zm16.21-2.285c-.411-2.204-1.582-9.507-2.592-16.224l-1.854-12.205 2.759-2.022c5.219-3.814 8.42.821 10.289 14.925 1.822 13.754-6.231 28.291-8.603 15.526Zm-238.429 1.52-3.305-.639.95-11.93c1.299-16.256 9.24-25.031 16.286-17.987 3.525 3.525 4.05 27.06.63 28.116-1.375.426-3.632 1.375-5.03 2.12-2.592 1.383-3.778 1.428-9.53.32Zm180.06-.822c-2.706-1.976-3.83-23.344-1.55-29.295.98-2.544 11.9-3.898 13.724-1.702 1.969 2.372 1.572 28.04-.457 29.721-3.23 2.683-8.943 3.305-11.717 1.276Zm-28.678-1.534-3.625-1.817-.062-11.626c-.083-16.619 7.677-25.184 16.316-18.01 10.014 8.313-1.512 37.014-12.63 31.453Zm49.674-.89c-2.12-3.974-1.93-25.35.243-27.532 7.18-7.173 10.836-1.671 12.167 18.314l.797 12.037h-5.844c-4.293 0-6.254-.753-7.363-2.818Zm-79.144-.517c-5.32-2.105-5.593-3.268-4.53-19.43.981-14.925 2.181-16.97 8.224-13.975 1.747.867 4.49 1.778 6.102 2.029 5.371.836 4.71 24.894-.836 30.442-3.132 3.123-3.36 3.154-8.96.934Zm-87.228-2.356-3.648-1.033.5-13.047c.57-14.567 1.133-15.579 10.435-18.748 9.24-3.153 10.19-1.754 10.608 15.723l.343 14.263-5.836 2.052c-6.393 2.257-7.046 2.296-12.402.79ZM304.934 636.83c.004-4.013 2.974-6.116 8.676-6.147l5.184-.03 5.714-9.598c13.565-22.782 19.788-13.306 7.363 11.21l-3.7 7.31-5.418-.98c-2.98-.534-6.134-1.535-7-2.22-.927-.73-2.742-.364-4.376.873-3.827 2.9-6.44 2.73-6.443-.41v-.008Zm42.568 7.622-4.848-2.165 1.033-13.45c1.566-20.419 7.31-26.726 16.362-17.972 3.556 3.442 6.762 31.529 3.8 33.36-3.405 2.096-11.879 2.219-16.347.227Zm36.825-4.072c-.342-.904-.782-7.888-.98-15.51l-.356-13.86 5.106-.152c2.804-.084 6.169-.617 7.469-1.18 6.8-2.946 10.555 19.378 4.515 26.84-2.986 3.687-14.736 6.566-15.754 3.862Zm30.114-10.296c-1.336-1.611-1.284-5.01.238-14.956l1.966-12.873 3.467-.494c1.914-.274 4.422-1.443 5.577-2.607 3.593-3.593 6.574.312 5.646 7.395-.426 3.26-1.2 9.384-1.726 13.617-1.216 9.902-10.265 15.822-15.168 9.918Zm32.571-6.338c-4.818-3.938-5.472-26.992-.881-31.126 8.205-7.402 13.116-2.53 14.407 14.263l.957 12.41-4.24 3.464c-5.076 4.158-6.224 4.263-10.243.989Zm30.099-6.012c-5.243-1.459-6.823-13.48-3.67-27.85.911-4.149 11.24-7.72 13.959-4.826 5.723 6.087 5.579 28.854-.205 31.848-4.468 2.31-4.696 2.326-10.084.828Zm29.188-3.062c-4.772-2.949-1.68-30.654 3.42-30.654 1.793 0 4.013-.745 4.916-1.65 4.643-4.642 8.542 3.61 9.407 19.887l.473 8.754h-4.058c-2.235 0-4.537.714-5.107 1.588-1.43 2.16-6.892 3.412-9.051 2.075Zm30.252-6.785c-2.591-5.692.334-22.98 4.013-23.642 1.603-.288 4.064-1.55 5.47-2.795 5.167-4.583 9.317-.479 11.278 11.154 2.073 12.295 1.65 15.38-2.181 15.83-1.597.188-6.072.912-9.954 1.61l-7.06 1.269-1.566-3.426Zm43.268 1.496c-4.976-2.037-6.094-5.266-6.283-18.275-.144-9.499 1.801-13.138 5.713-10.722.67.41 2.986-.055 5.146-1.033l3.927-1.794 2.743 3.389c1.559 1.93 2.753 5.692 2.759 8.701 0 2.924.7 7.819 1.55 10.88 2.448 8.794-5.143 13.11-15.555 8.854Zm150.218-9.05-4.567-2.455-1.68-10.213a2163.074 2163.074 0 0 1-2.392-14.75c-.996-6.421 3.768-8.973 14.923-8.008 2.486.212 4.523 7.977 5.616 21.49l.965 11.853-3.373 2.371c-4.006 2.805-3.7 2.811-9.492-.288Zm40.397.563c-2.805-3.381-1.717-19.41 2.158-31.605 1.155-3.647 8.793-3.807 10.668-.23 1.368 2.608-2.377 28.446-4.65 32.1-1.526 2.454-6.034 2.31-8.176-.265ZM658.02 591.54c0-9.544 2.008-19.976 4.058-21.14.57-.319 3.52-1.033 6.552-1.58l5.515-.995 2.144 5.128c1.185 2.836 2.152 9.645 2.152 15.214v10.075l-4.743 1.088c-2.615.6-7.204 1.276-10.213 1.505l-5.47.417.005-9.712Zm92.025 7.28c-2.212-4.118-2.301-28.945-.12-31.573 6.04-7.272 15.722-.996 13.016 8.435-.737 2.568-1.336 8.404-1.336 12.964 0 11.322-7.441 17.872-11.56 10.174Zm-55.96-5.683c-.402-2.204-1.496-7.775-2.424-12.372-2.3-11.406-.933-13.685 8.184-13.594l7.031.068 1.648 5.107c.904 2.81 2.105 9.536 2.675 14.955l1.027 9.848h-17.41l-.73-4.012ZM292.964 480.974c-6.184-4.528-8.457-7.63-8.457-11.541 0-1.726-1.315-4.333-2.918-5.784-4.172-3.776-3.032-10.942 1.74-10.942 2.188 0 13.944 12.605 15.053 16.148.616 1.953 2.303 5.068 3.746 6.921 5.426 6.955-1.435 10.846-9.164 5.198Zm16.582-4.558c-14.051-11.923-21.545-34.804-9.256-28.223 4.437 2.37 17.835 26.657 15.973 28.951-1.968 2.432-3.145 2.303-6.717-.728Zm11.382-9.485c-10.911-25.136-9.65-33.192 5.206-33.192 3.935 0 15.275 23.01 15.275 30.998 0 11.261-15.806 12.956-20.48 2.194Zm35.96-8.754c-13.026-20.395-11.08-36.557 4.126-34.347 3.122.457 10.92 14.135 11.056 19.393.046 1.603 1.019 4.56 2.167 6.566 3.046 5.334 2.675 6.968-2.12 9.444-6.385 3.307-12.73 2.866-15.229-1.056Zm29.24-20.105c-6.07-17.38 3.337-31.431 12.599-18.816 4.355 5.912 11.256 24.453 11.256 30.221 0 1.702-8.93 4.689-13.968 4.68l-4.27-.007-5.616-16.078Zm44.28 7.544c-4.614-1.216-11.46-14.734-12.683-25.047l-.858-7.256h3.951c2.165 0 5.22-.685 6.785-1.52 4.4-2.355 7.084.137 11.892 11.049 5.943 13.489 6.976 21.11 2.858 21.11-1.663 0-3.428.662-3.92 1.46-.996 1.61-2.562 1.65-8.024.204Zm140.469-6.216c-5.26-3.328-8.383-11.923-8.414-23.138l-.014-8.055 7.842.243c10.312.311 11.968 2.22 13.32 15.312.617 5.888 1.566 11.794 2.112 13.115 2.076 5.01-8.168 6.749-14.846 2.523Zm-109.67-2.141c-1.696-2.152-3.077-5.078-3.077-6.506 0-1.422-1.407-6.246-3.117-10.722-3.443-8.998-2.386-12.554 3.732-12.554 1.747 0 3.898-.722 4.78-1.603 5.767-5.768 17.317 13.48 18.441 30.723l.238 3.593-17.919.988-3.078-3.92Zm34.955-3.967c-.973-3.367-3.031-10.145-4.582-15.063-1.55-4.924-2.81-10.334-2.81-12.036V403.1h16.01l3.715 5.896c3.305 5.237 4.667 9.484 7.494 23.444.813 4.027-1.467 5.114-13.52 6.458l-4.543.502-1.764-6.108Zm36.658 1.26c-.547-.852-1.755-4.164-2.69-7.378-.927-3.206-2.895-8.937-4.362-12.736l-2.667-6.9 2.165-2.113c1.558-1.52 4.142-1.877 9.271-1.276l7.105.828 3.465 7.568c4.34 9.483 6.034 20.35 3.412 21.963-2.842 1.755-14.567 1.791-15.7.045Zm111.348-4.096c-.34-1.002-1.345-5.432-2.234-9.848-.88-4.416-1.96-9.75-2.387-11.862-.933-4.597-.31-5.06 8.55-6.39l6.861-1.026.868 4.17c.47 2.288 2.202 7.447 3.844 11.46 4.88 11.908 4.88 11.871-.296 13.678-6.27 2.189-14.43 2.09-15.206-.182Zm34.773-5.753c-9.353-14.483-9.081-30.958.548-32.378l6.155-.92 2.022 4.028c1.116 2.21 3.206 8.488 4.657 13.95l2.646 9.934-2.798 2.698c-3.739 3.6-11.612 5.204-13.23 2.688Zm29.196-8.837c-3.01-5.782-5.13-14.46-5.418-22.181l-.204-5.768 5.606-1.337c7.737-1.854 15.55 12.394 15.55 28.375 0 6.945-12.023 7.651-15.534.91Zm110.08.29c-2.767-1.611-2.54-26.78.31-34.272 1.765-4.643 6.406-2.834 7.897 3.07.774 3.085 1.344 3.488 3.017 2.105 5.57-4.628 6.733 9.575 1.998 24.43-1.862 5.843-4.179 8.314-4.179 4.454 0-1.361-.389-1.361-1.757 0-2.097 2.097-3.974 2.15-7.287.212Zm-80.824-1.041c-2.568-1.734-6.686-19.477-6.179-26.605l.48-6.566 4.096-.47c6.45-.738 15.601 16.177 15.601 28.853 0 3.867-10.191 7.355-13.998 4.788Zm46.916-.821c-3.564-2.607-8.822-29.029-6.61-33.17 5.464-10.206 14.035-.981 16.216 17.432 1.969 16.68-1.2 21.877-9.606 15.738Zm-23.99-1.498c-6.9-8.305-6.603-33.04.395-33.04h5.038l1.694 5.138c.936 2.826 1.802 10.54 1.94 17.142l.243 12.007-3.778.441c-2.074.243-4.567-.517-5.532-1.688Zm42.465.151c-2.44-2.986-3.938-32.788-1.786-35.38 5.904-7.12 10.197-1.033 11.526 16.332 1.399 18.373-3.099 27.188-9.74 19.048ZM193.965 312.291c-2.364-3.258-4.293-6.816-4.293-7.917 0-1.094-2.957-5.617-6.566-10.046-7.038-8.634-7.373-9.56-5.085-13.837 1.132-2.105 2.507-2.578 5.669-1.946 2.706.54 5.54-.062 8.079-1.725l3.904-2.56 3.801 2.84c2.097 1.566 4.597 5.114 5.562 7.88 1.93 5.549 7.69 17.668 10.98 23.11 1.657 2.734 1.71 3.618.25 4.14-1.017.372-2.667 1.491-3.668 2.493-.996 1.004-4.636 2.196-8.08 2.661l-6.26.835-4.293-5.928Zm35.403-14.642c-2.933-3.123-7.158-10.015-12.995-21.195-2.818-5.41-1.495-9.437 3.36-10.213 1.52-.243 4.155-1.132 5.865-1.967 4.835-2.395 8.762.69 13.845 10.851 2.494 4.984 6.095 11.155 8.02 13.71 7.642 10.189-9.128 18.357-18.095 8.814Zm43.557-5.259c-8.336-1.505-21.763-23.245-18.04-29.219 2.47-3.959 14.416-5.525 17.935-2.34 2.628 2.379 16.687 27.114 15.722 27.669a421.64 421.64 0 0 0-4.356 2.698c-2.173 1.36-4.474 2.393-5.106 2.286-.623-.106-3.397-.6-6.155-1.094Zm155.81-1.208c-6.473-.988-9.339-5.883-15.486-26.361-2.918-9.711-1.794-11.026 8.238-9.696 8.428 1.117 14.758 5.19 14.758 9.505 0 1.558 1.64 6.877 3.647 11.818 4.642 11.429 2.667 16.755-5.768 15.547-.844-.122-3.268-.486-5.388-.813Zm-123.072-2.819c-11.688-11.687-16.703-39.424-6.233-34.508 1.825.852 5.935 2.12 9.151 2.813l5.836 1.26 4.597 9.484c5.63 11.604 8.579 20.138 7.371 21.346-2.227 2.226-18.405 1.922-20.722-.395Zm44.5 1.33-5.107-.555-6.4-13.762c-6.77-14.56-6.678-19.453.327-17.623 1.597.419 4.142.084 5.677-.737 4.468-2.385 9.036 1.81 12.736 11.703 1.817 4.848 4.21 9.575 5.328 10.501 3.198 2.654 2.628 10.077-.776 10.077-1.535 0-3.67.212-4.74.47-1.065.267-4.242.229-7.045-.075Zm37.205.067c-12.624-3.365-20.656-31.155-9.484-32.797 9.628-1.422 31.315 24.948 25.387 30.867-1.687 1.687-12.096 2.95-15.903 1.93Zm81.658-.037c-3.906-.494-5.151-1.992-10.577-12.7-9.013-17.758-7.888-23.038 4.21-19.785 12.294 3.313 29.073 30.6 18.815 30.6-1.513 0-3.155.654-3.647 1.46-.502.805-1.689 1.351-2.646 1.223-.95-.13-3.723-.487-6.155-.798Zm39.181-1.443c-3.959-.769-5.16-2.348-8.322-10.906-1.39-3.747-3.473-7.606-4.628-8.563-1.161-.965-2.11-3.237-2.11-5.054v-3.298l9.436-1.011c10.29-1.101 11.908-.63 14.051 4.097.782 1.723 3.358 6.746 5.722 11.162 6.976 13.04 2.949 16.901-14.149 13.573Zm92.739-15.398c-.092-1.807-.298-6.89-.465-11.306-.16-4.416-.751-9.028-1.321-10.258-1.786-3.861 2.393-7.493 9.544-8.299l6.686-.753 1.012 3.17c.554 1.748.539 8.761-.031 15.601l-1.033 12.423-3.564 1.354c-6.451 2.453-10.647 1.702-10.828-1.932Zm30.289-3.548c-1.307-1.315-1.156-29.978.175-32.06 4.035-6.345 15.008-2.789 14.65 4.734-.075 1.535.288 7.205.814 12.592l.941 9.81-4.019 2.03c-5.313 2.674-11.384 4.073-12.561 2.894Zm29.073-9.583c-5.462-18.716-3.822-29.065 4.91-30.987 5.607-1.232 7.379-.084 7.408 4.809.008 2.167.928 7.797 2.045 12.532l2.02 8.594-3.435 3.441c-3.723 3.718-12.035 4.751-12.948 1.611Zm32.357-7.978c-3.313-.494-4.011-1.344-4.011-4.81 0-2.317-.73-7.6-1.619-11.749-2.35-10.958 5.79-21.116 11.96-14.938 1.452 1.451 7.076 21.627 7.128 25.578.031 2.036-7.363 7.569-9.013 6.748-.235-.123-2.24-.494-4.445-.829Zm26.262-10.989c-7.02-18.928.602-40.852 10.684-30.744 4.712 4.72 6.94 26.641 3.062 30.153-3.122 2.826-12.765 3.244-13.746.591Zm29.599-10.213c-2.797-6.854-4.325-21.383-2.727-25.965l1.548-4.46 5.935.44c6.953.517 7.873 2.493 9.165 19.675l.782 10.477-2.903 1.558c-5 2.675-10.318 1.893-11.8-1.725Zm92.595-.874c-1.613-.523-4.644-2.12-6.749-3.548l-3.83-2.599-.988-11.991c-.547-6.597-1.292-13.009-1.648-14.256-1.103-3.783 2.764-7.72 6.427-6.557 4.986 1.58 7.083 6.131 10.336 22.463 3.54 17.767 3.336 18.724-3.548 16.488Zm-65.247-5.69c-.942-2.204-1.747-9.59-1.792-16.415l-.076-12.401 5.47-.455c6.741-.557 7.941 1.838 8.807 17.469.86 15.526-7.462 23.436-12.41 11.802Zm28.23-1.634c-6.429-6.421-5.357-25.48 1.802-32.137 6.338-5.896 9.598.198 11.771 21.992 1.185 11.9-6.254 17.462-13.572 10.145Z"/>
  <path fill="url(#imgCC3)" d="M228.085 767.001c-2.48-6.449 4.863-26.412 10.41-26.869 1.015-.084 2.048.156 3.024.453 5.375 1.64-8.145 40.2-13.434 26.416Zm24.886-1.237c-6.287-16.376 10.523-41.846 18.328-30.822 3.777 5.336 1.307 27.618-2.751 29.94-4.502 2.576-14.586 3.46-15.577.882Zm35.958-1.498c-1.978-2.385-1.908-25.161 5.437-28.957 5.891-3.042 14.987.66 14.921 6.753-.204 18.903-13.3 30.705-20.358 22.204Zm46.56-29.667 8.108.426v21.415l-3.45 2.788c-3.671 2.968-15.63 3.68-17 1.291-6.895-12.032 2.047-26.47 12.342-25.92Zm35.1-3.449 6.566-.502 1.253 6.566c1.155 6.005-.615 15.973-2.852 18.547-2.076 2.387-15.316 3.642-17.734 1.689-1.377-1.113-2.564-8.26-.222-16.684 2.447-8.799 3.87-8.929 12.99-9.616Zm42.205 9.712-1.71 9.779-4.88 2.037c-18.033 7.542-16.284-9.138-16.122-10.677.208-1.982 1.959-18.685 17.85-17.371 8.256.68 5.348 13.434 4.862 16.232Zm17.393 11.368c-12.314-1.887-6.37-31.02 6.976-33.102 7.46-1.163 8.663 4.196 9.166 7.445.261 1.69 2.559 16.535-.982 21.36-2.467 3.361-6.036 4.513-6.657 4.713-4.161 1.345-4.188.248-8.503-.416Zm53.057-20.107.419 14.248-5.107 1.65c-4.735 1.509-13.045 1.816-14.64-1.115-.894-1.638-7.453-26.687-1.2-32.077 3.481-3.002 14.832-2.951 17.237-1.004 2.825 2.284 3.249 16.812 3.291 18.298Zm17.242 13.147c-2.93-3.61-2.344-26.154-2.286-28.436.41-15.821 17.977-12.263 21.232 8.64.233 1.5 2.437 15.654-3.566 18.646-9.523 4.747-14.905 1.733-15.38 1.15Zm30.017-7.45c-3.257-8.475-.518-28 3.466-31.74.49-.46 10.945-2.633 12.491-1.87 5.409 2.67 4.14 23.17-1.385 31.018-5.03 7.145-12.514 7.952-14.572 2.593Zm236.951-7.156-3.412-3.632-2.035 2.902c-2.57 3.671-9.917 3.883-11.923.35l-1.445-2.554-2.043 2.767c-12.958 17.531-13.81-37.631-1.459-28.716.685.494 4.317 11.99 6.254 3.206 1.743-7.902 9.11.041 10.214-1.103.542-.564 4.956-5.145 9.596 1.938l2.371 3.618 2.683-3.252c3.58-4.362 7.128-2.197 10.433 6.375l2.478 6.413.076-6.019c.123-9.21 5.216-11.843 10.297-4.141 2.293 3.476 3.857.529 4.3.381 5.12-1.708 6.12-2.655 8.93 1.885.776 1.255 3.329 5.377 3.45 18.107l.098 10.214-3.777.441c-1.068.125-2.216.07-3.208-.344-1.634-.685-2.839-2.187-4.47-2.87-1.763-.762-3.913 1.734-5.675.971-6.23-2.694-5.428-12.038-8.402-5.995-1.362 2.768-.897 7.112-8.74 2.933-3.212-1.712-3.246-1.539-6.782-.428-3.529 1.11-7.342-2.949-7.809-3.447Zm-4.968-12.022c-1.381-1.376-2.733.634-1.49 2.721.066.111.81 1.362 1.225 1.049.57-.436 1.07-2.951.265-3.77Zm-182.416-.92.212 12.28-4.034 2.88c-6.301 4.493-18.06 4.334-18.415-9.599-.045-1.786-.346-13.66 8.077-20.817 2.171-1.844 10.149-1.974 12.252 1.527 1.714 2.854 1.889 12.62 1.908 13.729Zm129.708 13.086-2.766-2.021 1.817-9.285c1.002-5.101 2.18-11.332 2.628-13.847l.813-4.566 6.794-.769c10.964-1.235 8.972 4.04 8.108 15.009-.113 1.426-1.031 13.106-5.434 17.024-4.443 3.954-11.181-.975-11.96-1.545Zm-27.41-1.55c-6.347-6.342-3.939-23.18 2.617-29.904 4.992-5.123 6.036-2.479 13.152-2.18-.36 7.041-.064 14.105-.424 21.145-.25 4.92-3.08 12.652-6.596 14.11-3.644 1.507-9.713-3.522-8.749-3.171ZM317.335 619.476c-7.075-1.662-6.342-11.914-8.717-17.867-2.305-5.777-3.144-5.575-3.256-11.831-.177-9.95 11.458-17.664 17.731 1.266.675 2.037 6.854 20.674 3.96 26.517-1.859 3.755-8.945 2.095-9.718 1.915Zm-20.556-4.09c-2.329-9.219 6.184-12.008 7.75-5.999 1.26 4.836-2.899 8.997-4.883 9.454-1.893.438-2.78-3.106-2.867-3.455Zm32.668-24.332-.44-10.684 4.673-.447c5.188-.508 4.823 2 10.058 1.791.134-.005 2.842-5.196 5.065-6.534 2.292-1.38 4.813-2.334 7.196-3.548 7.93-4.037 15.27-11.795 18.296-11.233 4.511.839 4.412 20.331 4.402 22.136l-.083 16.758-4.377.85c-8.161 1.605-14.81-5.264-15.754-6.24-1.46-1.509-7.929 5.51-9.2 6.23-1.902 1.076-4.357 1.082-6.104 2.397-1.836 1.38-2.552 3.883-4.268 5.412-2.628 2.342-5.303.334-5.665.062-3.198-2.399-3.74-15.561-3.799-16.95Zm68.856 4.636c-1.483-.913-7.27-27.078-4.054-31.636 2.24-3.172 13.288-5.4 14.51-5.645 6.274-1.264 12.164 20.378 10.028 30.332-2.212 10.295-18.308 8.29-20.484 6.949Zm34.263-10.258c-5.737-9.277.613-36.522 14.462-30.328 8.857 3.963 2.976 16.716.889 25.972-1.34 5.94-13.374 7.552-15.35 4.356Zm30.746-8.108c-2.398-2.399-1.873-22.074 1.78-25.18 3.043-2.59 12.258-4.804 13.668-2.855 6.381 8.819-7.46 36.022-15.448 28.035Zm30.449-26.134 2.029-5.836 6.14-1.216c.53-.105 5.184-1.023 6.752-.179 4.855 2.613-2.339 39.028-15.248 26.64-2.013-1.932-2.186-12.194.327-19.41Zm79.349 3.83-.123 13.077-4.102 2.128c-4.518 2.329-4.975 2.87-9.204.045-8.474-5.66-9.137-31.7 9.336-30.785 2.577.128 3.371 3.4 3.466 3.799.712 2.934.637 10.797.627 11.736Zm-49.965 13.929c-1.042-.333-2.643-.842-2.651-1.938-.002-.22 4.38-18.338 4.69-19.358 2.537-8.334 5.237-5.826 13.89-6.676.337 4.02 1.607 7.929 1.943 11.95.808 9.657-8.197 23.095-17.872 16.022Zm276.758-11.452c-1.234-.76-2.444-1.638-3.352-2.767-.87-1.083-.998-2.645-1.87-3.729-5.19 5.227-4.972 6.554-7.168 5.58-5.646-2.51-5.286-28.609-5.253-31.134.024-1.626 3.803-11.54 12.62-4.714 3.67 2.843 4.052 1.89 12.999 3.516 7.65 1.39 3.314 7.653 8.878 9.623.928.33 3.99 1.415 2.889 11.958-.04.393-.48 4.59-2.342 4.348-1.42-.185-2.444-1.698-3.866-1.883-.385.87-1.593 1.185-1.976 2.054-.424.958 1.517 15.25-11.56 7.148Zm-116.646-32.781 7.585.272.22 13.724c.5 31.523-17.603 14.674-18.247 13.196-4.99-11.435 2.828-27.47 10.442-27.192Zm36.073 15.471 1.642 12.34-2.576 1.884c-4.71 3.446-16.718 1.905-16.304-8.242.123-2.951 1.998-4.708.938-12.487-.19-1.405-2.725-7.922 4.173-11.063 5.953-2.712 7.855.042 8.229.585 2.029 2.94 3.713 15.602 3.898 16.983Zm44.827 13.814c-8.472-4.568-4.978-6.996-6.17-16.473-2.088-16.6 10.356-24.829 14.194-18.901 4.049 6.25 7.957 44.05-8.024 35.374Zm-14.719-11.952.821 9.818-3.906 1.488c-24.01 9.118-23.056-43.278-3.227-34.242.325.15 2.332 1.064 3.093 3.227 2.06 5.866 3.085 18.117 3.22 19.709ZM271.011 441.657c-3.868-2.085-2.994-3.025-10.577-12.295-.568-.694-6.41-7.836-6.566-9.088-.212-1.699 7.322-9.747 9.696-9.879 2.015-.113 20.533 22.399 20.943 25.776.448 3.685-3.41 10.966-13.496 5.486Zm19.803-6.817c-4.618-7.308-3.418-7.876-7.91-15.234-1.062-1.74-9.28-10.596-6.022-17.465.817-1.72 1.867-.292 7.694-4.239 1.519-1.029 8.503-5.762 18.122 14.069 4.698 9.682 5.694 15.232.681 19.944-4.984 4.684-11.018 5.357-12.565 2.925Zm28.07-49.598 7.122-.38 6.937 12.418c3.815 6.832 7.347 14.467 7.85 16.967l.904 4.544-4.749 2.364c-7.75 3.875-13.905 1.473-15.152.06-3.173-3.593-13.312-24.824-13.944-29.52-.784-5.829 10.01-6.399 11.032-6.453Zm35.656 27.075c0-3.82-12.21-25.6-12.31-26.194-.753-4.577 7.676-7.986 8.563-8.344l6.702-2.704 3.268 2.142c2.926 1.934 13.48 21.024 15.016 27.585 1.693 7.233-12.277 9.07-13.58 9.24l-7.659 1.005v-2.73Zm35.547-41.292 5.638-1.793 2.873 2.87c2.475 2.477 12.692 25.35 12.844 28.961.05 1.199-14.007 10.239-21.353.798-8.952-11.507-9.46-18.372-9.592-20.152-.617-8.322 1.638-8.159 9.59-10.684Zm41.522 29.468-5.358-.47-3.762-7.188c-3.44-6.58-4.025-11.65-4.383-12.57-1.622-4.159-11.682-13.374 8.114-14.712l8.412-.57 3.786 5.996c3.96 6.277 9.213 21.953 8.205 24.324-.68 1.603-9.345 5.686-15.014 5.19Zm32.781-5.054c-5.472-7.17-11.678-29.289-8.89-32.903 6.692-8.679 30.07 10.061 30.351 29.546.049 3.404-19.092 6.464-21.46 3.357Zm52.221-10.038 1.9 6.385-2.75 2.006c-1.138.834-13.378 7.29-23.399-11.799-9.022-17.189-.227-21.189 2.656-21.29 5.847-.206 16.893 8.984 21.593 24.698Zm23.26 8.846c-6.938-2.9-5.336-7.56-6.19-9.988-1.673-4.76-16.644-15.769-3.558-17.436 11.57-1.472 14.573 3.05 15.271 4.105.744 1.117-.002 1.484 7.297 15.09 5.126 9.558-4.82 11.573-12.82 8.229Zm107.086-23.807-1.011-12.509 2.75-.889c8.163-2.665 8.572-4.538 11.503-1.998 2.257 1.957 8.984 20.086 7.262 25.476-2.037 6.375-12.787 11.153-16.385 8.43-2.798-2.117-3.996-16.999-4.119-18.51Zm34.462 8.586c-.498-.636-7.507-23.233-6.764-26.937 1.399-6.982 13.824-8.995 18.02-1.208 1.039 1.926 12.57 23.329 5.11 26.87-9.184 4.357-15.578 2.28-16.366 1.275Zm35.83-3.579c-6.286-.881-6.535-1.654-8.295-7.76-5.813-20.15-3.39-21.912-1.897-22.998 11.034-8.025 12.989-1.827 17.008 11.229.418 1.356 4.362 14.17 3.22 17.442-1.162 3.33-9.225 2.2-10.036 2.087Zm21.375-3.951c-1.53-.615-.714-2.873-4.74-14.355-2.209-6.293-3.082-6.102-2.979-12.718.086-5.525 11.528-10.684 15.004-5.453.808 1.216 7.998 20.78 6.115 28.178-.279 1.093-2.253 8.844-13.4 4.348Zm88.072-2.319c-2.058-3.249-2.885-34.294-.523-37.203 5.133-6.322 10.18 2.414 10.623 3.183 6.085 10.536 4.083 11.022 4.037 11.308-.646 3.95-3.844 11.188-4.24 12.84-2.314 9.722-.377 11.954-5.386 12.592-.418.052-2.575.327-4.511-2.72Zm-69.902-30.943-.296-4.314 6.482-1.294c8.783-1.766 9.555.846 10.297 9.75 1.336 16.063 3.116 20.304 1.87 24.025-2.061 6.145-8.951 1.93-9.615 1.523-6.966-4.262-8.567-27.219-8.738-29.69Zm29.18 23.732c-6.46-15.602-7.147-35.336 4.659-33.05.55.107 4.303.833 5.457 4.414 2.103 6.53 2.37 17.868 2.406 19.434l.313 13.131-10.837.897-1.998-4.826Zm24.097 2.387c-4.515-3.16-2.13-11.032-4.69-25.426-1.282-7.21-2.304-10.223 5.017-10.237 6.923-.011 6.939 1.736 7.96 8.605.343 2.307 3.88 26.118-1.39 29.126-2.174 1.239-6.426-1.738-6.897-2.068Zm-625.333-106.06c-7.939-10.414-10.9-25.21-7.594-27.29.906-.57 4.474.914 5.497.714 1.848-.364 3.866-3.228 10.054 1.603 7.39 5.766 15.522 19.167 14.372 22.255-2.955 7.937-17.849 8.584-22.329 2.717Zm37.145-8.928c-1.92-3.113-1.751-3.117-3.031-6.544-2.161-5.782-8.283-14.732-8.511-18.154-.321-4.852 9.493-6.198 10.462-6.33l6.772-.926 5.122 5.593c7.334 7.987 11.635 23.766 11.37 25.583-.81 5.564-11.25 5.641-12.335 5.65l-6.809.044-3.04-4.916Zm262.896-4.37.343 5.638-9.324.084c-16.337.148-13.67-7.204-15.713-13.938-.4-1.325-6.04-11.715-4.046-14.417 2.457-3.327 21.772-4.35 23.756 3.563 1.142 4.554.8 4.593 2.43 9.002.288.78 2.32 6.275 2.554 10.069Zm-221.665 1.078c-7.522-10.948-12.232-28.353-8.973-30.631 2.898-2.025 18.973-.642 21.612 5.373 5.126 11.682 10.943 23.64 10.052 25.834-.85 2.097-9.563 2.798-10.425 2.868l-9.385.753-2.88-4.197Zm125.013 2.592c-.477-.09-4.043-.76-5.348-2.837-.553-.88-7.673-20.603-3.819-25.842.829-1.126 10.487-8.063 17.827.409 3.03 3.496 9.472 14.751 8.365 23.646-.529 4.242-9.06 6.123-17.025 4.624Zm27.948-22.934.473-5.737 8.503-1.177c5.951-.827 16.07-1.51 19.172 20.63 2.974 21.242-29.916 7.83-28.148-13.716ZM303.71 246.515c-6.599-8.085-14.14-29.15-6.196-31.061 2.227-.535 15.99-.033 19.092 7.139 2.2 5.09 10.454 21.128 7.277 22.881-3.223 1.78-18.667 2.88-20.173 1.041Zm30.66-25.373.473-4.066 8.025.442c6.927.377 14.39.63 21.126 19.626 3.374 9.507.458 11.949-9.639 11.067-5.884-.511-6.748.537-10.215-4.26-9.042-12.505-9.882-21.827-9.77-22.81Zm274.235 2.029c-5.7-16.864.75-25.18 6.285-23.307 6.519 2.206 13.684 17.652 13.398 24.357-.35 8.175-11.116 8.175-12.297 8.175h-4.278l-3.108-9.225Zm30.495-5.365c-.597-2.312-6.78-21.133-3.04-24.9 1.313-1.326 13.11-6.802 16.5-.083 1.655 3.276 11.405 30.819-7.213 30.819h-4.728l-1.519-5.836Zm27.243-25.533-.304-7.295 6.922-1.337c.6-.116 6.696-1.293 7.647-.06 2.175 2.817 5.433 25.227 4.249 28.013-2.195 5.165-12.754 4.556-13.923 4.488-1.936-.11-3.617-.47-4.591-23.81Zm30.396 13.61c-.759-2.226-3.634-19.962-3.708-23.382-.074-3.449 8.285-11.886 11.974-9.295 4.758 3.344 9.995 23.41 7.771 27.292-2.634 4.6-14.73 9.219-16.037 5.384Zm27.538-13.974c-1.3-3.01-2.706-9.522-3.13-14.462l-.776-8.997 5.943-3.033c.692-.352 7.388-3.76 9.63-1.37 1.276 1.362 4.258 14.036 4.55 15.278l2.447 10.394-2.508 3.83c-2 3.04-3.67 3.83-8.162 3.83h-5.646l-2.348-5.47Zm45.64-21.043.905 13.808-2.699 1.975c-3.933 2.875-12.123 2.075-13.753-.827-.864-1.537-5.782-25.278-5.362-26.303 3.73-9.098 15.87-9.894 18.176-6.194 1.764 2.83 2.64 16.125 2.733 17.541Zm29.379-7.896.492 15.1-3.366 2.356c-4.773 3.348-10.178 1.97-11.322 1.033-2.248-1.843-5.312-31.688-3.503-33.777 1.963-2.267 16.76-13.737 17.699 15.288Zm16.306 14.987c-4.6-2.303-11.293-31.865-3.51-35.802 1.963-.992 12.217-1.438 13.71 10.876 2.442 20.183 4.637 21.848 3.372 23.93-.815 1.342-9.81 2.881-13.572.996Z"/>
  <path fill="url(#imgCC4)" d="m310.77 728.664-3.648-1.085.356-15.244c.463-19.59.144-18.967 9.293-18.2 9.53.799 16.857 26.612 9.324 32.858-2.576 2.136-10.783 3.033-15.325 1.671Zm35.16-1.791-3.496-1.4.965-14.796c1.025-15.646 2.227-18.692 7.28-18.533 1.717.053 4.552-.35 6.285-.897 4.976-1.573 6.785 3.663 6.542 18.915-.274 17.158-5.07 21.718-17.576 16.71Zm-71.546-1.203c-8.017-2.134-6.786-31.254 1.55-36.68 8.854-5.752 14.242 2.082 14.736 21.423l.403 15.843-6.566.183c-3.618.099-8.17-.243-10.123-.769Zm-25.76-2.142c-1.786-4.659 11.224-24.682 14.142-21.764.722.716.008 4.583-1.626 8.892-1.595 4.194-2.895 8.86-2.895 10.365 0 4.309-8.124 6.421-9.621 2.507Zm128.468-.996c-.356-.585.008-4.536.814-8.783.805-4.248 1.056-9.902.554-12.563-1.731-9.24 10.686-16.444 17.95-10.417 2.227 1.846 2.636 20.973.562 26.421-1.976 5.19-17.409 9.332-19.88 5.342Zm34.35-16.405c0-14.43 1.93-21.179 6.343-22.136 9.455-2.044 10.624-1.543 13.421 5.774l2.492 6.544-1.945 8.776c-1.391 6.254-2.622 8.785-4.278 8.785-1.278 0-2.95.578-3.71 1.284-.758.7-3.844 1.717-6.853 2.249l-5.47.972v-12.248Zm31.923.813c-5.32-13.664.965-31.224 11.283-31.559l5.563-.175 1.002 5.836c.557 3.206 1.232 10.106 1.514 15.32l.51 9.483-3.52.494c-1.937.275-4.445 1.428-5.577 2.553-3.542 3.55-9.028 2.554-10.775-1.952Zm37.38-4.567-4.377-.936-.199-7.28c-.1-4.003-.395-7.933-.653-8.738-.251-.805-.06-2.774.426-4.377.486-1.603 1.276-4.712 1.77-6.908 1.747-7.857 14.598-10.715 16.086-3.572 5.26 25.138 5.176 26.202-2.157 30.033-3.238 1.679-6.027 2.986-6.2 2.887-.175-.092-2.296-.594-4.696-1.11Zm35.076-2.903c-11.178-2.402-9.211-35.837 2.173-36.924 8.746-.83 10.571 1.163 11.808 12.858.578 5.51 1.514 12.423 2.068 15.357l1.01 5.35-4.474 2.31c-4.728 2.446-5.692 2.522-12.585 1.05Zm280.084-1.626c-.494-.792-1.998-4.895-3.358-9.12l-2.47-7.682-.456 6.931c-.51 7.698-3.95 9.361-9.324 4.49l-2.698-2.432-2.947 3.162c-3.93 4.217-5.252 4.005-7.995-1.315-1.619-3.123-2.843-4.066-4.05-3.107-12.889 10.205-21.065-3.922-15.875-27.426 1.582-7.159 9.476-7.72 10.237-.73.515 4.736 3.177 8.778 3.177 4.833 0-4.072 5.219-9.332 7.491-7.552 3.276 2.576 8.723 3.373 11.445 1.664 4.118-2.568 7.044-.304 9.292 7.188 2.084 6.96 2.714 6.756 4.516-1.452 1.23-5.608 4.931-6.701 8.153-2.424 2.233 2.957 2.925 3.162 4.962 1.467 1.883-1.566 3.146-1.61 6.179-.227l3.807 1.731-.936 8.908c-.51 4.9-.926 12.096-.926 15.987 0 10.822-4.69 10.084-8.268-1.306l-2.638-8.39-.478 7.256c-.594 9.005-4.126 13.939-6.84 9.546Zm-249.308-6.885c-5.463-18.549-2.234-30.275 7.904-28.664l7.758 1.239 1.2 4.612c.654 2.531.693 9.097.091 14.59l-1.1 9.978-7.539.434c-6.233.364-7.676-.016-8.314-2.189Zm34.82-2.175c-4.553-2.583-5.062-4.11-5.086-15.228-.029-11.709.745-12.864 9.575-14.323 8.072-1.33 9.492.782 10.663 15.866 1.23 15.89-3.587 20.245-15.153 13.685Zm147.776-1.548-3.951-3.276-.35-12.767c-.364-13.587.154-14.915 6.414-16.466 5.054-1.247 6.194 1.413 7.637 17.765 1.512 17.106-1.467 21.605-9.75 14.744Zm-27.408-.054c-5.054-2.325-5.344-2.987-5.093-11.634.525-18.193 2.303-21.634 10.579-20.404 5.441.807 5.6 1.247 6.838 18.731l.829 11.795-3.732 1.702c-4.398 2.006-4.696 1.998-9.421-.19Zm-36.606-5.531c-2.379-2.38-2.947-4.53-2.614-9.85.23-3.746-.097-8.327-.737-10.197-3.084-8.997 3.602-14.545 10.973-9.096 2.333 1.725 4.827 2.774 5.548 2.324 2.704-1.67 5.442 3.397 5.212 9.659-.128 3.488-.348 9.46-.486 13.27l-.257 6.929h-7.295c-5.45 0-8.071-.769-10.344-3.04ZM310.851 568.235c-3.25-3.42-5.94-7.94-6.503-10.927-.525-2.797-1.924-5.898-3.1-6.879-1.186-.98-2.15-3.38-2.15-5.334v-3.556l6.184.45 6.194.447 4.787 7.295c11.953 18.23 7.81 32.402-5.412 18.504Zm21.956-3.967c-2.494-2.834-4.53-5.7-4.53-6.36 0-.67-1.976-3.685-4.376-6.718-5.86-7.363-5.815-11.855.128-13.162 5.889-1.292 10.943 3.404 17.44 16.208l4.757 9.371-2.636 2.91c-3.687 4.066-5.593 3.671-10.783-2.249Zm15.957-8.337c-1.861-3.41-5.328-8.26-7.697-10.79-4.759-5.053-4.926-9.765-.374-10.418 6.453-.926 20.876 18.906 18.596 25.585-1.428 4.217-7.12 1.848-10.525-4.377Zm16.368-1.46c-.79-1.001-1.892-3.715-2.447-6.024-.546-2.303-2.614-6.566-4.575-9.454-4.482-6.595-4.475-8.297.062-11.276 6.809-4.453 14.506 6.329 13.236 18.557-.356 3.502-.69 7.196-.737 8.198-.045 1.003-.986 1.824-2.097 1.824-1.101 0-2.652-.82-3.442-1.824Zm11.68-3.668c-1.846-1.24-2.02-3.807-1.443-21.263l.327-9.978 4.095-2.15c6.534-3.427 8.61-2.12 10.684 6.786 2.143 9.18 2.59 24.265.76 25.397-2.486 1.535-12.676 2.392-14.423 1.208Zm32.441-11.643c-.517-4.62-1.55-10.297-2.296-12.622-3.061-9.567-.949-15.471 5.525-15.471 1.854 0 4.718-.82 6.367-1.825 4.887-2.978 7.79 2.311 10.624 19.386 2.622 15.806 2.508 16.59-2.469 16.977-1.74.128-6.233.622-9.985 1.093l-6.832.852-.934-8.39Zm37.341-.73c-1.284-3.38-4.513-23.488-4.513-28.092 0-3.86 3.966-5.973 11.102-5.905l7.12.068 1.953 5.837c2.704 8.069 4.011 27.752 1.938 29.044-.89.546-4.903 1.383-8.914 1.861l-7.287.858-1.399-3.67Zm35.016-3.875c-6.056-6.056-5.851-35.137.251-35.183 1.794-.008 4.21-.623 5.366-1.352 6.328-4.006 10.927 6.84 10.074 23.746-.737 14.575-7.985 20.487-15.69 12.79Zm29.85-4.704c-.442-1.906-.64-10.03-.442-18.054l.366-14.59 6.322-.137c16.9-.358 17.386 33.184.516 35.448l-5.965.8-.797-3.467Zm33.557-.175-3.747-3.29 1.101-16.048 1.111-16.05 6.208-.235c9.507-.358 16.786 29.272 8.746 35.602-4.262 3.358-9.612 3.365-13.419.021Zm33.845-1.898c-4.194-2.311-4.338-2.722-4.87-14.522-.184-4.014-.555-8.937-.83-10.943-.424-3.1.076-3.648 3.383-3.648 2.134 0 4.377-.494 4.984-1.095 5.562-5.523 9.492-.47 10.252 13.201.34 6.185.775 12.88.965 14.886.418 4.513-7.386 5.708-13.884 2.12Zm235.267-11.976c0-1.132-7.546-4.066-15.32-5.966-5.328-1.3-7.697-7.332-8.929-22.706-1.239-15.449 5.912-21.886 8.95-8.062 1.217 5.57 3.026 5.449 4.166-.267.782-3.914 1.367-4.408 4.194-3.525 1.81.563 4.544 1.002 6.071.973 3.185-.062 8.352 2.393 10.025 4.764 1.352 1.915-.251 27.918-2.016 32.606-1.14 3.018-7.141 4.85-7.141 2.183Zm-156.844-1.634-4.377-.928-.442-10.174c-.593-13.748.304-16.802 4.94-16.802 2.044 0 4.939-.654 6.437-1.451 5.175-2.774 7.303 1.725 7.303 15.455v12.334l-3.747 1.422c-2.06.782-4.194 1.344-4.743 1.245-.546-.091-2.97-.586-5.37-1.101Zm35.016-2.356c-4.666-2.029-5.365-4.309-7.485-24.348l-.882-8.291 7.173.366c9.332.47 10.678 1.451 10.678 7.818 0 2.912.782 9.112 1.747 13.779 1.101 5.334 1.24 8.95.364 9.772-2.62 2.447-7.225 2.81-11.595.904Zm24.438-.311-3.282-.638v-15.77c0-17.363.364-18.169 8.974-19.78 6.626-1.239 6.937-.455 7.272 18.125l.243 13.738-3.297 2.675c-3.329 2.698-3.938 2.796-9.91 1.65Zm26.9-5.177c-6.997-5.174-2.795-33.792 5.153-35.084 8.054-1.313 9.612 2.007 8.852 18.953-.798 17.972-.798 17.956-6.663 17.956-2.675 0-5.982-.82-7.342-1.825Zm27.091 0c-1.338-1.686-2.97-10.812-4.081-22.795-1.002-10.807 8.087-17.114 12.569-8.725 1.597 2.98 4.628 20.883 4.5 26.529-.147 6.003-9.387 9.551-12.988 4.991ZM248.822 391.945c-2.842-3.723-5.167-7.911-5.167-9.302 0-1.39-1.056-3.405-2.342-4.474-7.59-6.294.008-21.697 8.746-17.723 7.737 3.535 21.134 33.9 14.948 33.9-1.14 0-2.455.988-2.918 2.189-1.754 4.575-7.888 2.455-13.267-4.59Zm30.814-12.09c-2.136-3.23-3.883-6.558-3.883-7.394 0-.837-1.642-4.118-3.647-7.295-4.628-7.326-4.766-12.72-.366-14.621 1.801-.782 4.262-2.127 5.472-2.994 4.391-3.17 9.385.7 14.567 11.277 2.698 5.494 6.179 11.726 7.735 13.86 2.79 3.808 2.44 7.068-.759 7.068-.889 0-2.66.912-3.922 2.029-1.268 1.109-4.33 2.455-6.808 2.978l-4.506.957-3.883-5.865Zm33.633-12.864c-13.769-18.923-13.944-25.413-.76-27.373l6.855-1.026 4.582 6.506c2.523 3.577 6.29 10.28 8.382 14.893l3.8 8.389-3.565 2.737c-6.78 5.211-13.557 3.76-19.294-4.126Zm36.43-5.837c-14.272-22.873-12.539-32.022 5.137-27.159 2.324.639 17.212 24.712 17.212 27.827 0 6.808-18.018 6.27-22.35-.668Zm36.011-5.624c-2.706-3.291-4.908-6.764-4.908-7.713 0-.941-1.042-3.297-2.303-5.235-1.268-1.932-2.09-5.023-1.825-6.879l.48-3.365 7.074.251c8.45.296 11.711 2.918 19.142 15.388 6.064 10.182 6.163 10.798 1.87 12.31-8.45 2.965-14.392 1.52-19.53-4.757Zm154.7 2.485c-5.987-3.648-11.178-12.28-11.366-18.9l-.152-5.318 14.331-.912 3.358 4.104c1.848 2.257 3.383 4.825 3.412 5.706.024.89 1.702 4.712 3.716 8.503 5.252 9.873-2.105 13.641-13.299 6.817Zm-118.962-5.585c-10.411-11.52-8.845-21.627 3.01-19.407 6.733 1.253 11.201 5.19 18.747 16.489 4.506 6.74 4.226 7.036-7.287 7.964l-9.235.745-5.235-5.791Zm81.182 3.38c-7.365-3.266-11.408-8.798-11.552-15.798l-.12-6.215 7.598-.442c8.48-.486 12.561 2.531 15.995 11.848 4.28 11.596-.38 15.737-11.921 10.608Zm120.154-1.982c-.873-2.188-1.519-6.215-1.45-8.952.075-2.735-1.225-7.379-2.872-10.318-4.583-8.155-3.375-13.777 3.077-14.326 7.28-.607 9.49 1.833 13.618 15.024 2.013 6.422 4.087 12.773 4.612 14.12 1.154 2.925-3.527 6.254-10.616 7.561-4.233.774-4.978.416-6.369-3.109Zm-165.08-3.898c-10.388-12.425-10.404-18.321-.055-18.321 9.013 0 11.27 1.602 17.197 12.197 6.864 12.271 6.772 12.606-3.281 12.606h-8.443l-5.418-6.482Zm196.046-7.03c-.69-1.793-3.085-7.781-5.31-13.298-4.652-11.528-3.953-14.31 3.89-15.57 8.472-1.376 8.214-1.643 14.62 15.364 3.739 9.954 3.527 12.197-1.277 13.23-2.211.47-5.509 1.459-7.332 2.196-2.752 1.117-3.542.79-4.59-1.922Zm28.755-11.073c-6.459-11.215-8.237-25.023-3.222-25.023 1.163 0 3.329-.76 4.819-1.686 5.198-3.245 17.683 14.582 17.683 25.25 0 6.33-15.792 7.523-19.28 1.46Zm32.934-1.45c-1.778-1.225-8.61-17.13-9.818-22.859-1.116-5.31-.128-6.777 6.05-8.99l4.786-1.717 3.519 3.8c6.11 6.58 10.662 26.308 6.641 28.785-2.248 1.39-9.643 2.036-11.178.98Zm25.138-9.097c-2.081-2.469-3.776-5.63-3.776-7.037 0-1.398-1.072-5.676-2.371-9.499-2.805-8.229-1.597-10.265 6.997-11.84l5.366-.972 2.211 4.288c1.224 2.355 2.668 9.246 3.222 15.311l.996 11.019-3.01 1.61c-4.437 2.372-5.478 2.059-9.635-2.88Zm27.023-2.644c-3.064-3.062-8.39-23.344-7.052-26.832 3.039-7.91 13.464-3.624 14.93 6.131.427 2.874 1.833 8.595 3.117 12.721 3.282 10.526-3.519 15.458-10.995 7.98Zm66.955-.89c-1.39-1.678-1.467-4.551-.305-12.385 1.103-7.379 1.064-11.414-.129-14.567-2.248-5.959.16-8.589 5.585-6.118l3.776 1.718-1.085 10.569c-.601 5.814-1.027 11.886-.951 13.489.41 8.563-2.918 12.09-6.89 7.295Zm-44.371-1.822c-1.263-4.052-4.11-22.494-4.317-27.98l-.189-5.001 4.864-1.277c6.085-1.595 7.795-.25 10.014 7.881 4.796 17.569 4.05 24.978-2.758 27.35-6.027 2.105-6.686 2.021-7.614-.973Zm27.439.463c-4.163-2.918-9.361-28.816-7.013-34.933 3.488-9.096 14.18-.813 14.49 11.23.131 4.956.754 12.206 1.384 16.105 1.498 9.232-2.113 12.323-8.861 7.598Zm-670.5-83.893c-6.245-6.278-6.048-11.003.768-18.23 6.725-7.128 10.01-6.787 14.659 1.535 4.711 8.427 4.703 9.688-.1 13.108-2.126 1.519-5.075 3.906-6.565 5.312-3.373 3.199-3.988 3.078-8.762-1.725Zm31.803-19.417c-8.412-11.353-8.412-12.925.023-18.617 9.034-6.094 11.596-5.182 18.625 6.68l5.707 9.644-4.955 3.875c-2.729 2.134-5.7 3.883-6.612 3.898-.904.008-2.636.835-3.836 1.831-1.84 1.527-3.253.373-8.952-7.31Zm311.308.39c-1.2-.761-4.346-1.3-6.99-1.203-9.195.35-19.848-14.878-15.374-21.969 1.794-2.834 14.888-3.632 21.294-1.305l4.043 1.473-.944 5.009c-.654 3.486-.152 6.474 1.657 9.832 3.7 6.877 1.611 11.505-3.686 8.162Zm-91.924-2.942c-1.21-.776-3.336-1.049-4.735-.617-1.809.563-3.001-.387-4.157-3.32-.881-2.257-2.933-6.755-4.552-10-4.733-9.475-3.472-11.611 6.848-11.611h8.693l4.788 9.248c5.394 10.425 5.941 14.148 2.233 15.22a60.466 60.466 0 0 0-4.74 1.611c-1.21.486-3.177.243-4.378-.531Zm31.056-2.478c-7.295-11.132-3.488-22.675 7.274-22.053l7.515.442 3.16 10.417c4.187 13.793-10.32 22.844-17.949 11.194Zm-117.571 1.414c-5.677-.858-12.546-14.347-10.412-20.45 4.453-12.736 26.895 1.354 26.895 16.894 0 2.614-5.928 5.03-10.762 4.385-.904-.123-3.48-.494-5.721-.83Zm40.593-.228c-4.832-1.035-10.069-11.831-9.232-19.05l.441-3.747 7.045-.448c8.563-.548 10.584.934 15.076 11.064 4.315 9.757 4.338 9.62-1.438 11.703-5.198 1.883-5.326 1.883-11.892.478ZM221.8 204.15c-.873-2.507-3.23-6.93-5.227-9.816-5.624-8.116-2.75-11.476 9.878-11.52 7.173-.032 12.348 5.44 17.19 18.175 1.8 4.75-2.173 7.09-12.669 7.457l-7.577.264-1.595-4.56Zm40.502-3.813c-6.785-15.677-4.474-19.652 9.075-15.61l6.566 1.954 4.696 8.633c6.694 12.287 6.655 12.355-6.346 11.96l-11.14-.326-2.85-6.61Zm316.35.568c-.487-1.268-.882-4.118-.882-6.336 0-2.22-1.346-5.244-2.988-6.733-4.453-4.028-3.175-8.594 2.554-9.149 6.71-.645 9.361 1.36 14.188 10.721l4.277 8.291-3.548 2.728c-4.408 3.39-12.378 3.67-13.602.478Zm30.34-15.759c-13.214-13.306-.104-19.75 14.371-7.06 3.48 3.055 3.206 7-.69 9.727-4.667 3.268-8.527 2.515-13.68-2.667Zm31.362-10.061c-6.694-4.498-7.568-10.616-1.83-12.805 5.668-2.15 10.348-.593 16.39 5.45l5.19 5.19-3.396 2.742c-4.536 3.68-10.328 3.473-16.354-.577Zm30.981-8.71c-9.818-7.81-8.707-17.142 2.037-17.142 8.231 0 17.6 15.654 11.68 19.53-5.07 3.32-6.953 2.993-13.717-2.388Zm28.368-11.366c-5.068-9.698-4.697-16.08 1.064-18.094 5.417-1.9 8.236-.053 12.265 8.04 5.007 10.054 3.648 14.69-4.879 16.565l-4.529.988-3.921-7.5Zm29.713-10.519c-1.597-3.41-4.037-8.001-5.418-10.197-3.185-5.06-1.582-7.941 6.108-11.003 7.364-2.942 8.854-1.823 14.073 10.57l4.288 10.16-4.014 3.283c-6.633 5.441-11.611 4.506-15.037-2.813Zm32.804-6.526c-.426-1.428-2.994-7.076-5.715-12.554-6.004-12.114-1.049-20.41 9.72-16.284 6.572 2.523 14.034 26.186 8.875 28.14-8.563 3.236-12.059 3.425-12.88.698Zm31.484-4.78c-1.613-1.603-2.918-4.27-2.918-5.935 0-3.677-2.288-8.29-6.309-12.698l-3.015-3.313 2.356-2.356 2.353-2.348 7.008 4.302c5.341 3.281 7.295 5.501 8.223 9.316.667 2.75 1.587 6.49 2.034 8.297 1.681 6.756-4.641 9.826-9.732 4.735Z"/>
</svg>
