<svg xmlns="http://www.w3.org/2000/svg" xml:space="preserve" fill-rule="evenodd" stroke-linecap="round" stroke-miterlimit="1.5" clip-rule="evenodd" viewBox="0 0 3508 2481">
    <path fill="url(#imgA)" stroke="#000" stroke-width="25.008648" d="M2472.218 2027.42h823.698V452.852h-823.698z"/>
    <path fill="url(#imgB)" stroke="#000" stroke-width="24.9977901" d="M2746.781 452.877H2472.21v884.078c151.552 0 274.572-123.03 274.572-274.566V841.22c-159.89-56.546-274.572-209.158-274.572-388.344h274.572Z"/>
    <path fill="url(#imgC)" stroke="#000" stroke-width="9.39" d="M1257.86 2021.56c0-112.7 91.5-204.2 204.2-204.2 1.44 0 2.88.01 4.32.04v204.16h-208.52Z" transform="matrix(0 2.63345 2.68913 0 -2140.313 -1834.18)"/>
    <path fill="url(#imgD)" stroke="#000" stroke-width="24.9977901" d="M2746.781 841.221c42.96 15.234 89.159 23.506 137.279 23.506 226.855 0 411.123-183.806 411.851-410.517v-1.333h-549.13V841.22Z"/>
    <path fill="url(#imgC)" stroke="#000" stroke-width="24.9977901" d="M2746.781 841.221V452.877H2472.21c0 179.186 114.683 331.798 274.572 388.344Z"/>
    <path fill="url(#imgE)" stroke="#000" stroke-width="24.9977901" d="M2763.085 2027.443h-16.18a555.08 555.08 0 0 1-.124-11.37c0-43.453 5.27-85.708 15.219-126.146h-289.791v137.516h290.876Z"/>
    <path fill="url(#imgF)" stroke="#000" stroke-width="24.9977901" d="M3158.4 452.877h137.511-137.51Zm0 307.077v735.388c43.936-11.113 90.026-17.03 137.511-17.03V452.876v1.333c-.403 121.449-53.451 230.585-137.51 305.744Z"/>
    <path fill="url(#imgE)" stroke="#000" stroke-width="24.9977901" d="M3020.89 452.877h137.51-137.51Zm0 388.541v709.196a551.968 551.968 0 0 1 137.51-55.272V759.954c-39.69 35.487-86.291 63.4-137.51 81.464Z"/>
    <path fill="url(#imgA)" stroke="#000" stroke-width="25.008648" d="M1342.091 452.9h823.698v1574.567H1342.09z"/>
    <path fill="url(#imgB)" stroke="#000" stroke-width="25.004512799999997" d="M1891.225 2027.443c0-148.395 120.48-268.875 268.875-268.875 1.896 0 3.792.013 5.688.053v268.822h-274.563Z"/>
    <path fill="url(#imgD)" stroke="#000" stroke-width="24.9977901" d="M1342.09 1825.705V727.442c303.072 0 549.13 246.058 549.13 549.131 0 203.09-110.484 380.577-274.566 475.552V1417.93c0-151.537-123.028-274.567-274.565-274.567v682.34Z"/>
    <path fill="url(#imgF)" stroke="#000" stroke-width="24.9977901" d="M1616.654 1752.125v275.318H1342.09v-201.738c99.984 0 193.763-26.78 274.565-73.58Z"/>
    <path fill="url(#imgC)" stroke="#000" stroke-width="24.9977901" d="M1342.09 1825.705v-682.34c151.536 0 274.564 123.03 274.564 274.566v334.194c-80.802 46.8-174.581 73.58-274.565 73.58Z"/>
    <path fill="url(#imgD)" stroke="#000" stroke-width="24.9977901" d="M1709.199 868.333h456.593v137.516h-345.924c-29.353-51.637-66.826-98.064-110.67-137.516Z"/>
    <path fill="url(#imgF)" stroke="#000" stroke-width="24.9977901" d="M1819.868 1005.849h345.924v137.515h-290.86a546.454 546.454 0 0 0-55.064-137.515Z"/>
    <path fill="url(#imgE)" stroke="#000" stroke-width="24.9977901" d="M1342.09 729.207v-276.33h823.702v415.456h-456.593c-97.303-87.573-226.03-140.891-367.11-140.891v1.765Z"/>
    <path fill="url(#imgA)" stroke="#000" stroke-width="25.008648" d="M211.969 452.9h823.697v1574.567H211.97z"/>
    <path fill="url(#imgE)" stroke="#000" stroke-width="24.993583599999997" d="M1035.653 715.281c-99.984 0-193.762 26.787-274.564 73.583V452.866h274.564V715.28Z"/>
    <path fill="url(#imgD)" stroke="#000" stroke-width="24.993723" d="M1035.658 2027.457H486.527V1264.45c0-203.106 110.489-380.608 274.565-475.563v448.525c0 151.54 123.029 274.573 274.566 274.573v515.473Z"/>
    <path fill="url(#imgF)" stroke="#000" stroke-width="24.993723" d="M1035.658 1511.984c-151.537 0-274.566-123.033-274.566-274.573V788.886c80.805-46.796 174.584-73.583 274.566-73.583v796.68Z"/>
    <path fill="url(#imgE)" stroke="#000" stroke-width="11.36" d="M144.882 1919.81h177.165v101.748H144.882z" transform="matrix(1.54977 0 0 2.6985 -12.572 -3427.732)"/>
    <path fill="url(#imgB)" stroke="#000" stroke-width="24.9977901" d="M211.962 1437.503h274.565v157.686H211.962z"/>
    <path fill="url(#imgC)" stroke="#000" stroke-width="24.9977901" d="M211.962 1595.189h274.565v157.686H211.962z"/>
</svg>
